<svg xmlns="http://www.w3.org/2000/svg" xmlns:xlink="http://www.w3.org/1999/xlink" width="500" zoomAndPan="magnify" viewBox="0 0 375 374.999991" height="500" preserveAspectRatio="xMidYMid meet" version="1.0"><defs><clipPath id="d24bb64c64"><path d="M 47.375 159 L 89 159 L 89 216 L 47.375 216 Z M 47.375 159 " clip-rule="nonzero"/></clipPath></defs><path fill="#f8be52" d="M 222.503906 26.585938 C 213.550781 21.367188 209.457031 32.132812 215.023438 35.1875 C 215.023438 35.1875 214.25 39.953125 218.453125 41.828125 C 223.519531 44.085938 226.128906 41.339844 226.128906 41.339844 C 226.128906 41.339844 229.863281 44.871094 234.351562 41.96875 C 238.160156 39.511719 238.171875 32.570312 232.296875 31 C 234.621094 27.699219 227.851562 19.140625 222.503906 26.585938 Z M 222.503906 26.585938 " fill-opacity="1" fill-rule="nonzero"/><path fill="#302f2f" d="M 230.699219 44.554688 C 228.84375 44.554688 227.226562 43.886719 226.105469 43.152344 C 224.6875 43.992188 221.894531 44.949219 217.863281 43.152344 C 214.304688 41.566406 213.464844 38.144531 213.507812 35.925781 C 211.972656 34.746094 211.0625 32.921875 211.039062 30.878906 C 211.003906 28.328125 212.355469 25.878906 214.476562 24.644531 C 215.765625 23.890625 218.386719 22.988281 222.117188 24.746094 C 225.144531 21.347656 228.570312 21.761719 230.890625 23.410156 C 233.039062 24.941406 234.570312 27.757812 234.167969 30.144531 C 236.4375 31.222656 237.960938 33.199219 238.351562 35.664062 C 238.816406 38.621094 237.523438 41.644531 235.140625 43.1875 C 233.601562 44.183594 232.082031 44.554688 230.699219 44.554688 Z M 226.117188 39.878906 C 226.476562 39.878906 226.839844 40.015625 227.125 40.285156 C 227.417969 40.558594 230.175781 42.941406 233.566406 40.75 C 235.003906 39.820312 235.777344 37.957031 235.484375 36.113281 C 235.316406 35.039062 234.628906 33.125 231.921875 32.402344 C 231.464844 32.277344 231.09375 31.941406 230.933594 31.492188 C 230.773438 31.050781 230.839844 30.550781 231.113281 30.164062 C 231.734375 29.28125 230.921875 26.996094 229.210938 25.777344 C 227.332031 24.441406 225.417969 25.011719 223.679688 27.433594 C 223.242188 28.039062 222.417969 28.214844 221.773438 27.839844 C 219.507812 26.519531 217.4375 26.277344 215.9375 27.152344 C 214.703125 27.871094 213.917969 29.320312 213.9375 30.84375 C 213.949219 31.632812 214.191406 33.078125 215.71875 33.917969 C 216.257812 34.210938 216.550781 34.816406 216.453125 35.417969 C 216.433594 35.5625 215.9375 39.117188 219.042969 40.503906 C 223.03125 42.28125 225.011719 40.402344 225.09375 40.324219 C 225.375 40.027344 225.746094 39.878906 226.117188 39.878906 Z M 226.117188 39.878906 " fill-opacity="1" fill-rule="nonzero"/><path fill="#f8be52" d="M 183.03125 20.3125 C 183.03125 20.3125 175.960938 28.429688 185.15625 30.664062 C 191.179688 32.128906 194.710938 24.648438 194.710938 24.648438 C 194.710938 24.648438 200.890625 27.332031 202.925781 22.902344 C 205.5625 17.167969 199.898438 15.996094 199.898438 15.996094 C 199.898438 15.996094 201.949219 11.4375 197.347656 9.453125 C 193.035156 7.59375 189.734375 12.867188 189.734375 12.867188 C 189.734375 12.867188 186.40625 10.503906 183.609375 11.894531 C 180.964844 13.214844 178.785156 18.585938 183.03125 20.3125 Z M 183.03125 20.3125 " fill-opacity="1" fill-rule="nonzero"/><path fill="#302f2f" d="M 186.753906 32.3125 C 186.136719 32.3125 185.488281 32.238281 184.816406 32.074219 C 181.777344 31.339844 179.902344 29.902344 179.234375 27.8125 C 178.394531 25.171875 179.824219 22.355469 180.914062 20.71875 C 179.855469 19.820312 179.246094 18.578125 179.191406 17.128906 C 179.09375 14.570312 180.75 11.699219 182.964844 10.597656 C 185.332031 9.417969 187.867188 10.253906 189.332031 10.96875 C 191.078125 8.886719 194.292969 6.554688 197.925781 8.121094 C 199.652344 8.871094 200.824219 10.007812 201.410156 11.511719 C 201.921875 12.828125 201.859375 14.128906 201.675781 15.089844 C 202.636719 15.539062 203.824219 16.347656 204.527344 17.734375 C 205.351562 19.367188 205.257812 21.308594 204.246094 23.507812 C 202.457031 27.394531 198.191406 27.257812 195.382812 26.429688 C 194.15625 28.433594 191.210938 32.3125 186.753906 32.3125 Z M 184.125 21.261719 C 183.378906 22.125 181.386719 25.019531 182.003906 26.933594 C 182.339844 27.992188 183.519531 28.773438 185.5 29.257812 C 190.292969 30.417969 193.371094 24.089844 193.398438 24.027344 C 193.738281 23.324219 194.570312 23.007812 195.289062 23.320312 C 195.484375 23.402344 200.195312 25.378906 201.609375 22.296875 C 202.230469 20.945312 202.34375 19.855469 201.941406 19.050781 C 201.324219 17.804688 199.613281 17.414062 199.597656 17.410156 C 199.171875 17.316406 198.804688 17.035156 198.609375 16.644531 C 198.414062 16.253906 198.398438 15.796875 198.578125 15.398438 C 198.578125 15.390625 199.222656 13.875 198.699219 12.542969 C 198.398438 11.789062 197.769531 11.214844 196.773438 10.785156 C 193.664062 9.445312 191.070312 13.464844 190.960938 13.636719 C 190.746094 13.972656 190.40625 14.210938 190.015625 14.289062 C 189.625 14.363281 189.21875 14.277344 188.894531 14.046875 C 188.871094 14.03125 186.195312 12.226562 184.257812 13.195312 C 183.183594 13.726562 182.03125 15.476562 182.089844 17.019531 C 182.125 17.949219 182.597656 18.570312 183.574219 18.96875 C 184.007812 19.144531 184.332031 19.519531 184.441406 19.976562 C 184.550781 20.429688 184.433594 20.910156 184.125 21.261719 Z M 184.125 21.261719 " fill-opacity="1" fill-rule="nonzero"/><g clip-path="url(#d24bb64c64)"><path fill="#302f2f" d="M 59.027344 215.605469 C 56.992188 215.605469 54.957031 215.054688 53.113281 213.945312 C 49.550781 211.808594 47.410156 207.894531 47.519531 203.734375 C 47.816406 192.691406 53.761719 176.207031 80.410156 160.375 C 82.992188 158.839844 86.328125 159.6875 87.863281 162.273438 C 89.398438 164.851562 88.546875 168.191406 85.964844 169.722656 C 63.578125 183.023438 58.613281 195.71875 58.390625 204.023438 C 58.390625 204.132812 58.382812 204.421875 58.714844 204.621094 C 59.023438 204.808594 59.246094 204.679688 59.34375 204.625 C 61.953125 203.144531 65.273438 204.058594 66.753906 206.671875 C 68.238281 209.285156 67.320312 212.601562 64.710938 214.085938 C 62.921875 215.101562 60.972656 215.605469 59.027344 215.605469 Z M 59.027344 215.605469 " fill-opacity="1" fill-rule="nonzero"/></g><path fill="#f8be52" d="M 265.988281 85.597656 C 265.988281 85.597656 273.351562 78.785156 268.539062 73.351562 C 266.402344 70.9375 264.410156 70.179688 262.714844 70.222656 C 263.886719 66.125 262.144531 61.105469 256.546875 59.609375 C 259.769531 55.035156 250.382812 43.160156 242.957031 53.488281 C 236.523438 49.738281 231.902344 51.9375 230.011719 55.519531 C 229.683594 54.84375 229.214844 54.144531 228.574219 53.441406 C 223.863281 48.265625 216.179688 52.101562 216.179688 52.101562 C 216.179688 52.101562 213.085938 48.144531 208.4375 48.320312 C 207.632812 48.347656 206.84375 48.574219 206.117188 48.949219 C 205.992188 48.621094 205.855469 48.285156 205.703125 47.9375 C 202.144531 39.824219 192.96875 46.011719 192.96875 46.011719 C 192.96875 46.011719 188.949219 37.261719 182.554688 40.03125 C 179.734375 41.253906 178.445312 42.832031 177.972656 44.382812 C 176.671875 44.199219 175.132812 44.210938 173.304688 44.480469 C 173.265625 44.417969 173.230469 44.355469 173.1875 44.292969 C 169.429688 38.628906 164.917969 39.757812 164.917969 39.757812 C 164.917969 39.757812 163.375 33.648438 156.816406 33.703125 C 151.910156 33.742188 147.773438 39.351562 150.359375 44.441406 C 147.578125 42.914062 143.941406 43.167969 140.683594 47.699219 C 139.339844 46.917969 138.074219 46.394531 136.898438 46.089844 C 137.410156 44.574219 137.386719 42.597656 135.492188 40.515625 C 131.691406 36.339844 125.496094 39.4375 125.496094 39.4375 C 125.496094 39.4375 123 36.246094 119.25 36.382812 C 115.699219 36.515625 112.472656 41.351562 116.265625 45.34375 C 116.265625 45.34375 104.222656 50.085938 110.308594 56.488281 C 109.371094 56.796875 108.507812 57.363281 107.804688 58.109375 C 106.648438 53.109375 99.578125 47.460938 93.730469 55.597656 C 81.3125 48.355469 75.636719 63.289062 83.355469 67.527344 C 83.355469 67.527344 83.117188 68.996094 83.476562 70.820312 C 88.644531 68.488281 96.878906 66.972656 107.324219 66.324219 C 107.792969 66.292969 108.269531 66.265625 108.746094 66.242188 C 109.027344 66.226562 109.308594 66.210938 109.589844 66.199219 C 109.820312 66.1875 110.050781 66.175781 110.28125 66.164062 C 110.542969 66.152344 110.804688 66.144531 111.066406 66.132812 C 111.335938 66.121094 111.605469 66.113281 111.875 66.101562 C 112.132812 66.09375 112.386719 66.082031 112.644531 66.074219 C 113.089844 66.0625 113.53125 66.046875 113.980469 66.035156 C 114.382812 66.023438 114.792969 66.015625 115.203125 66.007812 C 115.617188 66 116.03125 65.992188 116.445312 65.984375 C 116.675781 65.980469 116.902344 65.980469 117.132812 65.976562 C 119.445312 65.953125 121.835938 65.960938 124.296875 66.007812 C 124.816406 66.015625 125.335938 66.023438 125.863281 66.039062 C 126.792969 66.058594 127.738281 66.085938 128.691406 66.121094 C 129.207031 66.136719 129.726562 66.15625 130.25 66.175781 C 130.765625 66.195312 131.292969 66.21875 131.820312 66.242188 C 132.582031 66.277344 133.355469 66.3125 134.132812 66.351562 C 135.292969 66.410156 136.460938 66.480469 137.644531 66.550781 C 138.089844 66.582031 138.535156 66.605469 138.984375 66.636719 C 140.757812 66.753906 142.554688 66.886719 144.375 67.035156 C 144.890625 67.078125 145.40625 67.121094 145.925781 67.167969 C 146.511719 67.214844 147.101562 67.269531 147.695312 67.324219 C 149.546875 67.492188 151.425781 67.675781 153.320312 67.875 C 154.273438 67.972656 155.234375 68.078125 156.203125 68.191406 C 156.789062 68.257812 157.382812 68.320312 157.976562 68.394531 C 158.464844 68.449219 159.164062 68.535156 159.78125 68.605469 C 164.789062 69.214844 169.921875 69.933594 175.132812 70.761719 C 175.296875 70.785156 175.460938 70.8125 175.621094 70.835938 C 178.296875 71.265625 180.945312 71.710938 183.558594 72.179688 C 186.4375 72.691406 189.273438 73.230469 192.0625 73.785156 C 194.796875 74.328125 197.476562 74.894531 200.113281 75.480469 C 202.03125 75.90625 203.71875 76.316406 205.652344 76.75 C 209.75 77.722656 213.714844 78.730469 217.515625 79.777344 C 218.816406 80.132812 220.089844 80.496094 221.347656 80.855469 C 228.59375 82.949219 235.191406 85.160156 240.984375 87.421875 C 241.375 87.574219 241.757812 87.726562 242.140625 87.878906 C 242.488281 88.015625 242.832031 88.15625 243.175781 88.296875 C 248.179688 90.332031 252.523438 92.40625 256.085938 94.472656 C 260.898438 97.253906 264.285156 100.023438 265.953125 102.652344 C 266.273438 103.15625 266.527344 103.65625 266.71875 104.148438 C 267.289062 103.632812 267.871094 102.996094 268.457031 102.230469 C 274.0625 94.894531 265.988281 85.597656 265.988281 85.597656 Z M 265.988281 85.597656 " fill-opacity="1" fill-rule="nonzero"/><path fill="#302f2f" d="M 267.914062 85.707031 C 270.683594 82.644531 273.703125 76.988281 269.625 72.390625 C 267.972656 70.527344 266.238281 69.378906 264.4375 68.957031 C 264.550781 68.042969 264.535156 67.101562 264.386719 66.164062 C 263.859375 62.792969 261.695312 60.113281 258.492188 58.746094 C 259.242188 55.617188 257.207031 51.632812 254.269531 49.542969 C 251.1875 47.351562 246.59375 46.851562 242.570312 51.625 C 237.417969 49.054688 233.839844 50.265625 232.105469 51.277344 C 231.339844 51.722656 230.652344 52.292969 230.058594 52.949219 C 229.929688 52.785156 229.789062 52.621094 229.644531 52.464844 C 225.296875 47.683594 219.003906 49.421875 216.554688 50.363281 C 215.238281 49.058594 212.320312 46.726562 208.382812 46.867188 C 207.882812 46.882812 207.386719 46.960938 206.90625 47.089844 C 205.816406 44.738281 204.171875 43.234375 202.023438 42.613281 C 198.839844 41.6875 195.40625 43.046875 193.542969 44.003906 C 191.507812 40.589844 187.300781 36.390625 181.976562 38.699219 C 179.582031 39.738281 177.929688 41.125 177.042969 42.832031 C 176.09375 42.777344 175.082031 42.808594 174.003906 42.925781 C 171.066406 38.871094 167.734375 38.21875 165.917969 38.214844 C 164.835938 35.671875 162.058594 32.246094 156.902344 32.246094 L 156.808594 32.246094 C 153.449219 32.277344 150.246094 34.476562 148.835938 37.730469 C 148.203125 39.1875 147.992188 40.714844 148.175781 42.210938 C 145.679688 41.882812 142.867188 42.78125 140.292969 45.835938 C 139.703125 45.542969 139.136719 45.300781 138.59375 45.101562 C 138.609375 44.988281 138.617188 44.875 138.625 44.757812 C 138.726562 42.902344 138.03125 41.148438 136.5625 39.535156 C 133.039062 35.664062 128.007812 36.917969 125.867188 37.707031 C 124.710938 36.601562 122.335938 34.816406 119.199219 34.929688 C 116.804688 35.015625 114.554688 36.667969 113.589844 39.035156 C 112.8125 40.945312 112.980469 42.960938 114.027344 44.765625 C 111.660156 45.972656 107.714844 48.484375 107.195312 52.058594 C 107.113281 52.625 107.117188 53.183594 107.214844 53.738281 C 106.582031 52.933594 105.847656 52.21875 105.042969 51.648438 C 101.964844 49.457031 97.367188 48.957031 93.34375 53.730469 C 88.191406 51.15625 84.613281 52.371094 82.878906 53.382812 C 80.109375 54.996094 78.347656 58.199219 78.390625 61.539062 C 78.425781 64.339844 79.664062 66.742188 81.824219 68.273438 C 81.777344 69.199219 81.851562 70.320312 82.136719 71.480469 C 82.941406 71.042969 83.84375 70.632812 84.839844 70.25 C 84.621094 68.90625 84.773438 67.847656 84.785156 67.753906 C 84.882812 67.148438 84.589844 66.546875 84.054688 66.25 C 82.324219 65.300781 81.316406 63.570312 81.292969 61.503906 C 81.261719 59.191406 82.457031 56.988281 84.339844 55.886719 C 86.601562 54.566406 89.675781 54.910156 93 56.84375 C 93.644531 57.222656 94.472656 57.042969 94.90625 56.4375 C 98.398438 51.578125 101.703125 52.832031 103.359375 54.011719 C 104.6875 54.957031 105.707031 56.378906 106.203125 57.742188 C 105.644531 58.46875 105.199219 59.308594 104.914062 60.214844 C 104.242188 62.347656 104.519531 64.511719 105.65625 66.429688 C 106.792969 66.347656 107.957031 66.273438 109.148438 66.21875 C 108.132812 65.199219 107.679688 64.1875 107.527344 63.292969 C 107.371094 62.394531 107.515625 61.621094 107.679688 61.085938 C 107.992188 60.101562 108.601562 59.238281 109.367188 58.628906 C 109.570312 58.464844 109.785156 58.320312 110.003906 58.195312 C 110.46875 57.929688 110.972656 57.753906 111.484375 57.699219 C 115.285156 57.25 118.246094 60.359375 118.273438 60.382812 C 118.347656 60.46875 118.433594 60.539062 118.523438 60.597656 C 118.980469 60.914062 119.597656 60.9375 120.085938 60.644531 C 120.269531 60.535156 123.300781 58.75 126.5625 58.980469 C 126.816406 58.996094 127.074219 59.027344 127.332031 59.070312 C 128.472656 59.265625 129.609375 59.734375 130.640625 60.636719 C 130.699219 60.6875 130.75 60.738281 130.808594 60.792969 C 131.15625 61.117188 131.453125 61.441406 131.710938 61.777344 C 132.433594 62.714844 132.820312 63.707031 132.851562 64.730469 C 132.855469 64.878906 132.851562 65.027344 132.84375 65.171875 C 132.820312 65.554688 132.753906 65.929688 132.652344 66.277344 C 133.042969 66.292969 133.4375 66.3125 133.832031 66.335938 C 134.417969 66.363281 135.003906 66.398438 135.59375 66.429688 C 135.707031 65.875 135.765625 65.289062 135.746094 64.679688 C 135.703125 63.082031 135.171875 61.582031 134.152344 60.199219 C 133.769531 59.675781 133.3125 59.167969 132.789062 58.675781 C 132.445312 58.351562 132.09375 58.066406 131.738281 57.816406 C 130.855469 57.1875 129.945312 56.761719 129.03125 56.480469 C 128.53125 55.65625 128.253906 54.675781 128.238281 53.609375 C 128.210938 51.296875 129.40625 49.09375 131.292969 47.992188 C 132.273438 47.421875 133.410156 47.160156 134.652344 47.210938 C 135.605469 47.246094 136.621094 47.464844 137.679688 47.863281 C 138.421875 48.140625 139.175781 48.5 139.949219 48.949219 C 140.59375 49.328125 141.421875 49.152344 141.859375 48.542969 C 144.742188 44.53125 147.496094 44.6875 149.300781 45.523438 C 149.683594 45.703125 150.019531 45.910156 150.3125 46.117188 C 150.988281 46.597656 151.585938 47.203125 152.074219 47.863281 C 153.390625 49.644531 153.910156 51.804688 153.082031 52.980469 C 152.808594 53.371094 152.742188 53.867188 152.902344 54.3125 C 153.066406 54.757812 153.433594 55.09375 153.890625 55.21875 C 154.996094 55.511719 155.957031 55.980469 156.753906 56.597656 C 157.875 57.457031 158.671875 58.617188 159.058594 59.992188 C 159.101562 60.136719 159.136719 60.285156 159.171875 60.4375 C 159.199219 60.5625 159.222656 60.691406 159.242188 60.824219 C 159.578125 62.957031 158.964844 65.105469 157.671875 66.628906 C 157.289062 67.089844 156.835938 67.492188 156.332031 67.816406 C 156.148438 67.933594 155.972656 68.039062 155.792969 68.140625 C 156.574219 68.226562 157.359375 68.316406 158.148438 68.40625 C 158.695312 68.472656 159.242188 68.539062 159.792969 68.605469 C 160.367188 68.675781 160.941406 68.746094 161.523438 68.820312 C 161.234375 68.355469 160.992188 67.820312 160.800781 67.207031 C 161.523438 65.996094 161.988281 64.621094 162.15625 63.183594 C 162.25 62.421875 162.257812 61.644531 162.175781 60.867188 C 162.433594 60.640625 162.707031 60.429688 162.992188 60.234375 C 165.136719 58.769531 167.835938 58.277344 168.035156 58.238281 C 168.453125 58.167969 168.820312 57.914062 169.039062 57.550781 C 169.253906 57.179688 169.300781 56.738281 169.15625 56.335938 C 168.6875 54.96875 167.792969 50.859375 169.324219 48.308594 C 169.988281 47.207031 171.039062 46.480469 172.523438 46.109375 C 172.785156 46.035156 173.0625 45.980469 173.355469 45.933594 C 174.101562 45.820312 174.804688 45.746094 175.460938 45.722656 C 175.75 45.707031 176.023438 45.703125 176.292969 45.707031 C 177.382812 45.71875 178.351562 45.863281 179.191406 46.136719 C 180.121094 46.4375 180.894531 46.902344 181.503906 47.523438 C 183.90625 49.960938 183.210938 54.246094 183.199219 54.308594 C 183.175781 54.449219 183.171875 54.582031 183.1875 54.71875 C 182.863281 55.074219 182.574219 55.460938 182.320312 55.882812 C 181.046875 57.996094 180.921875 60.550781 181.121094 62.617188 C 181.203125 63.445312 181.34375 64.195312 181.476562 64.804688 C 181 64.941406 180.503906 65.101562 180 65.296875 C 177.519531 66.246094 174.863281 67.925781 173.636719 70.523438 C 174.296875 70.625 174.957031 70.730469 175.621094 70.835938 C 175.980469 70.890625 176.339844 70.949219 176.695312 71.007812 C 178.605469 68.253906 183.089844 67.382812 183.496094 67.3125 C 183.503906 67.3125 183.511719 67.3125 183.515625 67.3125 C 183.894531 67.246094 184.234375 67.027344 184.449219 66.714844 C 184.476562 66.683594 184.496094 66.648438 184.515625 66.617188 C 184.621094 66.441406 184.6875 66.246094 184.707031 66.046875 C 184.734375 65.835938 184.710938 65.613281 184.640625 65.40625 C 184.632812 65.390625 184.316406 64.445312 184.113281 63.136719 C 183.847656 61.429688 183.769531 59.097656 184.8125 57.371094 C 185.195312 56.734375 185.710938 56.222656 186.359375 55.835938 C 187.03125 55.433594 187.855469 55.15625 188.839844 55.003906 C 189.789062 54.855469 190.667969 54.78125 191.484375 54.773438 C 193.925781 54.753906 195.773438 55.363281 196.984375 56.589844 C 197.878906 57.503906 198.347656 58.667969 198.574219 59.773438 C 198.667969 60.21875 198.722656 60.660156 198.753906 61.0625 C 198.847656 62.363281 198.683594 63.355469 198.679688 63.375 C 198.609375 63.8125 198.734375 64.25 199.019531 64.582031 C 199.042969 64.609375 199.070312 64.636719 199.09375 64.664062 C 199.4375 64.996094 199.921875 65.140625 200.394531 65.050781 C 200.765625 64.980469 201.121094 64.929688 201.453125 64.914062 C 203.574219 64.796875 204.847656 65.71875 205.542969 66.515625 C 204.765625 67.605469 204.199219 68.710938 203.824219 69.558594 C 202.71875 69.140625 201.429688 68.785156 200.085938 68.617188 C 198.960938 68.46875 197.796875 68.457031 196.671875 68.644531 C 195.675781 68.808594 194.710938 69.125 193.832031 69.648438 C 193.082031 70.089844 192.394531 70.683594 191.800781 71.445312 C 191.5 71.828125 191.222656 72.246094 190.976562 72.71875 C 190.839844 72.980469 190.714844 73.238281 190.59375 73.492188 C 191.582031 73.683594 192.5625 73.878906 193.539062 74.078125 C 193.542969 74.078125 193.542969 74.074219 193.542969 74.074219 C 193.910156 73.375 194.371094 72.84375 194.890625 72.441406 C 195.714844 71.800781 196.691406 71.503906 197.691406 71.414062 C 197.925781 71.390625 198.160156 71.378906 198.394531 71.378906 C 201.109375 71.378906 203.785156 72.691406 203.972656 72.78125 C 204.351562 72.972656 204.796875 72.988281 205.191406 72.820312 C 205.582031 72.652344 205.882812 72.324219 206.007812 71.917969 C 206.144531 71.484375 206.402344 70.8125 206.789062 70.058594 C 207.320312 68.988281 208.097656 67.757812 209.085938 66.804688 C 209.628906 66.28125 210.242188 65.839844 210.914062 65.5625 C 212.316406 64.980469 213.835938 65.140625 215.566406 66.046875 C 218.964844 67.832031 220.851562 69.890625 221.175781 72.167969 C 221.292969 73.007812 221.191406 73.828125 220.972656 74.582031 C 220.910156 74.800781 220.835938 75.015625 220.753906 75.222656 C 219.996094 75.601562 219.25 76.058594 218.5625 76.585938 C 217.5625 77.347656 216.6875 78.277344 216.082031 79.382812 C 216.75 79.558594 217.417969 79.742188 218.078125 79.929688 C 218.386719 80.011719 218.691406 80.09375 218.996094 80.183594 C 219.71875 79.191406 220.777344 78.453125 221.84375 77.910156 C 222.210938 77.714844 222.582031 77.554688 222.941406 77.410156 C 224.386719 76.832031 225.621094 76.605469 225.75 76.582031 C 226.167969 76.511719 226.53125 76.253906 226.75 75.894531 C 226.964844 75.527344 227.011719 75.085938 226.875 74.683594 C 226.871094 74.671875 226.8125 74.496094 226.726562 74.191406 C 226.359375 72.863281 225.542969 69.128906 227.042969 66.644531 C 227.269531 66.277344 227.539062 65.949219 227.847656 65.671875 C 228.296875 65.253906 228.832031 64.929688 229.464844 64.6875 C 229.808594 64.558594 230.171875 64.453125 230.570312 64.367188 C 230.730469 64.332031 230.898438 64.304688 231.066406 64.277344 C 231.800781 64.164062 232.488281 64.09375 233.140625 64.066406 C 235.875 63.9375 237.914062 64.539062 239.214844 65.867188 C 241.617188 68.304688 240.925781 72.589844 240.914062 72.652344 C 240.832031 73.121094 240.988281 73.601562 241.328125 73.9375 C 241.667969 74.273438 242.152344 74.414062 242.621094 74.324219 C 243.117188 74.226562 243.578125 74.183594 244 74.179688 C 244.160156 74.179688 244.316406 74.183594 244.464844 74.195312 L 244.46875 74.195312 C 245.507812 74.265625 246.308594 74.605469 246.90625 75.019531 C 247.300781 75.292969 247.609375 75.59375 247.847656 75.875 C 247.929688 75.976562 248.003906 76.074219 248.070312 76.171875 C 249.164062 77.703125 249.335938 79.792969 248.488281 81.246094 C 248.457031 81.296875 248.429688 81.347656 248.394531 81.394531 C 247.53125 81.464844 246.726562 81.621094 245.976562 81.863281 C 244.996094 82.167969 244.109375 82.601562 243.308594 83.125 C 241.769531 84.128906 240.539062 85.464844 239.5625 86.871094 C 239.972656 87.027344 240.378906 87.183594 240.78125 87.339844 C 241.128906 87.472656 241.472656 87.609375 241.816406 87.746094 C 242.011719 87.820312 242.203125 87.898438 242.398438 87.976562 C 243.535156 86.503906 245.023438 85.222656 246.9375 84.617188 C 247.664062 84.394531 248.449219 84.261719 249.308594 84.253906 C 249.496094 84.253906 249.679688 84.253906 249.859375 84.261719 C 252.550781 84.328125 254.332031 85.078125 255.144531 86.472656 C 256.222656 88.335938 255.675781 91.261719 254.808594 93.746094 C 255.710938 94.242188 256.5625 94.734375 257.375 95.234375 C 258.503906 92.21875 259.429688 88.082031 257.652344 85.023438 C 256.507812 83.039062 254.460938 81.851562 251.546875 81.480469 C 251.96875 80.234375 252.035156 78.855469 251.757812 77.523438 C 251.535156 76.457031 251.09375 75.410156 250.433594 74.488281 C 250.03125 73.921875 249.570312 73.425781 249.058594 73.007812 C 249.070312 73 249.078125 72.996094 249.089844 72.988281 C 250.015625 72.417969 250.964844 72.152344 251.925781 72.1875 C 254.355469 72.285156 256.21875 74.285156 256.226562 74.300781 C 256.332031 74.414062 256.453125 74.507812 256.582031 74.585938 L 256.585938 74.585938 C 256.824219 74.722656 257.101562 74.789062 257.382812 74.773438 C 257.824219 74.753906 258.226562 74.53125 258.484375 74.175781 C 258.5 74.148438 260.242188 71.789062 262.660156 71.675781 C 263.003906 71.65625 263.351562 71.683594 263.703125 71.765625 C 264.941406 72.03125 266.191406 72.886719 267.457031 74.308594 C 271.265625 78.613281 265.261719 84.292969 265.003906 84.53125 C 264.433594 85.0625 264.382812 85.953125 264.894531 86.546875 C 264.964844 86.632812 272.121094 95.050781 267.308594 101.34375 C 266.882812 101.898438 266.464844 102.382812 266.046875 102.796875 C 266.660156 103.796875 267.019531 104.769531 267.117188 105.71875 C 267.964844 105.039062 268.796875 104.167969 269.609375 103.105469 C 274.75 96.390625 269.976562 88.527344 267.914062 85.707031 Z M 129.832031 45.488281 C 127.0625 47.101562 125.300781 50.308594 125.339844 53.644531 C 125.34375 53.90625 125.359375 54.164062 125.382812 54.417969 C 125.433594 54.988281 125.539062 55.539062 125.695312 56.0625 C 123.113281 56.140625 120.820312 57.042969 119.570312 57.644531 C 119.476562 57.566406 119.378906 57.484375 119.269531 57.398438 C 117.746094 56.1875 114.800781 54.386719 111.144531 54.820312 C 111.039062 54.832031 110.933594 54.851562 110.832031 54.867188 C 110.210938 54.042969 109.953125 53.246094 110.066406 52.480469 C 110.453125 49.773438 115.175781 47.332031 116.800781 46.691406 C 117.25 46.511719 117.578125 46.125 117.683594 45.652344 C 117.789062 45.179688 117.652344 44.6875 117.320312 44.339844 C 115.640625 42.574219 115.945312 40.941406 116.277344 40.128906 C 116.808594 38.820312 118.054688 37.875 119.304688 37.828125 C 122.25 37.726562 124.335938 40.304688 124.355469 40.328125 C 124.777344 40.867188 125.527344 41.039062 126.140625 40.734375 C 126.355469 40.628906 131.417969 38.1875 134.421875 41.488281 C 135.296875 42.449219 135.726562 43.398438 135.734375 44.386719 C 132.988281 44.039062 130.996094 44.8125 129.832031 45.488281 Z M 166.84375 46.8125 C 165.054688 49.78125 165.53125 53.628906 166 55.738281 C 164.515625 56.160156 162.835938 56.851562 161.363281 57.867188 C 160.367188 55.683594 158.574219 53.964844 156.214844 52.957031 C 156.96875 49.828125 154.929688 45.84375 151.992188 43.753906 C 151.824219 43.632812 151.652344 43.519531 151.480469 43.40625 C 150.855469 41.945312 150.847656 40.378906 151.496094 38.886719 C 152.457031 36.667969 154.601562 35.167969 156.832031 35.148438 L 156.898438 35.148438 C 162.140625 35.148438 163.460938 39.917969 163.515625 40.113281 C 163.710938 40.886719 164.496094 41.359375 165.273438 41.164062 C 165.300781 41.152344 168.019531 40.523438 170.824219 43.597656 C 169.082031 44.234375 167.746094 45.3125 166.84375 46.8125 Z M 201.394531 59.074219 C 201.058594 57.550781 200.382812 55.917969 199.070312 54.574219 C 196.765625 52.21875 193.171875 51.398438 188.394531 52.136719 C 187.601562 52.257812 186.875 52.445312 186.207031 52.703125 C 186.1875 50.714844 185.746094 47.710938 183.589844 45.503906 C 182.65625 44.546875 181.503906 43.84375 180.148438 43.398438 C 180.804688 42.617188 181.800781 41.9375 183.128906 41.359375 C 188.140625 39.1875 191.511719 46.316406 191.648438 46.617188 C 191.828125 47 192.167969 47.292969 192.574219 47.40625 C 192.984375 47.523438 193.421875 47.449219 193.777344 47.214844 C 193.816406 47.1875 197.964844 44.449219 201.226562 45.402344 C 202.5625 45.789062 203.574219 46.769531 204.3125 48.378906 C 203.199219 49.226562 202.292969 50.382812 201.738281 51.742188 C 200.796875 54.050781 201.027344 56.488281 202.339844 58.671875 C 202.019531 58.832031 201.703125 58.964844 201.394531 59.074219 Z M 229.214844 58.507812 C 229.144531 59.839844 228.515625 60.992188 227.949219 61.765625 C 227.742188 62.050781 227.542969 62.285156 227.386719 62.460938 C 226.195312 63.101562 225.242188 64.003906 224.550781 65.15625 C 223.765625 66.46875 223.417969 67.9375 223.3125 69.363281 C 222.234375 67.121094 220.09375 65.152344 216.910156 63.484375 C 214.40625 62.171875 212.019531 61.96875 209.804688 62.882812 C 208.9375 63.242188 208.164062 63.75 207.484375 64.34375 C 206.210938 63.007812 204.535156 62.222656 202.644531 62.042969 C 203.679688 61.46875 204.628906 61.027344 205.269531 60.773438 C 205.714844 60.597656 206.046875 60.210938 206.152344 59.742188 C 206.171875 59.652344 206.183594 59.558594 206.1875 59.464844 C 206.195312 59.085938 206.054688 58.707031 205.789062 58.429688 C 205.273438 57.886719 204.898438 57.347656 204.632812 56.832031 C 203.765625 55.140625 204.082031 53.667969 204.425781 52.839844 C 204.648438 52.285156 204.96875 51.789062 205.351562 51.355469 C 206.054688 50.5625 206.984375 50.007812 207.949219 49.832031 C 208.125 49.796875 208.304688 49.773438 208.488281 49.765625 C 212.3125 49.628906 215.011719 52.964844 215.035156 52.992188 C 215.464844 53.539062 216.210938 53.707031 216.828125 53.398438 C 216.894531 53.367188 223.574219 50.101562 227.5 54.414062 C 227.847656 54.800781 228.144531 55.1875 228.386719 55.578125 C 228.984375 56.539062 229.261719 57.523438 229.214844 58.507812 Z M 261.527344 68.902344 C 259.613281 69.273438 258.121094 70.398438 257.1875 71.292969 C 256.082031 70.445312 254.277344 69.390625 252.074219 69.292969 C 249.980469 69.199219 248 69.960938 246.175781 71.550781 C 245.460938 71.359375 244.703125 71.273438 243.914062 71.28125 C 243.929688 69.296875 243.542969 66.144531 241.296875 63.847656 C 239.136719 61.640625 235.847656 60.785156 231.511719 61.296875 C 231.824219 60.519531 232.054688 59.640625 232.105469 58.683594 C 232.164062 57.636719 232.007812 56.613281 231.640625 55.625 C 232.140625 54.871094 232.796875 54.234375 233.566406 53.785156 C 235.832031 52.464844 238.90625 52.804688 242.230469 54.742188 C 242.875 55.117188 243.699219 54.941406 244.136719 54.335938 C 247.628906 49.472656 250.929688 50.726562 252.585938 51.90625 C 255.097656 53.691406 256.5 57.160156 255.359375 58.777344 C 255.085938 59.160156 255.019531 59.65625 255.183594 60.101562 C 255.339844 60.550781 255.710938 60.890625 256.167969 61.007812 C 259.132812 61.800781 261.085938 63.847656 261.523438 66.613281 C 261.644531 67.386719 261.640625 68.160156 261.527344 68.902344 Z M 261.527344 68.902344 " fill-opacity="1" fill-rule="nonzero"/><path fill="#f9f1e4" d="M 265.953125 102.648438 C 258.953125 91.609375 221.714844 78.1875 175.625 70.835938 C 129.539062 63.480469 89.972656 64.652344 79.882812 72.96875 C 78.507812 74.097656 77.683594 75.363281 77.460938 76.753906 C 77.238281 78.148438 77.628906 79.605469 78.585938 81.109375 L 69.671875 235.976562 C 70.089844 233.355469 73.789062 231.414062 79.96875 230.1875 C 89.597656 228.277344 105.230469 228.089844 123.820312 229.742188 C 131.984375 230.464844 140.714844 231.542969 149.757812 232.988281 C 150.671875 233.132812 151.578125 233.28125 152.480469 233.429688 C 168.457031 236.089844 183.050781 239.511719 194.890625 243.191406 C 204.855469 246.285156 212.871094 249.5625 218.113281 252.714844 C 222.855469 255.566406 225.328125 258.320312 224.941406 260.746094 L 264.652344 110.792969 C 266.03125 109.660156 266.855469 108.398438 267.078125 107.003906 C 267.300781 105.613281 266.910156 104.152344 265.953125 102.648438 Z M 265.953125 102.648438 " fill-opacity="1" fill-rule="nonzero"/><path fill="#f9f1e4" d="M 134.132812 66.351562 C 133.996094 66.949219 133.789062 67.496094 133.554688 67.980469 C 132.835938 67.464844 132.265625 66.867188 131.820312 66.242188 C 132.585938 66.273438 133.355469 66.308594 134.132812 66.351562 Z M 134.132812 66.351562 " fill-opacity="1" fill-rule="nonzero"/><path fill="#e46750" d="M 149.75 232.976562 C 152.292969 233.382812 154.828125 233.8125 157.351562 234.265625 C 159.871094 234.71875 162.371094 235.191406 164.851562 235.6875 C 167.328125 236.183594 169.773438 236.699219 172.183594 237.234375 C 174.59375 237.769531 176.957031 238.320312 179.277344 238.886719 C 181.59375 239.453125 183.855469 240.035156 186.058594 240.628906 C 188.265625 241.226562 190.402344 241.832031 192.472656 242.449219 C 194.542969 243.066406 196.535156 243.691406 198.449219 244.324219 C 200.363281 244.957031 202.191406 245.59375 203.933594 246.238281 C 205.671875 246.878906 207.320312 247.523438 208.871094 248.171875 C 210.421875 248.816406 211.871094 249.464844 213.214844 250.105469 C 214.5625 250.75 215.796875 251.390625 216.925781 252.027344 C 218.054688 252.660156 219.066406 253.289062 219.964844 253.910156 C 220.863281 254.53125 221.644531 255.140625 222.304688 255.738281 C 222.96875 256.339844 223.507812 256.925781 223.921875 257.5 C 224.339844 258.070312 224.632812 258.628906 224.804688 259.167969 C 224.972656 259.710938 225.015625 260.230469 224.9375 260.734375 C 224.855469 261.238281 224.652344 261.722656 224.324219 262.183594 C 223.992188 262.644531 223.542969 263.082031 222.96875 263.496094 C 222.390625 263.910156 221.699219 264.300781 220.882812 264.664062 C 220.066406 265.03125 219.136719 265.367188 218.089844 265.675781 C 217.042969 265.988281 215.882812 266.269531 214.613281 266.519531 C 213.34375 266.773438 211.96875 266.996094 210.492188 267.191406 C 209.011719 267.382812 207.433594 267.546875 205.757812 267.679688 C 204.082031 267.8125 202.320312 267.910156 200.464844 267.980469 C 198.609375 268.050781 196.671875 268.085938 194.65625 268.09375 C 192.640625 268.097656 190.550781 268.074219 188.394531 268.015625 C 186.234375 267.957031 184.015625 267.871094 181.734375 267.75 C 179.453125 267.628906 177.125 267.476562 174.746094 267.296875 C 172.363281 267.113281 169.945312 266.902344 167.488281 266.660156 C 165.035156 266.417969 162.550781 266.148438 160.039062 265.847656 C 157.53125 265.546875 155.007812 265.222656 152.46875 264.867188 C 149.929688 264.511719 147.390625 264.132812 144.847656 263.726562 C 142.304688 263.324219 139.773438 262.894531 137.25 262.441406 C 134.726562 261.988281 132.226562 261.511719 129.75 261.015625 C 127.269531 260.519531 124.824219 260.003906 122.417969 259.472656 C 120.007812 258.9375 117.640625 258.386719 115.324219 257.820312 C 113.003906 257.25 110.742188 256.671875 108.539062 256.074219 C 106.335938 255.480469 104.195312 254.875 102.128906 254.257812 C 100.058594 253.640625 98.066406 253.015625 96.152344 252.382812 C 94.238281 251.75 92.410156 251.113281 90.667969 250.46875 C 88.925781 249.824219 87.28125 249.179688 85.730469 248.535156 C 84.179688 247.886719 82.730469 247.242188 81.382812 246.597656 C 80.039062 245.953125 78.800781 245.316406 77.671875 244.679688 C 76.546875 244.042969 75.53125 243.417969 74.632812 242.796875 C 73.734375 242.175781 72.953125 241.566406 72.292969 240.964844 C 71.632812 240.367188 71.09375 239.78125 70.675781 239.207031 C 70.257812 238.632812 69.964844 238.078125 69.796875 237.535156 C 69.625 236.996094 69.582031 236.472656 69.664062 235.96875 C 69.742188 235.464844 69.945312 234.984375 70.277344 234.523438 C 70.605469 234.0625 71.058594 233.625 71.632812 233.207031 C 72.207031 232.792969 72.902344 232.40625 73.71875 232.039062 C 74.53125 231.675781 75.464844 231.339844 76.511719 231.027344 C 77.558594 230.71875 78.714844 230.4375 79.984375 230.183594 C 81.253906 229.933594 82.628906 229.707031 84.109375 229.515625 C 85.589844 229.320312 87.164062 229.160156 88.839844 229.027344 C 90.515625 228.894531 92.28125 228.792969 94.136719 228.726562 C 95.992188 228.65625 97.925781 228.617188 99.941406 228.613281 C 101.960938 228.605469 104.046875 228.632812 106.207031 228.691406 C 108.363281 228.746094 110.582031 228.835938 112.863281 228.957031 C 115.144531 229.078125 117.476562 229.226562 119.855469 229.410156 C 122.234375 229.589844 124.652344 229.804688 127.109375 230.046875 C 129.566406 230.289062 132.050781 230.558594 134.558594 230.859375 C 137.066406 231.15625 139.59375 231.484375 142.128906 231.839844 C 144.667969 232.191406 147.210938 232.574219 149.75 232.976562 Z M 149.75 232.976562 " fill-opacity="1" fill-rule="nonzero"/><path fill="#e46750" d="M 123.820312 229.742188 C 105.230469 228.089844 89.597656 228.277344 79.96875 230.1875 L 97.992188 75.1875 C 109.386719 73.800781 124.539062 73.730469 141.804688 75.082031 Z M 123.820312 229.742188 " fill-opacity="1" fill-rule="nonzero"/><path fill="#e46750" d="M 225.890625 90.757812 L 194.890625 243.191406 C 183.050781 239.515625 168.457031 236.089844 152.480469 233.429688 L 183.570312 80.558594 C 199.242188 83.40625 213.65625 86.925781 225.890625 90.757812 Z M 225.890625 90.757812 " fill-opacity="1" fill-rule="nonzero"/><path fill="#e46750" d="M 264.65625 110.792969 L 224.941406 260.746094 C 225.328125 258.316406 222.855469 255.566406 218.113281 252.714844 L 257.507812 104.285156 C 260.890625 106.503906 263.324219 108.691406 264.65625 110.792969 Z M 264.65625 110.792969 " fill-opacity="1" fill-rule="nonzero"/><path fill="#302f2f" d="M 267.179688 101.875 C 262.582031 94.621094 247.648438 88.148438 235.933594 83.992188 C 219.386719 78.125 198.050781 72.941406 175.855469 69.402344 C 153.660156 65.863281 131.765625 64.148438 114.21875 64.578125 C 101.792969 64.878906 85.589844 66.386719 78.964844 71.847656 C 77.292969 73.21875 76.304688 74.792969 76.027344 76.527344 C 75.773438 78.125 76.144531 79.78125 77.113281 81.464844 L 68.222656 235.875 C 67.570312 240.847656 74.949219 246.214844 90.171875 251.835938 C 104.457031 257.109375 123.796875 261.847656 144.625 265.167969 C 162.589844 268.035156 179.828125 269.554688 193.996094 269.554688 C 196.25 269.554688 198.433594 269.519531 200.523438 269.441406 C 216.730469 268.835938 225.414062 266.03125 226.347656 261.109375 L 265.945312 111.589844 C 267.390625 110.292969 268.257812 108.832031 268.511719 107.234375 C 268.789062 105.5 268.339844 103.695312 267.179688 101.875 Z M 78.890625 76.984375 C 79.054688 75.972656 79.695312 74.996094 80.808594 74.085938 C 85.476562 70.234375 97.371094 67.886719 114.289062 67.476562 C 131.671875 67.050781 153.371094 68.753906 175.398438 72.265625 C 197.421875 75.78125 218.578125 80.914062 234.960938 86.726562 C 250.914062 92.382812 261.488281 98.3125 264.730469 103.429688 C 265.5 104.636719 265.808594 105.761719 265.648438 106.777344 C 265.550781 107.390625 265.273438 107.992188 264.820312 108.574219 C 264.789062 108.53125 264.75 108.492188 264.71875 108.453125 C 264.628906 108.347656 264.535156 108.242188 264.441406 108.136719 C 258.691406 101.65625 245.324219 95.929688 234.632812 92.136719 C 234.402344 92.054688 234.164062 91.972656 233.929688 91.890625 C 233.863281 91.867188 233.792969 91.84375 233.726562 91.820312 C 233.371094 91.695312 233.015625 91.574219 232.65625 91.449219 C 232.589844 91.425781 232.527344 91.40625 232.460938 91.382812 C 231.867188 91.179688 231.269531 90.976562 230.664062 90.777344 C 230.46875 90.710938 230.273438 90.644531 230.074219 90.578125 C 229.855469 90.507812 229.636719 90.4375 229.417969 90.363281 C 229.105469 90.261719 228.789062 90.160156 228.472656 90.054688 C 228.320312 90.007812 228.167969 89.957031 228.011719 89.910156 C 227.453125 89.730469 226.890625 89.550781 226.324219 89.371094 C 226.082031 89.296875 225.839844 89.222656 225.597656 89.148438 C 225.25 89.042969 224.902344 88.933594 224.550781 88.828125 C 224.136719 88.699219 223.714844 88.574219 223.292969 88.445312 C 223.109375 88.390625 222.925781 88.335938 222.742188 88.28125 C 221.144531 87.804688 219.515625 87.335938 217.859375 86.875 C 217.84375 86.871094 217.828125 86.867188 217.808594 86.859375 C 209.433594 84.523438 200.367188 82.371094 190.984375 80.496094 C 190.980469 80.496094 190.972656 80.496094 190.96875 80.496094 C 189.222656 80.144531 187.464844 79.808594 185.695312 79.476562 C 185.246094 79.394531 184.796875 79.308594 184.34375 79.226562 C 184.171875 79.195312 184 79.164062 183.828125 79.132812 C 183.628906 79.097656 183.425781 79.058594 183.226562 79.023438 C 182.949219 78.972656 182.671875 78.925781 182.390625 78.875 C 181.933594 78.792969 181.476562 78.710938 181.015625 78.632812 C 180.738281 78.582031 180.460938 78.535156 180.183594 78.488281 C 179.773438 78.417969 179.359375 78.34375 178.941406 78.273438 C 178.445312 78.1875 177.945312 78.105469 177.445312 78.023438 C 177.242188 77.988281 177.039062 77.953125 176.835938 77.921875 C 176.078125 77.796875 175.316406 77.671875 174.554688 77.550781 C 173.230469 77.339844 171.910156 77.136719 170.589844 76.9375 C 170.054688 76.855469 169.519531 76.78125 168.984375 76.703125 C 168.25 76.59375 167.511719 76.488281 166.773438 76.382812 C 165.96875 76.269531 165.167969 76.160156 164.363281 76.050781 C 163.925781 75.992188 163.484375 75.929688 163.046875 75.875 C 162.082031 75.746094 161.121094 75.625 160.160156 75.503906 C 159.90625 75.472656 159.65625 75.441406 159.402344 75.410156 C 158.324219 75.277344 157.246094 75.148438 156.175781 75.023438 C 156.066406 75.011719 155.957031 75 155.84375 74.984375 C 151.132812 74.445312 146.480469 73.992188 141.917969 73.636719 C 128.191406 72.5625 115.707031 72.371094 105.292969 73.058594 C 105.148438 73.070312 105 73.078125 104.851562 73.089844 C 104.714844 73.097656 104.578125 73.109375 104.441406 73.117188 C 95.808594 73.730469 86.820312 75.089844 81 77.914062 C 80.964844 77.933594 80.933594 77.949219 80.898438 77.964844 C 80.625 78.097656 80.359375 78.238281 80.101562 78.378906 C 80.058594 78.402344 80.019531 78.421875 79.980469 78.445312 C 79.699219 78.597656 79.421875 78.757812 79.160156 78.925781 C 79.160156 78.925781 79.160156 78.925781 79.15625 78.925781 C 79.144531 78.933594 79.132812 78.941406 79.117188 78.949219 C 78.871094 78.253906 78.792969 77.597656 78.890625 76.984375 Z M 79.996094 81.855469 C 80.003906 81.847656 80.015625 81.839844 80.027344 81.832031 C 80.214844 81.699219 80.410156 81.566406 80.617188 81.433594 C 80.640625 81.417969 80.664062 81.40625 80.683594 81.390625 C 84.101562 79.25 90.089844 77.613281 98.167969 76.628906 C 100.246094 76.375 102.441406 76.167969 104.742188 76.003906 C 104.875 75.996094 105.011719 75.984375 105.144531 75.976562 C 105.347656 75.964844 105.554688 75.949219 105.761719 75.9375 C 106.097656 75.914062 106.433594 75.894531 106.773438 75.875 C 106.832031 75.871094 106.894531 75.867188 106.953125 75.863281 C 108.886719 75.753906 110.898438 75.675781 112.992188 75.625 C 122.121094 75.398438 132.441406 75.765625 143.375 76.671875 C 143.597656 76.6875 143.816406 76.707031 144.035156 76.726562 C 145.167969 76.820312 146.304688 76.921875 147.449219 77.027344 C 147.59375 77.042969 147.738281 77.054688 147.886719 77.070312 C 149.046875 77.179688 150.21875 77.296875 151.394531 77.417969 C 151.570312 77.4375 151.746094 77.453125 151.921875 77.472656 C 153.011719 77.589844 154.109375 77.710938 155.207031 77.832031 C 155.535156 77.871094 155.863281 77.90625 156.191406 77.945312 C 157.097656 78.050781 158.007812 78.160156 158.917969 78.273438 C 159.503906 78.34375 160.09375 78.417969 160.683594 78.492188 C 161.3125 78.570312 161.9375 78.652344 162.566406 78.738281 C 163.484375 78.859375 164.402344 78.980469 165.324219 79.109375 C 165.621094 79.148438 165.921875 79.191406 166.21875 79.234375 C 167.449219 79.40625 168.683594 79.585938 169.921875 79.769531 C 169.9375 79.773438 169.953125 79.773438 169.96875 79.777344 C 171.339844 79.980469 172.71875 80.195312 174.097656 80.414062 C 174.851562 80.535156 175.605469 80.65625 176.351562 80.78125 C 176.574219 80.816406 176.796875 80.855469 177.023438 80.894531 C 177.5 80.972656 177.976562 81.050781 178.449219 81.132812 C 178.855469 81.203125 179.257812 81.273438 179.660156 81.339844 C 179.953125 81.390625 180.242188 81.441406 180.535156 81.492188 C 180.964844 81.566406 181.390625 81.644531 181.820312 81.71875 C 182.140625 81.777344 182.460938 81.835938 182.777344 81.890625 C 183.101562 81.949219 183.425781 82.007812 183.75 82.070312 C 184.257812 82.160156 184.765625 82.257812 185.277344 82.351562 C 186.945312 82.664062 188.609375 82.984375 190.257812 83.3125 C 190.339844 83.328125 190.417969 83.34375 190.5 83.363281 C 199.746094 85.210938 208.640625 87.320312 216.875 89.613281 C 216.972656 89.640625 217.074219 89.667969 217.171875 89.695312 C 218.71875 90.128906 220.238281 90.566406 221.734375 91.011719 C 221.996094 91.089844 222.257812 91.164062 222.515625 91.242188 C 222.886719 91.355469 223.257812 91.46875 223.628906 91.582031 C 224.050781 91.710938 224.472656 91.839844 224.886719 91.96875 C 225.140625 92.046875 225.394531 92.125 225.644531 92.203125 C 225.65625 92.207031 225.667969 92.210938 225.679688 92.214844 C 226.148438 92.359375 226.613281 92.507812 227.070312 92.65625 C 227.25 92.710938 227.425781 92.769531 227.601562 92.824219 C 227.898438 92.921875 228.195312 93.015625 228.488281 93.113281 C 228.707031 93.183594 228.925781 93.253906 229.140625 93.328125 C 229.398438 93.410156 229.652344 93.496094 229.90625 93.582031 C 230.347656 93.730469 230.785156 93.878906 231.21875 94.027344 C 231.402344 94.085938 231.582031 94.148438 231.761719 94.210938 C 232.035156 94.304688 232.308594 94.398438 232.578125 94.492188 C 232.765625 94.558594 232.953125 94.625 233.140625 94.691406 C 233.398438 94.78125 233.65625 94.871094 233.914062 94.960938 C 234.117188 95.035156 234.316406 95.105469 234.515625 95.179688 C 234.910156 95.320312 235.304688 95.464844 235.691406 95.605469 C 235.917969 95.6875 236.140625 95.769531 236.363281 95.855469 C 236.59375 95.9375 236.820312 96.023438 237.050781 96.109375 C 237.234375 96.179688 237.421875 96.25 237.605469 96.320312 C 237.851562 96.414062 238.097656 96.507812 238.339844 96.597656 C 238.476562 96.652344 238.613281 96.703125 238.75 96.757812 C 246.203125 99.644531 252.300781 102.601562 256.714844 105.5 C 259.273438 107.175781 261.207031 108.792969 262.503906 110.324219 C 262.546875 110.371094 262.585938 110.421875 262.625 110.46875 C 262.761719 110.632812 262.886719 110.792969 263.003906 110.953125 C 263.03125 110.992188 263.058594 111.027344 263.085938 111.0625 L 224.679688 256.078125 C 224.167969 255.46875 223.539062 254.855469 222.804688 254.234375 C 222.707031 254.152344 222.605469 254.070312 222.507812 253.988281 C 222.417969 253.914062 222.328125 253.839844 222.234375 253.765625 C 218.617188 250.894531 212.679688 247.929688 204.441406 244.886719 C 204.367188 244.859375 204.289062 244.832031 204.210938 244.804688 C 204.183594 244.792969 204.15625 244.78125 204.125 244.773438 C 203.640625 244.59375 203.148438 244.417969 202.652344 244.242188 C 202.546875 244.203125 202.441406 244.164062 202.335938 244.128906 C 201.882812 243.96875 201.421875 243.808594 200.957031 243.648438 C 200.871094 243.617188 200.78125 243.585938 200.691406 243.554688 C 189.011719 239.554688 174.5 235.921875 158.792969 233.058594 C 158.617188 233.027344 158.4375 232.996094 158.261719 232.964844 C 157.429688 232.8125 156.597656 232.664062 155.761719 232.519531 C 155.539062 232.480469 155.3125 232.441406 155.085938 232.402344 C 154.5 232.300781 153.917969 232.203125 153.332031 232.105469 C 153.128906 232.070312 152.921875 232.035156 152.714844 232 C 152.566406 231.972656 152.414062 231.949219 152.265625 231.925781 C 151.507812 231.800781 150.75 231.675781 149.988281 231.554688 C 147.765625 231.199219 145.558594 230.867188 143.363281 230.554688 C 143.34375 230.554688 143.324219 230.550781 143.304688 230.546875 C 129.945312 228.644531 117.160156 227.515625 105.953125 227.234375 C 105.898438 227.234375 105.84375 227.234375 105.789062 227.230469 C 105.394531 227.222656 105 227.214844 104.613281 227.207031 C 103.214844 227.179688 101.851562 227.164062 100.515625 227.164062 C 96.65625 227.164062 93.066406 227.28125 89.789062 227.507812 C 89.695312 227.515625 89.605469 227.523438 89.511719 227.527344 C 89.238281 227.550781 88.964844 227.570312 88.695312 227.589844 C 88.367188 227.617188 88.039062 227.644531 87.71875 227.671875 C 87.703125 227.671875 87.6875 227.671875 87.671875 227.675781 C 82.410156 228.132812 78.203125 228.894531 75.0625 229.960938 C 74.917969 230.011719 74.777344 230.058594 74.636719 230.109375 C 74.59375 230.125 74.550781 230.140625 74.511719 230.152344 C 73.285156 230.59375 72.242188 231.085938 71.375 231.625 Z M 200.414062 266.542969 C 185.378906 267.101562 165.730469 265.597656 145.082031 262.304688 C 124.433594 259.007812 105.292969 254.324219 91.175781 249.113281 C 75.773438 243.425781 70.707031 238.71875 71.101562 236.207031 C 71.101562 236.207031 71.105469 236.203125 71.105469 236.203125 C 71.105469 236.199219 71.105469 236.195312 71.105469 236.191406 C 71.117188 236.132812 71.132812 236.074219 71.148438 236.011719 C 71.429688 235.054688 72.933594 233.066406 80.253906 231.609375 C 81.742188 231.316406 83.375 231.0625 85.132812 230.851562 C 85.238281 230.839844 85.34375 230.824219 85.449219 230.8125 C 85.660156 230.789062 85.871094 230.765625 86.085938 230.742188 C 88.460938 230.488281 91.152344 230.296875 94.199219 230.183594 C 96.261719 230.105469 98.40625 230.066406 100.632812 230.066406 C 103.113281 230.066406 105.695312 230.117188 108.355469 230.210938 C 108.765625 230.226562 109.179688 230.242188 109.597656 230.257812 C 109.984375 230.273438 110.375 230.289062 110.765625 230.308594 C 114.871094 230.496094 119.191406 230.785156 123.695312 231.1875 C 131.992188 231.921875 140.683594 233.007812 149.53125 234.417969 C 150.273438 234.539062 151.011719 234.660156 151.746094 234.777344 C 152.140625 234.84375 152.535156 234.910156 152.929688 234.976562 C 153.4375 235.0625 153.941406 235.148438 154.445312 235.234375 C 154.730469 235.285156 155.011719 235.332031 155.296875 235.382812 C 156.101562 235.523438 156.902344 235.664062 157.703125 235.808594 C 157.902344 235.847656 158.101562 235.882812 158.300781 235.917969 C 171.484375 238.328125 183.882812 241.292969 194.460938 244.574219 C 196.277344 245.140625 198.027344 245.710938 199.707031 246.285156 C 199.808594 246.320312 199.90625 246.351562 200.007812 246.386719 C 200.421875 246.53125 200.828125 246.671875 201.234375 246.816406 C 201.398438 246.871094 201.5625 246.929688 201.722656 246.988281 C 202.078125 247.113281 202.421875 247.238281 202.769531 247.363281 C 202.9375 247.425781 203.101562 247.484375 203.269531 247.546875 C 203.628906 247.679688 203.984375 247.8125 204.335938 247.945312 C 204.476562 247.996094 204.625 248.050781 204.765625 248.105469 C 209.921875 250.066406 214.191406 252.046875 217.367188 253.957031 C 221.015625 256.152344 223.1875 258.253906 223.496094 259.859375 C 223.496094 259.859375 223.496094 259.863281 223.496094 259.863281 C 223.515625 259.964844 223.523438 260.0625 223.527344 260.164062 C 223.53125 260.179688 223.53125 260.199219 223.53125 260.21875 C 223.535156 260.320312 223.527344 260.417969 223.511719 260.515625 C 223.511719 260.515625 223.511719 260.519531 223.511719 260.519531 C 223.105469 263.03125 216.828125 265.929688 200.414062 266.542969 Z M 200.414062 266.542969 " fill-opacity="1" fill-rule="nonzero"/><path fill="#f8be52" d="M 199.179688 166.554688 C 194.410156 169.652344 186.625 170.910156 177.832031 170 C 168.296875 169.015625 159.84375 165.789062 155.226562 161.375 L 155.183594 161.332031 C 148.847656 155.148438 145.257812 144.921875 145.023438 134.492188 L 145.027344 134.464844 C 145.074219 134.011719 145.066406 133.582031 145.007812 133.171875 L 145.011719 133.152344 C 144.253906 127.269531 134.144531 125.976562 131.507812 131.023438 C 131.199219 131.605469 130.996094 132.277344 130.917969 133.035156 C 128.007812 142.289062 122.359375 150.53125 115.5 154.449219 L 115.449219 154.476562 C 109.691406 157.683594 102.101562 157.46875 98.085938 157.050781 C 98.082031 157.050781 98.082031 157.050781 98.082031 157.050781 C 88.75 156.082031 80.890625 152.582031 77.0625 147.683594 C 71.085938 140.035156 67.472656 125.605469 72.855469 110.59375 C 74.769531 105.265625 78.726562 101.050781 83.710938 99.019531 C 90.125 96.414062 98.464844 95.398438 106.589844 96.238281 C 114.066406 97.011719 120.738281 99.292969 125.371094 102.664062 C 128.996094 105.296875 142.878906 111.566406 157.648438 106.019531 C 162.433594 104.222656 171.808594 102.984375 178.378906 103.664062 C 189.316406 104.796875 200.3125 108.820312 207.800781 114.445312 C 212.601562 118.046875 215.578125 123.585938 215.964844 129.644531 C 217.078125 146.886719 208.335938 160.613281 199.179688 166.554688 Z M 199.179688 166.554688 " fill-opacity="1" fill-rule="nonzero"/><path fill="#302f2f" d="M 183.277344 171.738281 C 181.464844 171.738281 179.597656 171.640625 177.679688 171.445312 C 167.835938 170.425781 159.066406 167.054688 154.222656 162.421875 L 154.179688 162.378906 C 147.785156 156.140625 143.824219 145.730469 143.570312 134.523438 C 143.570312 134.460938 143.574219 134.394531 143.578125 134.332031 C 143.617188 133.984375 143.613281 133.671875 143.570312 133.367188 C 143.566406 133.328125 143.5625 133.292969 143.558594 133.253906 C 143.21875 131 141 129.820312 139.019531 129.464844 C 136.789062 129.066406 133.886719 129.59375 132.792969 131.691406 C 132.5625 132.132812 132.417969 132.628906 132.359375 133.183594 C 132.347656 133.277344 132.328125 133.375 132.300781 133.46875 C 129.167969 143.433594 123.152344 151.75 116.214844 155.707031 C 116.203125 155.714844 116.195312 155.722656 116.183594 155.726562 L 116.132812 155.753906 C 110.054688 159.140625 102.136719 158.929688 97.949219 158.496094 C 97.941406 158.496094 97.933594 158.496094 97.929688 158.496094 C 88.210938 157.484375 79.984375 153.777344 75.917969 148.578125 C 69.699219 140.617188 65.917969 125.636719 71.488281 110.105469 C 73.542969 104.386719 77.800781 99.859375 83.164062 97.679688 C 89.792969 94.984375 98.386719 93.933594 106.738281 94.796875 C 114.464844 95.597656 121.382812 97.972656 126.222656 101.488281 C 129.054688 103.546875 142.605469 110.117188 157.136719 104.660156 C 162.496094 102.648438 172.089844 101.554688 178.527344 102.21875 C 189.71875 103.378906 200.988281 107.515625 208.671875 113.28125 C 213.8125 117.140625 217 123.070312 217.410156 129.554688 C 218.5625 147.382812 209.480469 161.597656 199.96875 167.773438 C 195.984375 170.359375 190.078125 171.738281 183.277344 171.738281 Z M 146.476562 134.546875 C 146.726562 144.976562 150.359375 154.597656 156.195312 160.296875 L 156.230469 160.328125 C 160.625 164.527344 168.753906 167.605469 177.980469 168.558594 C 186.453125 169.4375 193.890625 168.261719 198.390625 165.339844 C 207.191406 159.625 215.59375 146.398438 214.519531 129.738281 C 214.160156 124.105469 211.394531 118.953125 206.929688 115.601562 C 199.648438 110.136719 188.921875 106.210938 178.230469 105.105469 C 171.652344 104.425781 162.542969 105.730469 158.160156 107.378906 C 142.679688 113.1875 128.328125 106.601562 124.519531 103.835938 C 120.085938 100.617188 113.667969 98.429688 106.441406 97.683594 C 98.546875 96.867188 90.460938 97.84375 84.257812 100.367188 C 79.65625 102.238281 75.996094 106.144531 74.222656 111.085938 C 69.023438 125.578125 72.476562 139.460938 78.207031 146.792969 C 81.792969 151.378906 89.273438 154.675781 98.214844 155.609375 C 98.222656 155.609375 98.230469 155.609375 98.234375 155.609375 C 102.078125 156.007812 109.332031 156.226562 114.746094 153.210938 L 114.796875 153.183594 C 121.078125 149.589844 126.566406 141.949219 129.496094 132.730469 C 129.601562 131.867188 129.847656 131.066406 130.230469 130.347656 C 132.007812 126.941406 136.183594 126.015625 139.53125 126.613281 C 143.328125 127.292969 146.042969 129.785156 146.453125 132.96875 C 146.457031 133.007812 146.460938 133.050781 146.460938 133.089844 C 146.515625 133.558594 146.519531 134.050781 146.476562 134.546875 Z M 146.476562 134.546875 " fill-opacity="1" fill-rule="nonzero"/><path fill="#302f2f" d="M 208.648438 130.714844 C 208.363281 126.277344 206.183594 122.21875 202.671875 119.582031 C 192.476562 111.925781 174.804688 108.324219 164.085938 111.710938 C 159.9375 113.023438 156.5625 116.136719 154.832031 120.257812 C 149.789062 132.246094 152.234375 148.394531 160.296875 156.265625 C 164.941406 160.703125 174.441406 163.28125 182.835938 163.28125 C 187.753906 163.28125 192.292969 162.394531 195.246094 160.476562 C 202.5625 155.722656 209.542969 144.679688 208.648438 130.714844 Z M 208.648438 130.714844 " fill-opacity="1" fill-rule="nonzero"/><path fill="#302f2f" d="M 126.28125 117.878906 C 125.929688 113.734375 123.945312 110.0625 120.835938 107.804688 C 112.839844 101.992188 97.246094 100.679688 86.785156 104.929688 C 83.171875 106.398438 80.296875 109.480469 78.894531 113.386719 C 74.503906 125.621094 77.367188 137.277344 82.15625 143.40625 C 85.703125 147.945312 94.519531 150.757812 102.34375 150.757812 C 106.148438 150.757812 109.722656 150.09375 112.335938 148.636719 C 121.035156 143.667969 127.289062 129.871094 126.28125 117.878906 Z M 126.28125 117.878906 " fill-opacity="1" fill-rule="nonzero"/><path fill="#ffffff" d="M 194.253906 309.773438 C 194.09375 306.289062 192.128906 303.136719 189.089844 301.425781 C 184.332031 298.746094 179.230469 296.503906 174.667969 295.128906 C 173.644531 293.359375 172.007812 291.957031 169.761719 290.980469 C 163.472656 288.25 159.628906 293.441406 155.414062 301.152344 C 152.234375 306.96875 152.113281 311.875 153.710938 314.96875 L 145.261719 328.90625 C 123.390625 326.140625 116.074219 360.28125 138.914062 368.59375 C 174.441406 381.527344 195.703125 341.503906 194.253906 309.773438 Z M 194.253906 309.773438 " fill-opacity="1" fill-rule="nonzero"/><path fill="#302f2f" d="M 195.699219 309.707031 C 195.519531 305.707031 193.3125 302.140625 189.800781 300.160156 C 185 297.457031 180.046875 295.285156 175.613281 293.902344 C 174.421875 292.089844 172.636719 290.648438 170.335938 289.652344 C 162.664062 286.320312 158.128906 293.164062 154.144531 300.453125 C 150.773438 306.621094 150.738281 311.5625 152.085938 314.859375 L 144.496094 327.371094 C 133.316406 326.429688 126.246094 334.457031 124.171875 343.039062 C 121.839844 352.660156 125.308594 365.191406 138.417969 369.960938 C 143.125 371.675781 147.75 372.527344 152.21875 372.527344 C 159.539062 372.527344 166.4375 370.238281 172.609375 365.699219 C 187.222656 354.964844 196.714844 331.941406 195.699219 309.707031 Z M 170.898438 363.367188 C 161.769531 370.074219 150.882812 371.410156 139.40625 367.234375 C 127.972656 363.070312 124.957031 352.128906 126.988281 343.71875 C 128.679688 336.746094 134.160156 330.195312 142.804688 330.195312 C 143.507812 330.195312 144.230469 330.242188 144.972656 330.335938 C 144.972656 330.335938 144.976562 330.335938 144.980469 330.335938 C 145.839844 330.601562 151.519531 332.585938 152.878906 339.015625 C 153.023438 339.699219 153.625 340.164062 154.296875 340.164062 C 154.394531 340.164062 154.496094 340.15625 154.597656 340.132812 C 155.382812 339.96875 155.882812 339.199219 155.71875 338.414062 C 154.40625 332.230469 149.925781 329.34375 147.402344 328.175781 L 153.8125 317.59375 C 153.929688 317.71875 154.050781 317.835938 154.171875 317.949219 C 155.625 319.28125 157.421875 319.949219 159.359375 319.949219 C 161.28125 319.949219 163.335938 319.292969 165.328125 317.980469 C 165.996094 317.539062 166.179688 316.640625 165.738281 315.972656 C 165.296875 315.304688 164.398438 315.121094 163.730469 315.5625 C 160.863281 317.457031 158.023438 317.550781 156.132812 315.816406 C 155.871094 315.570312 155.625 315.289062 155.40625 314.96875 C 154.773438 314.058594 154.347656 312.859375 154.210938 311.410156 C 153.976562 308.878906 154.632812 305.601562 156.6875 301.84375 C 161.691406 292.695312 164.726562 290.375 169.183594 292.3125 C 169.441406 292.421875 169.6875 292.539062 169.925781 292.664062 C 171.675781 293.570312 172.933594 294.800781 173.671875 296.347656 C 173.894531 296.796875 174.070312 297.273438 174.199219 297.78125 C 174.855469 300.339844 174.363281 303.613281 172.777344 307.269531 C 172.457031 308.003906 172.796875 308.859375 173.53125 309.175781 C 174.269531 309.496094 175.121094 309.160156 175.4375 308.421875 C 177.234375 304.289062 177.792969 300.601562 177.101562 297.460938 C 180.703125 298.761719 184.578125 300.546875 188.378906 302.6875 C 191.015625 304.167969 192.667969 306.84375 192.804688 309.839844 C 193.78125 331.160156 184.769531 353.171875 170.898438 363.367188 Z M 170.898438 363.367188 " fill-opacity="1" fill-rule="nonzero"/><path fill="#302f2f" d="M 161.992188 308.558594 C 161.199219 308.558594 160.394531 308.382812 159.632812 308.015625 C 138.027344 297.59375 129.492188 281.601562 126.136719 270.019531 C 122.5 257.472656 124.03125 247.34375 124.097656 246.917969 C 124.566406 243.949219 127.347656 241.921875 130.316406 242.390625 C 133.277344 242.855469 135.300781 245.628906 134.84375 248.589844 C 134.816406 248.769531 133.640625 257.179688 136.707031 267.421875 C 140.765625 280.964844 150.070312 291.328125 164.359375 298.21875 C 167.0625 299.523438 168.199219 302.773438 166.894531 305.480469 C 165.957031 307.425781 164.015625 308.558594 161.992188 308.558594 Z M 161.992188 308.558594 " fill-opacity="1" fill-rule="nonzero"/><path fill="#302f2f" d="M 115.039062 320.390625 C 113.207031 320.390625 111.421875 319.464844 110.394531 317.789062 C 108.832031 315.230469 109.632812 311.894531 112.183594 310.324219 C 112.34375 310.21875 118.878906 306.0625 126.375 296.691406 C 133.339844 287.988281 142.597656 272.851562 147.148438 250.183594 C 147.738281 247.238281 150.605469 245.332031 153.550781 245.921875 C 156.496094 246.511719 158.402344 249.378906 157.8125 252.324219 C 148.117188 300.605469 119.101562 318.839844 117.871094 319.589844 C 116.988281 320.132812 116.007812 320.390625 115.039062 320.390625 Z M 115.039062 320.390625 " fill-opacity="1" fill-rule="nonzero"/><path fill="#ffffff" d="M 116.769531 307.65625 C 111.222656 302.847656 104.671875 306.554688 104.671875 306.554688 C 100.46875 296.746094 101.496094 287.601562 89.679688 282.253906 C 77.953125 276.945312 65.964844 284.585938 61.230469 288.226562 C 60.496094 288.71875 59.796875 289.300781 59.136719 289.964844 C 59.128906 289.972656 59.125 289.972656 59.125 289.972656 C 53.476562 295.679688 50.933594 307.542969 58.304688 322.492188 C 71.328125 348.902344 95.855469 362.054688 113.308594 348.304688 C 123.628906 341.210938 120.140625 328.207031 120.140625 328.207031 C 126.605469 324.40625 124.179688 314.078125 116.769531 307.65625 Z M 116.769531 307.65625 " fill-opacity="1" fill-rule="nonzero"/><path fill="#302f2f" d="M 117.71875 306.558594 C 113.09375 302.546875 107.9375 303.6875 105.453125 304.621094 C 104.660156 302.5625 104.066406 300.523438 103.488281 298.539062 C 101.472656 291.644531 99.566406 285.132812 90.277344 280.933594 C 77.65625 275.21875 65.054688 283.382812 60.199219 287.179688 C 60.1875 287.1875 60.179688 287.195312 60.167969 287.199219 C 59.53125 287.652344 58.917969 288.15625 58.34375 288.722656 C 58.316406 288.742188 58.292969 288.769531 58.269531 288.789062 C 58.207031 288.851562 58.160156 288.894531 58.132812 288.917969 C 58.082031 288.964844 58.035156 289.015625 57.992188 289.074219 C 56.394531 290.714844 55.066406 292.769531 54.105469 295.125 C 52.261719 299.648438 50.1875 309.304688 57.003906 323.132812 C 65.222656 339.800781 78.035156 351.542969 91.273438 354.542969 C 93.453125 355.035156 95.605469 355.28125 97.714844 355.28125 C 103.683594 355.28125 109.292969 353.3125 114.195312 349.453125 C 114.199219 349.453125 114.203125 349.449219 114.207031 349.445312 C 123.402344 343.066406 122.351562 332.25 121.757812 328.871094 C 123.8125 327.332031 125.027344 325.082031 125.28125 322.300781 C 125.757812 317.132812 122.789062 310.949219 117.71875 306.558594 Z M 56.792969 296.214844 C 57.414062 294.691406 58.210938 293.316406 59.144531 292.144531 C 59.414062 291.808594 59.6875 291.488281 59.976562 291.183594 C 60.648438 290.480469 61.371094 289.871094 62.136719 289.371094 C 62.136719 289.363281 62.140625 289.363281 62.144531 289.359375 C 62.855469 288.890625 63.601562 288.519531 64.375 288.246094 C 66.972656 287.332031 69.3125 286.917969 71.429688 286.917969 C 76.828125 286.917969 80.777344 289.621094 83.921875 293.582031 C 73.125 295.921875 60.160156 303.1875 55.222656 306.117188 C 55.039062 301.640625 55.9375 298.308594 56.792969 296.214844 Z M 60.175781 322.980469 C 64.011719 320.449219 77.773438 311.714844 91.386719 307.304688 C 91.597656 307.796875 91.8125 308.289062 92.023438 308.773438 C 93.023438 311.09375 93.976562 313.300781 94.960938 315.285156 C 84.109375 320.945312 69.699219 329.484375 65.582031 331.941406 C 63.632812 329.175781 61.816406 326.179688 60.175781 322.980469 Z M 58.894531 320.347656 C 57.015625 316.21875 55.992188 312.535156 55.523438 309.324219 C 59.101562 307.15625 74.332031 298.238281 85.769531 296.171875 C 87.433594 298.761719 88.871094 301.675781 90.207031 304.636719 C 76.550781 309.109375 63.203125 317.507812 58.894531 320.347656 Z M 67.316406 334.285156 C 71.710938 331.664062 85.746094 323.359375 96.324219 317.84375 C 97.792969 320.363281 99.386719 322.316406 101.335938 323.363281 C 102.25 323.851562 103.15625 324.449219 104.042969 325.128906 C 93.90625 333.316406 78.765625 340.867188 75.109375 342.640625 C 72.363281 340.238281 69.746094 337.433594 67.316406 334.285156 Z M 77.578125 344.664062 C 82.792969 342.097656 96.667969 334.941406 106.28125 327.046875 C 108.539062 329.210938 110.546875 331.832031 112 334.503906 C 103.183594 343.75 89.953125 349.214844 87.265625 350.261719 C 83.949219 348.953125 80.695312 347.058594 77.578125 344.664062 Z M 91.914062 351.710938 C 91.792969 351.683594 91.671875 351.648438 91.550781 351.621094 C 96.710938 349.328125 106.101562 344.527344 113.316406 337.308594 C 113.894531 338.785156 114.265625 340.234375 114.382812 341.578125 C 114.550781 343.511719 114.191406 345.078125 113.3125 346.246094 C 113.054688 346.585938 112.753906 346.890625 112.410156 347.164062 C 111.976562 347.503906 111.539062 347.824219 111.097656 348.128906 C 105.453125 352.042969 98.851562 353.285156 91.914062 351.710938 Z M 122.394531 322.035156 C 122.242188 323.703125 121.632812 325.050781 120.585938 326.066406 L 118.351562 322.167969 C 117.953125 321.476562 117.070312 321.234375 116.371094 321.632812 C 115.679688 322.03125 115.4375 322.917969 115.835938 323.613281 L 118.78125 328.746094 C 118.78125 328.75 118.78125 328.75 118.78125 328.753906 C 119.058594 329.910156 120.332031 336.167969 117.304688 341.789062 C 117.300781 341.636719 117.289062 341.480469 117.273438 341.320312 C 116.632812 333.980469 110.097656 324.777344 102.707031 320.804688 C 99.675781 319.179688 97.25 313.566406 94.683594 307.625 C 92.714844 303.066406 90.550781 298.074219 87.714844 293.863281 C 87.695312 293.824219 87.667969 293.789062 87.640625 293.753906 C 86.601562 292.21875 85.46875 290.785156 84.222656 289.523438 C 80.554688 285.816406 76.375 283.972656 71.566406 283.972656 C 71.515625 283.972656 71.46875 283.972656 71.417969 283.976562 C 76.578125 281.867188 82.910156 280.777344 89.082031 283.574219 C 97.15625 287.226562 98.71875 292.578125 100.703125 299.351562 C 101.429688 301.839844 102.175781 304.410156 103.316406 307.074219 C 103.320312 307.078125 103.324219 307.09375 103.328125 307.101562 C 103.476562 307.503906 104.699219 310.78125 105.378906 312.53125 C 105.605469 313.101562 106.152344 313.453125 106.730469 313.453125 C 106.90625 313.453125 107.085938 313.421875 107.257812 313.355469 C 108.003906 313.0625 108.371094 312.222656 108.082031 311.476562 C 107.636719 310.335938 106.957031 308.527344 106.503906 307.316406 C 106.503906 307.316406 106.503906 307.316406 106.507812 307.316406 C 108.398438 306.613281 112.34375 305.734375 115.820312 308.746094 C 120.136719 312.492188 122.78125 317.832031 122.394531 322.035156 Z M 122.394531 322.035156 " fill-opacity="1" fill-rule="nonzero"/><path fill="#302f2f" d="M 158.382812 187.757812 C 151.101562 179.945312 156.746094 170.964844 157 170.570312 C 157.433594 169.898438 157.246094 169.003906 156.574219 168.566406 C 155.902344 168.128906 155.003906 168.316406 154.566406 168.988281 C 154.519531 169.058594 151.625 173.609375 151.824219 179.363281 C 141.609375 183.140625 132.828125 183.484375 126.402344 180.347656 C 121.527344 177.964844 119.652344 174.371094 119.632812 174.332031 C 119.277344 173.621094 118.40625 173.332031 117.691406 173.6875 C 116.976562 174.042969 116.683594 174.914062 117.039062 175.632812 C 117.128906 175.808594 119.273438 180.019531 124.929688 182.855469 C 127.617188 184.203125 131.414062 185.367188 136.507812 185.367188 C 140.789062 185.367188 145.984375 184.542969 152.203125 182.308594 C 152.765625 184.75 153.984375 187.296875 156.257812 189.734375 C 156.542969 190.042969 156.929688 190.199219 157.320312 190.199219 C 157.671875 190.199219 158.027344 190.070312 158.308594 189.808594 C 158.894531 189.261719 158.929688 188.34375 158.382812 187.757812 Z M 158.382812 187.757812 " fill-opacity="1" fill-rule="nonzero"/><path fill="#f8be52" d="M 113.503906 179.992188 C 113.046875 180.375 112.84375 181.039062 113.003906 181.613281 C 113.136719 182.082031 113.480469 182.464844 113.820312 182.808594 C 114.234375 183.230469 114.6875 183.640625 115.25 183.824219 C 115.808594 184.007812 116.503906 183.898438 116.851562 183.421875 C 117.136719 183.03125 117.128906 182.507812 117.109375 182.027344 C 117.085938 181.433594 117.046875 180.796875 116.6875 180.324219 C 116.273438 179.785156 115.566406 179.484375 114.886719 179.460938 C 114.519531 179.453125 113.960938 179.605469 113.503906 179.992188 Z M 113.503906 179.992188 " fill-opacity="1" fill-rule="nonzero"/><path fill="#302f2f" d="M 117.503906 180.785156 C 117.339844 180.207031 116.976562 179.742188 116.480469 179.410156 C 116.007812 179.09375 115.386719 178.90625 114.816406 178.921875 C 114.183594 178.933594 113.601562 179.210938 113.117188 179.605469 C 113.089844 179.632812 113.0625 179.660156 113.042969 179.691406 C 112.664062 180.066406 112.441406 180.574219 112.410156 181.109375 C 112.375 181.664062 112.597656 182.183594 112.925781 182.617188 C 113.578125 183.472656 114.519531 184.355469 115.640625 184.445312 C 116.167969 184.488281 116.730469 184.3125 117.117188 183.941406 C 117.539062 183.535156 117.65625 182.941406 117.660156 182.375 C 117.667969 181.851562 117.644531 181.292969 117.503906 180.785156 Z M 116.488281 182.972656 C 116.425781 183.121094 116.339844 183.195312 116.222656 183.261719 C 116.144531 183.308594 115.945312 183.359375 115.855469 183.363281 C 115.53125 183.375 115.238281 183.265625 114.925781 183.058594 C 114.605469 182.84375 114.324219 182.558594 114.058594 182.277344 C 113.914062 182.121094 113.777344 181.964844 113.667969 181.78125 C 113.574219 181.625 113.503906 181.433594 113.496094 181.300781 C 113.46875 180.933594 113.605469 180.625 113.886719 180.375 C 114.007812 180.277344 114.191406 180.175781 114.3125 180.125 C 114.390625 180.09375 114.472656 180.070312 114.550781 180.046875 C 114.589844 180.039062 114.628906 180.03125 114.667969 180.023438 C 114.6875 180.015625 114.699219 180.015625 114.707031 180.011719 C 114.714844 180.011719 114.726562 180.011719 114.742188 180.011719 C 115.0625 180 115.386719 180.054688 115.671875 180.199219 C 115.984375 180.355469 116.25 180.566406 116.394531 180.890625 C 116.53125 181.199219 116.546875 181.574219 116.5625 181.925781 C 116.578125 182.273438 116.613281 182.679688 116.488281 182.972656 Z M 116.488281 182.972656 " fill-opacity="1" fill-rule="nonzero"/><path fill="#f8be52" d="M 163.34375 177.628906 C 162.882812 177.617188 162.445312 177.894531 162.28125 178.304688 C 162.144531 178.640625 162.179688 179.03125 162.230469 179.402344 C 162.289062 179.851562 162.378906 180.316406 162.640625 180.703125 C 162.902344 181.089844 163.386719 181.375 163.824219 181.277344 C 164.179688 181.199219 164.417969 180.894531 164.632812 180.609375 C 164.894531 180.257812 165.164062 179.875 165.160156 179.421875 C 165.15625 178.902344 164.859375 178.375 164.449219 178.019531 C 164.222656 177.828125 163.804688 177.636719 163.34375 177.628906 Z M 163.34375 177.628906 " fill-opacity="1" fill-rule="nonzero"/><path fill="#302f2f" d="M 165.59375 178.78125 C 165.441406 178.332031 165.164062 177.914062 164.796875 177.609375 C 164.417969 177.296875 163.945312 177.132812 163.457031 177.097656 C 163.417969 177.089844 163.382812 177.082031 163.34375 177.082031 C 163.304688 177.082031 163.265625 177.085938 163.226562 177.09375 C 162.828125 177.121094 162.453125 177.273438 162.15625 177.546875 C 161.804688 177.875 161.652344 178.339844 161.640625 178.808594 C 161.628906 179.261719 161.707031 179.753906 161.828125 180.1875 C 161.945312 180.621094 162.152344 181.050781 162.488281 181.351562 C 162.8125 181.644531 163.25 181.863281 163.695312 181.839844 C 164.152344 181.8125 164.539062 181.574219 164.832031 181.226562 C 165.105469 180.902344 165.375 180.546875 165.542969 180.152344 C 165.730469 179.714844 165.75 179.234375 165.59375 178.78125 Z M 164.613281 179.328125 C 164.613281 179.308594 164.613281 179.296875 164.613281 179.328125 Z M 162.84375 178.40625 C 162.8125 178.453125 162.828125 178.425781 162.84375 178.40625 Z M 163.460938 180.714844 C 163.484375 180.722656 163.511719 180.742188 163.460938 180.714844 Z M 164.609375 179.527344 C 164.554688 179.792969 164.398438 180.011719 164.214844 180.265625 C 164.179688 180.308594 164.144531 180.359375 164.109375 180.402344 C 164.101562 180.414062 164.082031 180.433594 164.082031 180.441406 C 164.054688 180.46875 164.035156 180.496094 164.007812 180.523438 C 163.96875 180.570312 163.921875 180.613281 163.875 180.65625 C 163.867188 180.664062 163.867188 180.664062 163.867188 180.667969 C 163.863281 180.667969 163.863281 180.667969 163.859375 180.667969 C 163.832031 180.6875 163.800781 180.707031 163.773438 180.722656 C 163.773438 180.714844 163.710938 180.738281 163.691406 180.75 C 163.671875 180.75 163.652344 180.753906 163.644531 180.753906 C 163.636719 180.753906 163.601562 180.75 163.582031 180.75 C 163.570312 180.746094 163.558594 180.742188 163.558594 180.742188 C 163.523438 180.734375 163.492188 180.722656 163.457031 180.710938 C 163.453125 180.710938 163.449219 180.707031 163.441406 180.703125 C 163.402344 180.679688 163.359375 180.660156 163.324219 180.632812 C 163.304688 180.621094 163.289062 180.613281 163.273438 180.601562 C 163.265625 180.59375 163.242188 180.570312 163.238281 180.566406 C 163.214844 180.539062 163.1875 180.511719 163.160156 180.488281 C 163.15625 180.484375 163.132812 180.457031 163.125 180.449219 C 163.042969 180.339844 162.972656 180.199219 162.941406 180.109375 C 162.890625 179.972656 162.855469 179.832031 162.824219 179.6875 C 162.792969 179.542969 162.765625 179.367188 162.753906 179.269531 C 162.734375 179.085938 162.714844 178.898438 162.734375 178.710938 C 162.734375 178.699219 162.734375 178.695312 162.734375 178.6875 C 162.734375 178.683594 162.738281 178.675781 162.742188 178.664062 C 162.75 178.613281 162.765625 178.5625 162.78125 178.511719 C 162.761719 178.566406 162.828125 178.429688 162.84375 178.402344 C 162.847656 178.398438 162.851562 178.394531 162.851562 178.390625 C 162.882812 178.359375 162.914062 178.332031 162.945312 178.300781 C 162.949219 178.296875 162.945312 178.296875 162.949219 178.296875 C 162.953125 178.292969 162.949219 178.296875 162.953125 178.292969 C 162.992188 178.269531 163.027344 178.246094 163.066406 178.226562 C 163.070312 178.222656 163.082031 178.21875 163.097656 178.214844 C 163.121094 178.203125 163.148438 178.195312 163.175781 178.1875 C 163.199219 178.183594 163.222656 178.179688 163.246094 178.171875 C 163.253906 178.175781 163.328125 178.171875 163.34375 178.171875 C 163.484375 178.175781 163.570312 178.191406 163.730469 178.242188 C 163.753906 178.25 163.898438 178.3125 163.839844 178.28125 C 163.910156 178.316406 163.980469 178.351562 164.046875 178.394531 C 164.050781 178.398438 164.066406 178.414062 164.082031 178.421875 C 164.09375 178.433594 164.105469 178.445312 164.105469 178.445312 C 164.164062 178.5 164.21875 178.554688 164.273438 178.613281 C 164.292969 178.636719 164.316406 178.660156 164.335938 178.6875 C 164.335938 178.691406 164.34375 178.699219 164.351562 178.710938 C 164.402344 178.78125 164.445312 178.855469 164.488281 178.933594 C 164.503906 178.964844 164.519531 178.996094 164.53125 179.027344 C 164.535156 179.03125 164.535156 179.035156 164.539062 179.042969 C 164.5625 179.105469 164.578125 179.171875 164.59375 179.234375 C 164.605469 179.269531 164.609375 179.304688 164.617188 179.339844 C 164.617188 179.347656 164.617188 179.351562 164.617188 179.367188 C 164.617188 179.40625 164.617188 179.445312 164.617188 179.484375 C 164.613281 179.492188 164.613281 179.511719 164.609375 179.527344 Z M 164.609375 179.527344 " fill-opacity="1" fill-rule="nonzero"/><path fill="#f8be52" d="M 173.101562 184.933594 C 172.507812 184.46875 171.757812 184.4375 171.261719 184.851562 C 170.859375 185.191406 170.644531 185.773438 170.460938 186.347656 C 170.242188 187.035156 170.046875 187.777344 170.128906 188.574219 C 170.210938 189.375 170.644531 190.246094 171.277344 190.535156 C 171.796875 190.773438 172.308594 190.578125 172.777344 190.382812 C 173.355469 190.140625 173.964844 189.867188 174.261719 189.226562 C 174.601562 188.492188 174.570312 187.460938 174.273438 186.5625 C 174.109375 186.074219 173.699219 185.398438 173.101562 184.933594 Z M 173.101562 184.933594 " fill-opacity="1" fill-rule="nonzero"/><path fill="#302f2f" d="M 173.488281 184.550781 C 173.46875 184.535156 173.449219 184.523438 173.429688 184.511719 C 173.414062 184.496094 173.394531 184.480469 173.375 184.464844 C 172.855469 184.078125 172.160156 183.902344 171.53125 184.101562 C 170.917969 184.292969 170.507812 184.796875 170.253906 185.363281 C 169.707031 186.574219 169.3125 188.085938 169.75 189.386719 C 169.945312 189.96875 170.269531 190.523438 170.78125 190.878906 C 171.378906 191.292969 172.097656 191.234375 172.742188 190.980469 C 173.28125 190.773438 173.828125 190.542969 174.257812 190.144531 C 174.75 189.683594 174.960938 189.035156 175.027344 188.378906 C 175.175781 186.949219 174.613281 185.453125 173.488281 184.550781 Z M 173.792969 188.953125 C 173.628906 189.332031 173.292969 189.546875 172.9375 189.722656 C 172.570312 189.898438 172.082031 190.164062 171.664062 190.09375 C 171.296875 190.035156 171.058594 189.664062 170.90625 189.359375 C 170.449219 188.453125 170.691406 187.410156 170.988281 186.492188 C 171.121094 186.070312 171.273438 185.5 171.65625 185.230469 C 172.015625 184.980469 172.441406 185.136719 172.765625 185.359375 C 173.453125 185.933594 173.867188 186.71875 173.945312 187.617188 C 173.984375 188.0625 173.972656 188.539062 173.792969 188.953125 Z M 173.792969 188.953125 " fill-opacity="1" fill-rule="nonzero"/><path fill="#ffffff" d="M 117.335938 197.527344 C 115.351562 193.253906 110.597656 195.597656 110.597656 195.597656 C 110.597656 195.597656 115.832031 191.472656 113.492188 187.078125 C 110.816406 182.054688 105.039062 184.917969 105.039062 184.917969 C 105.039062 184.917969 110.289062 180.703125 107.386719 175.625 C 104.484375 170.542969 98.699219 173.792969 98.699219 173.792969 C 98.699219 173.792969 103.324219 170.378906 100.527344 165.132812 C 96.800781 158.132812 83.898438 166.175781 83.898438 166.175781 C 82.277344 163.132812 78.351562 158.375 71.15625 163.519531 C 53.125 176.417969 57.964844 193.140625 57.964844 193.140625 C 57.964844 193.140625 48.105469 193.507812 56.046875 208.417969 C 64.351562 224.011719 70.742188 217.214844 70.742188 217.214844 C 70.742188 217.214844 77.191406 222.527344 89.425781 220.289062 C 89.425781 220.289062 100.027344 217.457031 110.097656 210.335938 C 113.203125 208.140625 119.621094 202.445312 117.335938 197.527344 Z M 117.335938 197.527344 " fill-opacity="1" fill-rule="nonzero"/><path fill="#302f2f" d="M 118.652344 196.917969 C 117.945312 195.398438 116.828125 194.332031 115.421875 193.832031 C 115.039062 193.699219 114.65625 193.613281 114.28125 193.5625 C 115.445312 191.671875 116.222656 189.117188 114.773438 186.394531 C 113.269531 183.578125 110.90625 182.675781 108.699219 182.644531 C 109.804688 180.515625 110.28125 177.765625 108.648438 174.90625 C 107.015625 172.046875 104.570312 171.230469 102.320312 171.3125 C 103.0625 169.453125 103.214844 167.085938 101.808594 164.449219 C 100.898438 162.742188 99.484375 161.617188 97.609375 161.117188 C 93.117188 159.910156 87.035156 162.785156 84.414062 164.210938 C 83.226562 162.429688 81.425781 160.601562 78.84375 159.996094 C 76.21875 159.382812 73.351562 160.167969 70.3125 162.339844 C 60.605469 169.285156 57.371094 177.359375 56.371094 182.910156 C 55.648438 186.914062 55.949219 190.195312 56.246094 192.007812 C 55.042969 192.382812 53.460938 193.195312 52.445312 194.957031 C 50.652344 198.078125 51.429688 202.839844 54.765625 209.101562 C 58.367188 215.863281 62.179688 219.554688 66.101562 220.078125 C 68.207031 220.359375 69.828125 219.640625 70.792969 219.015625 C 72.605469 220.148438 76.90625 222.292969 83.542969 222.292969 C 85.410156 222.292969 87.457031 222.125 89.683594 221.714844 C 89.722656 221.710938 89.761719 221.699219 89.796875 221.691406 C 90.242188 221.574219 100.769531 218.710938 110.9375 211.523438 C 112.757812 210.230469 121.695312 203.472656 118.652344 196.917969 Z M 109.261719 209.152344 C 99.890625 215.777344 89.910156 218.648438 89.101562 218.871094 C 79.15625 220.671875 73.253906 217.1875 71.945312 216.296875 L 68.28125 209.417969 C 67.90625 208.710938 67.027344 208.445312 66.320312 208.820312 C 65.613281 209.199219 65.34375 210.074219 65.722656 210.78125 L 68.910156 216.765625 C 68.34375 217.066406 67.5 217.347656 66.429688 217.195312 C 64.421875 216.902344 61.207031 215.023438 57.324219 207.734375 C 54.582031 202.585938 53.738281 198.566406 54.949219 196.425781 C 55.523438 195.402344 56.484375 194.949219 57.179688 194.746094 L 60.472656 200.933594 C 60.851562 201.640625 61.730469 201.90625 62.4375 201.53125 C 63.144531 201.152344 63.410156 200.273438 63.035156 199.566406 L 59.324219 192.605469 C 59.144531 191.875 58.347656 188.15625 59.253906 183.28125 C 60.601562 176.039062 64.890625 169.785156 72 164.699219 C 74.328125 163.035156 76.410156 162.402344 78.183594 162.816406 C 79.792969 163.195312 81.003906 164.386719 81.863281 165.617188 C 78.824219 167.324219 71.613281 171.902344 67.390625 178.933594 C 66.976562 179.617188 67.199219 180.511719 67.886719 180.921875 C 68.121094 181.0625 68.375 181.128906 68.632812 181.128906 C 69.125 181.128906 69.605469 180.878906 69.875 180.425781 C 74.757812 172.296875 84.433594 167.527344 84.53125 167.480469 C 84.554688 167.46875 84.574219 167.453125 84.597656 167.441406 C 84.621094 167.429688 84.644531 167.421875 84.664062 167.40625 C 86.78125 166.09375 93.089844 162.90625 96.859375 163.917969 C 97.941406 164.207031 98.722656 164.828125 99.25 165.8125 C 101.367188 169.792969 98.199219 172.351562 97.835938 172.628906 C 97.761719 172.683594 97.695312 172.742188 97.636719 172.808594 L 94.011719 175.558594 C 93.371094 176.042969 93.25 176.953125 93.734375 177.589844 C 94.019531 177.964844 94.449219 178.164062 94.890625 178.164062 C 95.195312 178.164062 95.503906 178.070312 95.765625 177.871094 L 99.597656 174.957031 C 100.488281 174.519531 104.191406 172.953125 106.128906 176.34375 C 108.371094 180.269531 104.300781 183.648438 104.128906 183.789062 C 104.070312 183.835938 104.015625 183.890625 103.96875 183.945312 L 99.597656 186.90625 C 98.933594 187.351562 98.761719 188.253906 99.210938 188.917969 C 99.492188 189.332031 99.949219 189.554688 100.414062 189.554688 C 100.691406 189.554688 100.976562 189.472656 101.226562 189.304688 L 105.976562 186.085938 C 107.066406 185.632812 110.496094 184.539062 112.210938 187.757812 C 113.949219 191.019531 109.742188 194.429688 109.699219 194.460938 C 109.691406 194.46875 109.683594 194.476562 109.675781 194.484375 L 106.351562 196.726562 C 105.6875 197.175781 105.511719 198.074219 105.960938 198.738281 C 106.242188 199.15625 106.699219 199.378906 107.164062 199.378906 C 107.441406 199.378906 107.726562 199.296875 107.972656 199.128906 L 111.363281 196.84375 C 111.957031 196.59375 113.359375 196.175781 114.464844 196.574219 C 115.132812 196.8125 115.644531 197.324219 116.019531 198.136719 C 117.742188 201.84375 112.582031 206.804688 109.261719 209.152344 Z M 109.261719 209.152344 " fill-opacity="1" fill-rule="nonzero"/><path fill="#302f2f" d="M 276.097656 211.625 C 256.910156 211.625 242.792969 205.640625 234.027344 200.3125 C 223.328125 193.804688 217.976562 186.800781 217.757812 186.503906 C 215.949219 184.109375 216.425781 180.699219 218.824219 178.890625 C 221.21875 177.085938 224.617188 177.558594 226.429688 179.941406 C 226.527344 180.070312 231.078125 185.882812 240.109375 191.277344 C 252.222656 198.511719 266.285156 201.628906 281.898438 200.546875 C 284.902344 200.34375 287.492188 202.601562 287.703125 205.597656 C 287.910156 208.59375 285.648438 211.191406 282.652344 211.398438 C 280.40625 211.554688 278.21875 211.625 276.097656 211.625 Z M 276.097656 211.625 " fill-opacity="1" fill-rule="nonzero"/><path fill="#ffffff" d="M 290.71875 231.085938 C 279.804688 228.597656 275.640625 220.371094 275.640625 220.371094 C 275.640625 220.371094 266.917969 223.328125 266.917969 205.878906 C 266.917969 189.195312 275.683594 193.453125 275.683594 193.453125 C 280.820312 181.550781 289.246094 187.039062 292.3125 174.214844 C 292.3125 174.214844 294.484375 157.101562 301.378906 157.675781 C 309.777344 158.375 309.292969 169.867188 306.867188 179.699219 C 311.527344 177.59375 332.339844 176.953125 333.304688 186.59375 C 333.8125 191.660156 329.460938 193.023438 329.460938 193.023438 C 329.460938 193.023438 337.46875 197.851562 330.074219 204.910156 C 330.074219 204.910156 335.789062 210.980469 329.59375 216.851562 C 332.339844 219.34375 333.578125 225.09375 326.234375 228.066406 C 312.355469 233.6875 290.71875 231.085938 290.71875 231.085938 Z M 290.71875 231.085938 " fill-opacity="1" fill-rule="nonzero"/><path fill="#302f2f" d="M 334.617188 198.21875 C 334.375 196.03125 333.128906 194.34375 332.023438 193.246094 C 333.601562 191.992188 335.082031 189.800781 334.75 186.449219 C 334.476562 183.742188 332.863281 181.464844 330.085938 179.863281 C 324.304688 176.527344 314.296875 176.449219 308.832031 177.601562 C 310.132812 171.351562 310.703125 163.894531 307.585938 159.558594 C 306.15625 157.566406 304.105469 156.449219 301.496094 156.230469 C 293.550781 155.570312 291.171875 171.714844 290.882812 173.953125 C 289.421875 180 286.851562 181.398438 283.601562 183.167969 C 280.714844 184.742188 277.464844 186.507812 274.902344 191.6875 C 273.671875 191.421875 271.816406 191.332031 270.019531 192.457031 C 267 194.351562 265.464844 198.867188 265.464844 205.878906 C 265.464844 213.453125 267.078125 218.445312 270.253906 220.726562 C 271.992188 221.96875 273.769531 222.082031 274.902344 221.976562 C 276.40625 224.335938 281.070312 230.375 290.394531 232.5 C 290.445312 232.511719 290.496094 232.519531 290.546875 232.527344 C 290.96875 232.578125 295.902344 233.152344 302.476562 233.152344 C 309.867188 233.152344 319.332031 232.425781 326.773438 229.414062 C 331.34375 227.5625 332.726562 224.800781 333.078125 222.8125 C 333.4375 220.792969 332.855469 218.589844 331.566406 216.878906 C 335.375 212.410156 333.882812 207.683594 332 205 C 333.992188 202.78125 334.867188 200.503906 334.617188 198.21875 Z M 330.226562 222.304688 C 329.902344 224.125 328.332031 225.652344 325.6875 226.722656 C 312.71875 231.972656 292.351562 229.8125 290.964844 229.65625 C 282.1875 227.625 278.046875 221.574219 277.132812 220.0625 L 277.132812 212.433594 C 277.132812 211.632812 276.484375 210.984375 275.683594 210.984375 C 274.882812 210.984375 274.234375 211.632812 274.234375 212.433594 L 274.234375 219.113281 C 273.617188 219.109375 272.777344 218.964844 271.945312 218.367188 C 270.3125 217.195312 268.367188 214.078125 268.367188 205.878906 C 268.367188 200.121094 269.492188 196.234375 271.539062 194.929688 C 272.503906 194.316406 273.539062 194.359375 274.234375 194.503906 L 274.234375 201.410156 C 274.234375 202.210938 274.882812 202.863281 275.683594 202.863281 C 276.484375 202.863281 277.136719 202.210938 277.136719 201.410156 L 277.136719 193.761719 C 279.355469 188.789062 282.09375 187.292969 284.992188 185.714844 C 288.417969 183.847656 291.964844 181.917969 293.722656 174.554688 C 293.734375 174.503906 293.746094 174.449219 293.75 174.398438 C 294.40625 169.265625 297.109375 158.773438 301.257812 159.121094 C 303.007812 159.265625 304.308594 159.964844 305.234375 161.253906 C 307.394531 164.261719 307.523438 170.597656 305.613281 178.691406 C 302.675781 180.210938 300.890625 182.847656 300.796875 185.875 C 300.730469 188.078125 301.605469 190.171875 303.121094 191.675781 C 301.390625 193.003906 300.265625 194.917969 300.265625 197.6875 C 300.265625 200.242188 301.660156 202.179688 304.140625 203.25 C 301.671875 204.941406 300.265625 207.191406 300.265625 209.777344 C 300.265625 211.886719 301.003906 214.417969 304.089844 215.8125 C 301.890625 217.910156 301.347656 220.511719 302.625 223.066406 C 303.78125 225.382812 307.238281 226.597656 311.375 226.597656 C 314.621094 226.597656 318.285156 225.851562 321.582031 224.308594 C 322.304688 223.96875 322.617188 223.105469 322.277344 222.378906 C 321.941406 221.652344 321.074219 221.339844 320.351562 221.679688 C 313.679688 224.804688 306.308594 223.957031 305.21875 221.773438 C 304.929688 221.199219 304.058594 219.449219 306.625 217.449219 C 311.046875 214.003906 322.484375 212.667969 328.632812 217.945312 C 329.578125 218.804688 330.554688 220.460938 330.226562 222.304688 Z M 329.140625 206.042969 C 329.902344 206.929688 332.8125 210.808594 329.433594 214.90625 C 323.292969 210.609375 313.3125 210.6875 307.171875 213.722656 C 303.660156 213.089844 303.164062 211.382812 303.164062 209.777344 C 303.164062 206.085938 308.304688 203.246094 315.660156 202.867188 C 322.625 202.507812 328.136719 205.46875 329.140625 206.042969 Z M 329.808594 203.101562 C 327.628906 201.972656 322.234375 199.628906 315.511719 199.972656 C 312.8125 200.109375 310.378906 200.554688 308.28125 201.25 C 306.269531 201.101562 303.164062 200.429688 303.164062 197.6875 C 303.164062 194.964844 304.511719 192.109375 314.515625 191.582031 C 321.863281 191.191406 328.078125 193.980469 328.757812 194.296875 C 329.117188 194.535156 331.480469 196.167969 331.734375 198.550781 C 331.886719 199.988281 331.238281 201.515625 329.808594 203.101562 Z M 329.488281 191.445312 C 327.585938 190.621094 321.546875 188.304688 314.363281 188.683594 C 311.621094 188.828125 308.476562 189.171875 305.851562 190.191406 C 304.457031 189.253906 303.644531 187.6875 303.695312 185.964844 C 303.757812 183.832031 305.125 182.035156 307.445312 181.03125 C 307.445312 181.027344 307.449219 181.027344 307.453125 181.027344 C 307.457031 181.023438 307.460938 181.023438 307.464844 181.019531 C 310.523438 179.636719 322.613281 178.902344 328.636719 182.375 C 330.628906 183.523438 331.683594 184.953125 331.863281 186.738281 C 332.160156 189.714844 330.378906 190.996094 329.488281 191.445312 Z M 329.488281 191.445312 " fill-opacity="1" fill-rule="nonzero"/><path fill="#302f2f" d="M 298.246094 192.09375 C 297.492188 191.816406 296.660156 192.199219 296.378906 192.949219 C 296.351562 193.03125 293.273438 201.113281 285.597656 204.324219 C 284.859375 204.632812 284.511719 205.484375 284.820312 206.222656 C 285.054688 206.777344 285.59375 207.113281 286.160156 207.113281 C 286.347656 207.113281 286.535156 207.074219 286.71875 207 C 295.539062 203.308594 298.957031 194.335938 299.097656 193.957031 C 299.378906 193.207031 298.996094 192.371094 298.246094 192.09375 Z M 298.246094 192.09375 " fill-opacity="1" fill-rule="nonzero"/></svg>