<svg xmlns="http://www.w3.org/2000/svg" xmlns:xlink="http://www.w3.org/1999/xlink" width="500" zoomAndPan="magnify" viewBox="0 0 375 374.999991" height="500" preserveAspectRatio="xMidYMid meet" version="1.0"><path fill="#f8be52" d="M 219.675781 63.453125 C 213.042969 59.582031 210.007812 67.558594 214.132812 69.824219 C 214.132812 69.824219 213.558594 73.355469 216.675781 74.746094 C 220.429688 76.417969 222.363281 74.382812 222.363281 74.382812 C 222.363281 74.382812 225.128906 77 228.457031 74.847656 C 231.277344 73.027344 231.285156 67.886719 226.933594 66.722656 C 228.65625 64.277344 223.640625 57.933594 219.675781 63.453125 Z M 219.675781 63.453125 " fill-opacity="1" fill-rule="nonzero"/><path fill="#302f2f" d="M 225.75 76.765625 C 224.375 76.765625 223.175781 76.269531 222.34375 75.726562 C 221.292969 76.347656 219.226562 77.058594 216.238281 75.726562 C 213.601562 74.550781 212.976562 72.015625 213.007812 70.371094 C 211.871094 69.496094 211.199219 68.144531 211.179688 66.632812 C 211.15625 64.742188 212.15625 62.925781 213.726562 62.011719 C 214.683594 61.453125 216.625 60.785156 219.390625 62.085938 C 221.632812 59.570312 224.171875 59.875 225.890625 61.097656 C 227.480469 62.230469 228.617188 64.320312 228.320312 66.089844 C 230.003906 66.886719 231.132812 68.351562 231.417969 70.175781 C 231.765625 72.367188 230.808594 74.609375 229.039062 75.75 C 227.898438 76.488281 226.773438 76.765625 225.75 76.765625 Z M 222.355469 73.300781 C 222.621094 73.300781 222.890625 73.402344 223.101562 73.601562 C 223.320312 73.804688 225.359375 75.570312 227.875 73.945312 C 228.941406 73.257812 229.511719 71.878906 229.296875 70.511719 C 229.171875 69.714844 228.660156 68.296875 226.65625 67.757812 C 226.316406 67.667969 226.042969 67.417969 225.921875 67.085938 C 225.804688 66.757812 225.851562 66.390625 226.054688 66.101562 C 226.515625 65.449219 225.914062 63.753906 224.644531 62.851562 C 223.253906 61.859375 221.835938 62.285156 220.546875 64.078125 C 220.222656 64.527344 219.613281 64.660156 219.132812 64.378906 C 217.457031 63.402344 215.921875 63.222656 214.808594 63.867188 C 213.894531 64.402344 213.3125 65.476562 213.328125 66.605469 C 213.335938 67.191406 213.519531 68.261719 214.648438 68.882812 C 215.046875 69.101562 215.265625 69.546875 215.191406 69.996094 C 215.175781 70.101562 214.808594 72.738281 217.113281 73.765625 C 220.066406 75.082031 221.535156 73.6875 221.59375 73.628906 C 221.804688 73.410156 222.078125 73.300781 222.355469 73.300781 Z M 222.355469 73.300781 " fill-opacity="1" fill-rule="nonzero"/><path fill="#f8be52" d="M 190.425781 58.800781 C 190.425781 58.800781 185.1875 64.816406 192.003906 66.472656 C 196.464844 67.558594 199.082031 62.015625 199.082031 62.015625 C 199.082031 62.015625 203.660156 64.003906 205.167969 60.722656 C 207.125 56.472656 202.925781 55.601562 202.925781 55.601562 C 202.925781 55.601562 204.445312 52.226562 201.035156 50.753906 C 197.839844 49.375 195.394531 53.285156 195.394531 53.285156 C 195.394531 53.285156 192.929688 51.535156 190.855469 52.566406 C 188.894531 53.542969 187.28125 57.523438 190.425781 58.800781 Z M 190.425781 58.800781 " fill-opacity="1" fill-rule="nonzero"/><path fill="#302f2f" d="M 193.183594 67.695312 C 192.726562 67.695312 192.25 67.640625 191.75 67.519531 C 189.5 66.972656 188.109375 65.910156 187.613281 64.359375 C 186.992188 62.402344 188.050781 60.316406 188.859375 59.101562 C 188.074219 58.4375 187.621094 57.515625 187.582031 56.441406 C 187.507812 54.546875 188.738281 52.421875 190.378906 51.601562 C 192.132812 50.730469 194.007812 51.347656 195.097656 51.878906 C 196.390625 50.335938 198.773438 48.609375 201.464844 49.769531 C 202.746094 50.324219 203.613281 51.167969 204.046875 52.28125 C 204.425781 53.257812 204.378906 54.222656 204.242188 54.929688 C 204.953125 55.265625 205.835938 55.863281 206.355469 56.890625 C 206.964844 58.101562 206.894531 59.542969 206.148438 61.171875 C 204.824219 64.050781 201.660156 63.949219 199.578125 63.335938 C 198.671875 64.820312 196.488281 67.695312 193.183594 67.695312 Z M 191.238281 59.507812 C 190.6875 60.144531 189.210938 62.289062 189.664062 63.710938 C 189.914062 64.492188 190.789062 65.074219 192.257812 65.429688 C 195.808594 66.289062 198.089844 61.601562 198.109375 61.554688 C 198.359375 61.03125 198.980469 60.800781 199.507812 61.03125 C 199.65625 61.09375 203.144531 62.554688 204.195312 60.273438 C 204.652344 59.273438 204.738281 58.464844 204.441406 57.867188 C 203.980469 56.945312 202.714844 56.65625 202.703125 56.652344 C 202.386719 56.582031 202.117188 56.371094 201.96875 56.085938 C 201.824219 55.796875 201.8125 55.457031 201.945312 55.160156 C 201.949219 55.15625 202.425781 54.03125 202.035156 53.046875 C 201.816406 52.488281 201.347656 52.058594 200.609375 51.742188 C 198.308594 50.75 196.382812 53.730469 196.300781 53.855469 C 196.144531 54.105469 195.890625 54.28125 195.601562 54.335938 C 195.3125 54.394531 195.011719 54.332031 194.769531 54.160156 C 194.753906 54.148438 192.773438 52.8125 191.335938 53.527344 C 190.542969 53.921875 189.6875 55.21875 189.730469 56.359375 C 189.753906 57.050781 190.105469 57.511719 190.832031 57.804688 C 191.152344 57.9375 191.390625 58.214844 191.472656 58.550781 C 191.550781 58.890625 191.464844 59.246094 191.238281 59.507812 Z M 191.238281 59.507812 " fill-opacity="1" fill-rule="nonzero"/><path fill="#302f2f" d="M 98.539062 203.515625 C 97.03125 203.515625 95.523438 203.105469 94.160156 202.285156 C 91.519531 200.699219 89.929688 197.800781 90.015625 194.714844 C 90.234375 186.535156 94.640625 174.320312 114.386719 162.585938 C 116.300781 161.449219 118.769531 162.078125 119.90625 163.992188 C 121.042969 165.90625 120.414062 168.378906 118.5 169.515625 C 101.914062 179.371094 98.234375 188.777344 98.070312 194.933594 C 98.066406 195.011719 98.0625 195.226562 98.308594 195.375 C 98.539062 195.511719 98.703125 195.417969 98.773438 195.378906 C 100.710938 194.28125 103.167969 194.957031 104.265625 196.894531 C 105.367188 198.828125 104.6875 201.289062 102.75 202.386719 C 101.425781 203.140625 99.984375 203.515625 98.539062 203.515625 Z M 98.539062 203.515625 " fill-opacity="1" fill-rule="nonzero"/><path fill="#f8be52" d="M 251.898438 107.175781 C 251.898438 107.175781 257.355469 102.128906 253.789062 98.101562 C 252.203125 96.316406 250.730469 95.753906 249.472656 95.785156 C 250.339844 92.75 249.050781 89.03125 244.902344 87.921875 C 247.289062 84.53125 240.332031 75.734375 234.832031 83.386719 C 230.066406 80.605469 226.640625 82.238281 225.242188 84.890625 C 224.996094 84.386719 224.648438 83.871094 224.175781 83.351562 C 220.683594 79.515625 214.988281 82.359375 214.988281 82.359375 C 214.988281 82.359375 212.695312 79.425781 209.253906 79.554688 C 208.65625 79.578125 208.074219 79.742188 207.535156 80.023438 C 207.441406 79.777344 207.339844 79.527344 207.226562 79.273438 C 204.589844 73.257812 197.789062 77.847656 197.789062 77.847656 C 197.789062 77.847656 194.8125 71.359375 190.074219 73.414062 C 187.984375 74.320312 187.027344 75.488281 186.675781 76.636719 C 185.714844 76.503906 184.574219 76.511719 183.21875 76.710938 C 183.191406 76.664062 183.164062 76.617188 183.132812 76.574219 C 180.347656 72.375 177.007812 73.210938 177.007812 73.210938 C 177.007812 73.210938 175.863281 68.683594 171.003906 68.722656 C 167.367188 68.753906 164.300781 72.910156 166.21875 76.679688 C 164.15625 75.546875 161.460938 75.738281 159.046875 79.09375 C 158.050781 78.515625 157.117188 78.128906 156.242188 77.902344 C 156.621094 76.78125 156.605469 75.316406 155.203125 73.773438 C 152.386719 70.679688 147.792969 72.972656 147.792969 72.972656 C 147.792969 72.972656 145.945312 70.609375 143.164062 70.710938 C 140.535156 70.808594 138.144531 74.390625 140.953125 77.347656 C 140.953125 77.347656 132.03125 80.863281 136.542969 85.609375 C 135.847656 85.835938 135.203125 86.257812 134.683594 86.808594 C 133.828125 83.105469 128.589844 78.917969 124.253906 84.945312 C 115.054688 79.582031 110.847656 90.648438 116.566406 93.789062 C 116.566406 93.789062 116.390625 94.875 116.65625 96.226562 C 120.484375 94.5 126.589844 93.375 134.328125 92.894531 C 134.675781 92.875 135.027344 92.855469 135.382812 92.835938 C 135.589844 92.824219 135.796875 92.8125 136.007812 92.804688 C 136.175781 92.796875 136.347656 92.785156 136.519531 92.777344 C 136.714844 92.769531 136.90625 92.761719 137.101562 92.753906 C 137.300781 92.746094 137.5 92.738281 137.703125 92.730469 C 137.890625 92.726562 138.082031 92.71875 138.273438 92.710938 C 138.601562 92.703125 138.929688 92.691406 139.261719 92.683594 C 139.558594 92.675781 139.863281 92.667969 140.167969 92.660156 C 140.472656 92.65625 140.777344 92.652344 141.089844 92.644531 C 141.257812 92.644531 141.425781 92.644531 141.597656 92.640625 C 143.308594 92.621094 145.082031 92.625 146.90625 92.660156 C 147.289062 92.667969 147.675781 92.675781 148.066406 92.6875 C 148.753906 92.699219 149.457031 92.722656 150.164062 92.746094 C 150.542969 92.757812 150.929688 92.773438 151.316406 92.789062 C 151.699219 92.800781 152.089844 92.816406 152.480469 92.835938 C 153.046875 92.859375 153.617188 92.886719 154.191406 92.917969 C 155.050781 92.960938 155.917969 93.011719 156.796875 93.066406 C 157.125 93.085938 157.457031 93.105469 157.789062 93.128906 C 159.101562 93.214844 160.4375 93.316406 161.785156 93.425781 C 162.164062 93.453125 162.546875 93.488281 162.929688 93.523438 C 163.367188 93.558594 163.804688 93.597656 164.242188 93.636719 C 165.613281 93.761719 167.007812 93.898438 168.410156 94.046875 C 169.117188 94.117188 169.828125 94.195312 170.546875 94.28125 C 170.984375 94.328125 171.421875 94.375 171.859375 94.429688 C 172.222656 94.472656 172.742188 94.535156 173.199219 94.589844 C 176.910156 95.039062 180.710938 95.570312 184.574219 96.183594 C 184.695312 96.203125 184.816406 96.222656 184.9375 96.242188 C 186.921875 96.558594 188.882812 96.886719 190.816406 97.234375 C 192.949219 97.617188 195.050781 98.011719 197.121094 98.425781 C 199.144531 98.828125 201.132812 99.246094 203.085938 99.679688 C 204.503906 99.996094 205.757812 100.300781 207.191406 100.621094 C 210.226562 101.339844 213.164062 102.089844 215.980469 102.863281 C 216.941406 103.128906 217.886719 103.398438 218.820312 103.664062 C 224.1875 105.214844 229.078125 106.855469 233.371094 108.53125 C 233.660156 108.644531 233.945312 108.757812 234.226562 108.867188 C 234.484375 108.972656 234.742188 109.074219 234.992188 109.179688 C 238.703125 110.6875 241.921875 112.222656 244.558594 113.753906 C 248.125 115.816406 250.636719 117.867188 251.871094 119.816406 C 252.109375 120.1875 252.300781 120.558594 252.441406 120.925781 C 252.863281 120.542969 253.292969 120.070312 253.726562 119.5 C 257.882812 114.066406 251.898438 107.175781 251.898438 107.175781 Z M 251.898438 107.175781 " fill-opacity="1" fill-rule="nonzero"/><path fill="#302f2f" d="M 253.328125 107.257812 C 255.375 104.992188 257.617188 100.800781 254.59375 97.390625 C 253.371094 96.011719 252.082031 95.160156 250.75 94.847656 C 250.832031 94.171875 250.824219 93.472656 250.710938 92.777344 C 250.320312 90.28125 248.714844 88.296875 246.34375 87.28125 C 246.902344 84.964844 245.390625 82.011719 243.214844 80.460938 C 240.929688 78.839844 237.527344 78.46875 234.546875 82.003906 C 230.726562 80.101562 228.078125 81 226.792969 81.746094 C 226.226562 82.078125 225.714844 82.5 225.273438 82.984375 C 225.179688 82.863281 225.074219 82.742188 224.96875 82.625 C 221.746094 79.085938 217.082031 80.371094 215.265625 81.070312 C 214.292969 80.101562 212.128906 78.375 209.210938 78.476562 C 208.84375 78.492188 208.476562 78.546875 208.121094 78.644531 C 207.3125 76.902344 206.089844 75.785156 204.5 75.328125 C 202.140625 74.640625 199.597656 75.648438 198.21875 76.359375 C 196.707031 73.828125 193.589844 70.71875 189.644531 72.425781 C 187.871094 73.195312 186.644531 74.222656 185.988281 75.492188 C 185.289062 75.445312 184.539062 75.472656 183.738281 75.558594 C 181.5625 72.554688 179.09375 72.070312 177.746094 72.066406 C 176.945312 70.183594 174.886719 67.644531 171.066406 67.644531 L 170.996094 67.644531 C 168.507812 67.667969 166.132812 69.296875 165.089844 71.707031 C 164.617188 72.789062 164.460938 73.921875 164.601562 75.027344 C 162.75 74.785156 160.667969 75.449219 158.757812 77.714844 C 158.320312 77.496094 157.902344 77.316406 157.5 77.167969 C 157.511719 77.085938 157.515625 77.003906 157.519531 76.917969 C 157.597656 75.539062 157.082031 74.242188 155.996094 73.046875 C 153.382812 70.175781 149.65625 71.105469 148.066406 71.691406 C 147.214844 70.871094 145.449219 69.546875 143.128906 69.632812 C 141.355469 69.699219 139.6875 70.921875 138.972656 72.675781 C 138.394531 74.089844 138.519531 75.585938 139.296875 76.921875 C 137.542969 77.816406 134.617188 79.679688 134.234375 82.328125 C 134.171875 82.746094 134.175781 83.160156 134.246094 83.570312 C 133.777344 82.972656 133.234375 82.445312 132.636719 82.019531 C 130.355469 80.398438 126.949219 80.027344 123.96875 83.566406 C 120.152344 81.65625 117.5 82.558594 116.214844 83.308594 C 114.164062 84.503906 112.855469 86.878906 112.890625 89.351562 C 112.917969 91.425781 113.832031 93.207031 115.433594 94.339844 C 115.398438 95.027344 115.453125 95.859375 115.664062 96.71875 C 116.261719 96.390625 116.929688 96.089844 117.667969 95.804688 C 117.503906 94.8125 117.617188 94.027344 117.628906 93.957031 C 117.699219 93.507812 117.484375 93.0625 117.085938 92.839844 C 115.804688 92.136719 115.058594 90.855469 115.039062 89.324219 C 115.015625 87.609375 115.902344 85.976562 117.296875 85.164062 C 118.972656 84.183594 121.253906 84.4375 123.714844 85.871094 C 124.191406 86.152344 124.804688 86.019531 125.128906 85.570312 C 127.714844 81.96875 130.164062 82.898438 131.390625 83.773438 C 132.375 84.472656 133.128906 85.527344 133.5 86.535156 C 133.082031 87.078125 132.753906 87.695312 132.542969 88.367188 C 132.046875 89.949219 132.25 91.554688 133.09375 92.976562 C 133.933594 92.914062 134.796875 92.859375 135.679688 92.816406 C 134.929688 92.0625 134.59375 91.3125 134.480469 90.648438 C 134.363281 89.984375 134.46875 89.410156 134.59375 89.015625 C 134.824219 88.285156 135.273438 87.644531 135.84375 87.195312 C 135.992188 87.074219 136.152344 86.964844 136.316406 86.871094 C 136.660156 86.675781 137.03125 86.546875 137.410156 86.503906 C 140.226562 86.171875 142.421875 88.476562 142.441406 88.496094 C 142.5 88.558594 142.558594 88.609375 142.628906 88.652344 C 142.964844 88.886719 143.421875 88.90625 143.785156 88.6875 C 143.921875 88.605469 146.167969 87.285156 148.582031 87.457031 C 148.773438 87.464844 148.964844 87.492188 149.15625 87.523438 C 150 87.664062 150.84375 88.015625 151.605469 88.683594 C 151.648438 88.722656 151.6875 88.757812 151.730469 88.800781 C 151.988281 89.039062 152.210938 89.28125 152.402344 89.527344 C 152.933594 90.222656 153.21875 90.957031 153.246094 91.714844 C 153.246094 91.828125 153.246094 91.933594 153.238281 92.042969 C 153.222656 92.328125 153.171875 92.601562 153.097656 92.859375 C 153.386719 92.875 153.679688 92.886719 153.972656 92.902344 C 154.402344 92.925781 154.839844 92.949219 155.277344 92.972656 C 155.359375 92.5625 155.402344 92.128906 155.390625 91.675781 C 155.355469 90.496094 154.960938 89.382812 154.207031 88.359375 C 153.925781 87.96875 153.585938 87.59375 153.199219 87.226562 C 152.941406 86.988281 152.683594 86.777344 152.417969 86.589844 C 151.765625 86.125 151.089844 85.808594 150.414062 85.601562 C 150.042969 84.992188 149.835938 84.265625 149.828125 83.476562 C 149.804688 81.761719 150.691406 80.128906 152.089844 79.3125 C 152.816406 78.890625 153.65625 78.695312 154.578125 78.734375 C 155.285156 78.761719 156.039062 78.921875 156.824219 79.21875 C 157.371094 79.421875 157.929688 79.691406 158.503906 80.023438 C 158.980469 80.300781 159.59375 80.171875 159.917969 79.722656 C 162.054688 76.75 164.097656 76.863281 165.433594 77.484375 C 165.714844 77.617188 165.964844 77.769531 166.179688 77.921875 C 166.683594 78.28125 167.128906 78.726562 167.488281 79.21875 C 168.464844 80.535156 168.847656 82.136719 168.234375 83.011719 C 168.03125 83.296875 167.984375 83.664062 168.101562 83.996094 C 168.222656 84.328125 168.496094 84.574219 168.835938 84.667969 C 169.652344 84.886719 170.367188 85.230469 170.953125 85.691406 C 171.789062 86.328125 172.375 87.1875 172.664062 88.207031 C 172.695312 88.3125 172.722656 88.421875 172.746094 88.535156 C 172.769531 88.628906 172.785156 88.722656 172.800781 88.820312 C 173.050781 90.398438 172.59375 91.992188 171.636719 93.121094 C 171.351562 93.460938 171.015625 93.761719 170.644531 94.003906 C 170.507812 94.089844 170.375 94.167969 170.246094 94.242188 C 170.824219 94.304688 171.40625 94.375 171.988281 94.441406 C 172.394531 94.488281 172.800781 94.535156 173.207031 94.589844 C 173.632812 94.640625 174.058594 94.691406 174.488281 94.746094 C 174.273438 94.402344 174.097656 94.003906 173.953125 93.550781 C 174.488281 92.652344 174.835938 91.632812 174.960938 90.570312 C 175.027344 90.003906 175.035156 89.429688 174.972656 88.851562 C 175.164062 88.683594 175.367188 88.527344 175.578125 88.382812 C 177.167969 87.296875 179.167969 86.933594 179.3125 86.90625 C 179.625 86.851562 179.898438 86.667969 180.058594 86.394531 C 180.21875 86.121094 180.253906 85.792969 180.148438 85.496094 C 179.796875 84.484375 179.132812 81.4375 180.269531 79.546875 C 180.761719 78.730469 181.542969 78.195312 182.640625 77.917969 C 182.835938 77.863281 183.039062 77.824219 183.257812 77.789062 C 183.808594 77.703125 184.332031 77.648438 184.820312 77.628906 C 185.03125 77.617188 185.234375 77.617188 185.433594 77.617188 C 186.242188 77.628906 186.960938 77.734375 187.582031 77.9375 C 188.269531 78.160156 188.84375 78.503906 189.292969 78.964844 C 191.074219 80.773438 190.558594 83.945312 190.550781 83.992188 C 190.535156 84.097656 190.53125 84.195312 190.542969 84.296875 C 190.300781 84.558594 190.089844 84.847656 189.902344 85.160156 C 188.957031 86.726562 188.863281 88.621094 189.011719 90.148438 C 189.074219 90.765625 189.175781 91.320312 189.277344 91.769531 C 188.921875 91.871094 188.554688 91.992188 188.183594 92.136719 C 186.34375 92.839844 184.375 94.082031 183.464844 96.007812 C 183.953125 96.082031 184.445312 96.160156 184.9375 96.238281 C 185.203125 96.28125 185.46875 96.324219 185.734375 96.367188 C 187.148438 94.324219 190.472656 93.679688 190.773438 93.628906 C 190.777344 93.628906 190.78125 93.628906 190.785156 93.628906 C 191.066406 93.578125 191.316406 93.417969 191.480469 93.1875 C 191.496094 93.164062 191.515625 93.136719 191.527344 93.113281 C 191.605469 92.984375 191.652344 92.839844 191.667969 92.691406 C 191.6875 92.535156 191.671875 92.371094 191.621094 92.21875 C 191.613281 92.203125 191.378906 91.503906 191.230469 90.535156 C 191.03125 89.269531 190.972656 87.542969 191.75 86.261719 C 192.03125 85.792969 192.414062 85.410156 192.894531 85.125 C 193.390625 84.828125 194.003906 84.621094 194.730469 84.507812 C 195.433594 84.398438 196.085938 84.34375 196.691406 84.339844 C 198.5 84.320312 199.871094 84.773438 200.765625 85.683594 C 201.429688 86.359375 201.777344 87.222656 201.945312 88.042969 C 202.015625 88.371094 202.054688 88.699219 202.078125 89 C 202.148438 89.960938 202.027344 90.695312 202.023438 90.710938 C 201.972656 91.035156 202.0625 91.359375 202.273438 91.605469 C 202.289062 91.625 202.3125 91.648438 202.332031 91.664062 C 202.582031 91.914062 202.941406 92.019531 203.292969 91.953125 C 203.570312 91.898438 203.832031 91.863281 204.078125 91.851562 C 205.648438 91.765625 206.59375 92.449219 207.105469 93.039062 C 206.53125 93.847656 206.113281 94.664062 205.832031 95.292969 C 205.015625 94.984375 204.058594 94.71875 203.0625 94.597656 C 202.230469 94.484375 201.367188 94.476562 200.535156 94.617188 C 199.796875 94.734375 199.082031 94.972656 198.429688 95.359375 C 197.875 95.6875 197.367188 96.125 196.925781 96.691406 C 196.703125 96.972656 196.5 97.285156 196.316406 97.636719 C 196.214844 97.828125 196.121094 98.019531 196.03125 98.207031 C 196.761719 98.347656 197.492188 98.496094 198.214844 98.640625 C 198.488281 98.121094 198.832031 97.726562 199.214844 97.429688 C 199.824219 96.957031 200.550781 96.734375 201.292969 96.667969 C 201.464844 96.652344 201.636719 96.644531 201.8125 96.644531 C 203.824219 96.644531 205.808594 97.613281 205.945312 97.679688 C 206.226562 97.824219 206.558594 97.832031 206.847656 97.710938 C 207.136719 97.585938 207.359375 97.34375 207.453125 97.042969 C 207.554688 96.71875 207.746094 96.222656 208.03125 95.664062 C 208.425781 94.871094 209 93.957031 209.734375 93.253906 C 210.136719 92.863281 210.589844 92.539062 211.089844 92.332031 C 212.128906 91.902344 213.253906 92.019531 214.535156 92.691406 C 217.054688 94.011719 218.453125 95.539062 218.691406 97.226562 C 218.78125 97.847656 218.703125 98.457031 218.539062 99.015625 C 218.496094 99.179688 218.441406 99.335938 218.378906 99.492188 C 217.816406 99.773438 217.265625 100.109375 216.757812 100.5 C 216.015625 101.066406 215.367188 101.753906 214.917969 102.570312 C 215.414062 102.703125 215.90625 102.839844 216.398438 102.976562 C 216.625 103.039062 216.851562 103.101562 217.078125 103.164062 C 217.613281 102.433594 218.394531 101.882812 219.1875 101.480469 C 219.460938 101.339844 219.734375 101.21875 220 101.109375 C 221.070312 100.683594 221.984375 100.515625 222.082031 100.496094 C 222.390625 100.445312 222.664062 100.257812 222.824219 99.988281 C 222.980469 99.714844 223.015625 99.386719 222.914062 99.089844 C 222.914062 99.082031 222.867188 98.949219 222.804688 98.726562 C 222.535156 97.742188 221.929688 94.976562 223.042969 93.136719 C 223.207031 92.859375 223.40625 92.617188 223.636719 92.414062 C 223.96875 92.101562 224.367188 91.863281 224.835938 91.683594 C 225.089844 91.585938 225.359375 91.507812 225.65625 91.449219 C 225.773438 91.421875 225.898438 91.398438 226.023438 91.378906 C 226.566406 91.292969 227.074219 91.242188 227.558594 91.222656 C 229.585938 91.128906 231.09375 91.574219 232.058594 92.558594 C 233.839844 94.363281 233.328125 97.539062 233.320312 97.585938 C 233.257812 97.933594 233.371094 98.289062 233.625 98.539062 C 233.878906 98.789062 234.234375 98.890625 234.585938 98.824219 C 234.953125 98.753906 235.292969 98.71875 235.605469 98.71875 C 235.722656 98.71875 235.839844 98.71875 235.949219 98.726562 L 235.953125 98.726562 C 236.722656 98.78125 237.316406 99.035156 237.757812 99.339844 C 238.050781 99.542969 238.28125 99.765625 238.457031 99.976562 C 238.515625 100.050781 238.574219 100.121094 238.621094 100.191406 C 239.433594 101.328125 239.558594 102.875 238.929688 103.953125 C 238.910156 103.992188 238.886719 104.027344 238.859375 104.0625 C 238.222656 104.113281 237.625 104.230469 237.070312 104.410156 C 236.34375 104.636719 235.6875 104.957031 235.09375 105.34375 C 233.953125 106.089844 233.042969 107.082031 232.316406 108.121094 C 232.621094 108.238281 232.921875 108.355469 233.21875 108.46875 C 233.476562 108.570312 233.730469 108.667969 233.988281 108.769531 C 234.132812 108.828125 234.273438 108.882812 234.417969 108.941406 C 235.261719 107.847656 236.363281 106.902344 237.78125 106.453125 C 238.320312 106.285156 238.902344 106.1875 239.539062 106.183594 C 239.675781 106.183594 239.8125 106.183594 239.945312 106.1875 C 241.941406 106.238281 243.261719 106.792969 243.863281 107.828125 C 244.664062 109.207031 244.257812 111.375 243.613281 113.214844 C 244.28125 113.585938 244.914062 113.949219 245.515625 114.316406 C 246.351562 112.085938 247.039062 109.019531 245.722656 106.753906 C 244.871094 105.28125 243.359375 104.402344 241.199219 104.128906 C 241.507812 103.203125 241.558594 102.183594 241.351562 101.195312 C 241.191406 100.402344 240.863281 99.628906 240.371094 98.945312 C 240.074219 98.527344 239.734375 98.160156 239.355469 97.847656 C 239.363281 97.84375 239.367188 97.839844 239.375 97.835938 C 240.0625 97.410156 240.765625 97.214844 241.476562 97.242188 C 243.277344 97.316406 244.660156 98.796875 244.667969 98.804688 C 244.742188 98.890625 244.832031 98.960938 244.929688 99.019531 L 244.933594 99.019531 C 245.109375 99.121094 245.3125 99.167969 245.523438 99.15625 C 245.847656 99.140625 246.144531 98.976562 246.335938 98.714844 C 246.351562 98.695312 247.640625 96.945312 249.429688 96.859375 C 249.6875 96.847656 249.945312 96.867188 250.207031 96.929688 C 251.121094 97.125 252.046875 97.757812 252.984375 98.8125 C 255.808594 102.003906 251.359375 106.210938 251.171875 106.390625 C 250.746094 106.78125 250.707031 107.441406 251.085938 107.878906 C 251.140625 107.945312 256.445312 114.183594 252.875 118.847656 C 252.5625 119.257812 252.25 119.613281 251.941406 119.921875 C 252.394531 120.664062 252.660156 121.386719 252.734375 122.089844 C 253.363281 121.585938 253.980469 120.9375 254.582031 120.152344 C 258.390625 115.175781 254.855469 109.347656 253.328125 107.257812 Z M 151.007812 77.457031 C 148.953125 78.652344 147.648438 81.027344 147.679688 83.503906 C 147.679688 83.695312 147.691406 83.886719 147.710938 84.074219 C 147.75 84.496094 147.824219 84.90625 147.941406 85.292969 C 146.027344 85.351562 144.328125 86.019531 143.402344 86.464844 C 143.335938 86.40625 143.261719 86.347656 143.179688 86.28125 C 142.050781 85.386719 139.867188 84.050781 137.160156 84.375 C 137.082031 84.382812 137.003906 84.394531 136.925781 84.40625 C 136.46875 83.796875 136.277344 83.203125 136.359375 82.636719 C 136.648438 80.632812 140.144531 78.824219 141.351562 78.347656 C 141.683594 78.214844 141.925781 77.929688 142.003906 77.578125 C 142.082031 77.230469 141.980469 76.863281 141.734375 76.605469 C 140.492188 75.296875 140.714844 74.089844 140.964844 73.488281 C 141.359375 72.515625 142.277344 71.816406 143.207031 71.78125 C 145.386719 71.707031 146.933594 73.617188 146.949219 73.632812 C 147.261719 74.03125 147.816406 74.160156 148.273438 73.933594 C 148.429688 73.855469 152.179688 72.046875 154.410156 74.492188 C 155.054688 75.203125 155.375 75.90625 155.382812 76.640625 C 153.347656 76.382812 151.871094 76.957031 151.007812 77.457031 Z M 178.433594 78.4375 C 177.109375 80.640625 177.460938 83.488281 177.804688 85.050781 C 176.707031 85.363281 175.464844 85.878906 174.371094 86.628906 C 173.632812 85.011719 172.304688 83.738281 170.554688 82.992188 C 171.113281 80.675781 169.605469 77.722656 167.429688 76.171875 C 167.304688 76.082031 167.175781 76 167.046875 75.914062 C 166.585938 74.832031 166.578125 73.667969 167.058594 72.566406 C 167.773438 70.921875 169.359375 69.808594 171.011719 69.796875 L 171.0625 69.796875 C 174.949219 69.796875 175.925781 73.328125 175.964844 73.472656 C 176.113281 74.046875 176.695312 74.398438 177.269531 74.253906 C 177.289062 74.246094 179.304688 73.777344 181.382812 76.058594 C 180.089844 76.527344 179.101562 77.328125 178.433594 78.4375 Z M 204.035156 87.523438 C 203.785156 86.394531 203.285156 85.183594 202.3125 84.191406 C 200.601562 82.445312 197.941406 81.835938 194.398438 82.386719 C 193.816406 82.472656 193.273438 82.613281 192.78125 82.804688 C 192.765625 81.328125 192.4375 79.105469 190.839844 77.46875 C 190.148438 76.761719 189.296875 76.238281 188.292969 75.90625 C 188.777344 75.332031 189.515625 74.824219 190.5 74.398438 C 194.214844 72.789062 196.710938 78.070312 196.8125 78.292969 C 196.945312 78.578125 197.199219 78.792969 197.5 78.878906 C 197.800781 78.964844 198.128906 78.910156 198.390625 78.738281 C 198.417969 78.714844 201.492188 76.6875 203.910156 77.394531 C 204.902344 77.679688 205.652344 78.40625 206.195312 79.597656 C 205.371094 80.226562 204.699219 81.085938 204.289062 82.09375 C 203.589844 83.804688 203.761719 85.609375 204.734375 87.226562 C 204.5 87.34375 204.261719 87.445312 204.035156 87.523438 Z M 224.648438 87.105469 C 224.597656 88.089844 224.128906 88.945312 223.710938 89.515625 C 223.558594 89.730469 223.410156 89.902344 223.296875 90.035156 C 222.410156 90.507812 221.707031 91.179688 221.195312 92.03125 C 220.609375 93.003906 220.351562 94.09375 220.273438 95.148438 C 219.476562 93.488281 217.890625 92.027344 215.53125 90.792969 C 213.675781 89.816406 211.90625 89.667969 210.265625 90.347656 C 209.625 90.613281 209.050781 90.988281 208.546875 91.429688 C 207.601562 90.441406 206.363281 89.855469 204.960938 89.726562 C 205.730469 89.296875 206.429688 88.972656 206.90625 88.785156 C 207.234375 88.652344 207.484375 88.367188 207.5625 88.019531 C 207.574219 87.953125 207.582031 87.882812 207.585938 87.816406 C 207.59375 87.53125 207.488281 87.253906 207.289062 87.046875 C 206.910156 86.644531 206.632812 86.246094 206.433594 85.863281 C 205.789062 84.609375 206.027344 83.519531 206.28125 82.902344 C 206.445312 82.496094 206.683594 82.125 206.96875 81.804688 C 207.488281 81.214844 208.175781 80.804688 208.890625 80.675781 C 209.023438 80.648438 209.15625 80.632812 209.289062 80.628906 C 212.125 80.527344 214.125 82.996094 214.140625 83.019531 C 214.460938 83.421875 215.011719 83.546875 215.46875 83.320312 C 215.519531 83.296875 220.46875 80.875 223.378906 84.070312 C 223.636719 84.355469 223.855469 84.644531 224.035156 84.933594 C 224.480469 85.644531 224.683594 86.375 224.648438 87.105469 Z M 248.59375 94.804688 C 247.175781 95.082031 246.070312 95.914062 245.378906 96.578125 C 244.558594 95.949219 243.21875 95.167969 241.585938 95.097656 C 240.035156 95.027344 238.570312 95.589844 237.214844 96.769531 C 236.6875 96.628906 236.125 96.5625 235.542969 96.570312 C 235.554688 95.097656 235.265625 92.761719 233.601562 91.0625 C 232.003906 89.425781 229.566406 88.792969 226.351562 89.171875 C 226.582031 88.59375 226.753906 87.945312 226.792969 87.234375 C 226.835938 86.460938 226.71875 85.703125 226.445312 84.96875 C 226.816406 84.410156 227.304688 83.9375 227.875 83.605469 C 229.550781 82.625 231.828125 82.878906 234.292969 84.3125 C 234.769531 84.59375 235.382812 84.460938 235.707031 84.011719 C 238.292969 80.410156 240.738281 81.339844 241.96875 82.210938 C 243.828125 83.535156 244.867188 86.105469 244.023438 87.304688 C 243.820312 87.589844 243.769531 87.957031 243.890625 88.285156 C 244.007812 88.617188 244.28125 88.871094 244.621094 88.957031 C 246.820312 89.546875 248.265625 91.0625 248.589844 93.109375 C 248.679688 93.683594 248.675781 94.257812 248.59375 94.804688 Z M 248.59375 94.804688 " fill-opacity="1" fill-rule="nonzero"/><path fill="#f9f1e4" d="M 251.871094 119.8125 C 246.6875 111.632812 219.089844 101.6875 184.941406 96.238281 C 150.789062 90.789062 121.472656 91.660156 113.996094 97.820312 C 112.976562 98.65625 112.363281 99.59375 112.199219 100.625 C 112.035156 101.660156 112.324219 102.738281 113.03125 103.855469 L 106.425781 218.609375 C 106.738281 216.664062 109.480469 215.230469 114.058594 214.320312 C 121.191406 212.902344 132.777344 212.765625 146.550781 213.988281 C 152.601562 214.523438 159.070312 215.324219 165.773438 216.394531 C 166.449219 216.5 167.121094 216.613281 167.789062 216.722656 C 179.625 218.695312 190.441406 221.230469 199.214844 223.953125 C 206.597656 226.246094 212.539062 228.675781 216.425781 231.011719 C 219.9375 233.125 221.769531 235.164062 221.484375 236.964844 L 250.910156 125.847656 C 251.929688 125.007812 252.542969 124.074219 252.707031 123.042969 C 252.871094 122.007812 252.582031 120.925781 251.871094 119.8125 Z M 251.871094 119.8125 " fill-opacity="1" fill-rule="nonzero"/><path fill="#f9f1e4" d="M 154.191406 92.914062 C 154.089844 93.359375 153.9375 93.765625 153.765625 94.125 C 153.230469 93.742188 152.808594 93.300781 152.480469 92.835938 C 153.046875 92.859375 153.617188 92.886719 154.191406 92.914062 Z M 154.191406 92.914062 " fill-opacity="1" fill-rule="nonzero"/><path fill="#e46750" d="M 165.765625 216.386719 C 167.652344 216.6875 169.527344 217.003906 171.398438 217.339844 C 173.265625 217.675781 175.121094 218.027344 176.957031 218.394531 C 178.792969 218.761719 180.601562 219.144531 182.390625 219.542969 C 184.175781 219.9375 185.925781 220.34375 187.644531 220.765625 C 189.363281 221.1875 191.039062 221.617188 192.671875 222.058594 C 194.304688 222.5 195.890625 222.949219 197.421875 223.40625 C 198.957031 223.863281 200.433594 224.324219 201.851562 224.792969 C 203.269531 225.261719 204.625 225.734375 205.914062 226.210938 C 207.203125 226.6875 208.425781 227.164062 209.574219 227.644531 C 210.722656 228.125 211.796875 228.601562 212.792969 229.078125 C 213.792969 229.554688 214.707031 230.03125 215.542969 230.5 C 216.378906 230.972656 217.128906 231.4375 217.796875 231.898438 C 218.460938 232.355469 219.039062 232.808594 219.53125 233.253906 C 220.019531 233.699219 220.417969 234.132812 220.730469 234.554688 C 221.039062 234.980469 221.253906 235.394531 221.378906 235.792969 C 221.507812 236.195312 221.539062 236.582031 221.480469 236.957031 C 221.421875 237.328125 221.269531 237.6875 221.023438 238.027344 C 220.78125 238.371094 220.445312 238.695312 220.019531 239 C 219.59375 239.308594 219.078125 239.597656 218.476562 239.867188 C 217.871094 240.136719 217.179688 240.386719 216.40625 240.617188 C 215.628906 240.847656 214.769531 241.054688 213.832031 241.242188 C 212.890625 241.429688 211.871094 241.59375 210.773438 241.738281 C 209.679688 241.882812 208.507812 242.003906 207.269531 242.101562 C 206.027344 242.199219 204.71875 242.273438 203.34375 242.324219 C 201.96875 242.375 200.535156 242.402344 199.042969 242.40625 C 197.546875 242.410156 196 242.394531 194.402344 242.351562 C 192.800781 242.308594 191.15625 242.242188 189.46875 242.152344 C 187.777344 242.0625 186.050781 241.953125 184.289062 241.816406 C 182.523438 241.683594 180.730469 241.523438 178.910156 241.34375 C 177.089844 241.167969 175.25 240.964844 173.390625 240.742188 C 171.53125 240.523438 169.660156 240.28125 167.78125 240.015625 C 165.898438 239.753906 164.015625 239.472656 162.132812 239.171875 C 160.25 238.871094 158.371094 238.554688 156.503906 238.21875 C 154.632812 237.882812 152.78125 237.53125 150.945312 237.164062 C 149.109375 236.796875 147.296875 236.414062 145.511719 236.019531 C 143.726562 235.621094 141.972656 235.214844 140.257812 234.792969 C 138.539062 234.375 136.863281 233.941406 135.230469 233.5 C 133.59375 233.0625 132.011719 232.613281 130.476562 232.15625 C 128.945312 231.699219 127.46875 231.234375 126.050781 230.765625 C 124.632812 230.296875 123.277344 229.824219 121.984375 229.347656 C 120.695312 228.871094 119.476562 228.394531 118.328125 227.914062 C 117.175781 227.433594 116.105469 226.957031 115.105469 226.480469 C 114.109375 226.003906 113.191406 225.527344 112.359375 225.058594 C 111.523438 224.585938 110.769531 224.121094 110.105469 223.664062 C 109.4375 223.203125 108.859375 222.75 108.371094 222.304688 C 107.878906 221.863281 107.480469 221.425781 107.171875 221.003906 C 106.863281 220.578125 106.644531 220.164062 106.519531 219.765625 C 106.394531 219.363281 106.363281 218.976562 106.421875 218.605469 C 106.480469 218.230469 106.632812 217.875 106.875 217.53125 C 107.121094 217.191406 107.453125 216.863281 107.882812 216.558594 C 108.308594 216.25 108.820312 215.960938 109.425781 215.691406 C 110.03125 215.421875 110.71875 215.171875 111.496094 214.941406 C 112.273438 214.714844 113.128906 214.503906 114.070312 214.316406 C 115.011719 214.128906 116.03125 213.964844 117.125 213.820312 C 118.222656 213.675781 119.390625 213.558594 120.632812 213.460938 C 121.875 213.363281 123.179688 213.285156 124.554688 213.234375 C 125.929688 213.183594 127.363281 213.15625 128.859375 213.152344 C 130.351562 213.148438 131.898438 213.167969 133.5 213.210938 C 135.097656 213.25 136.742188 213.316406 138.433594 213.40625 C 140.125 213.496094 141.851562 213.609375 143.613281 213.742188 C 145.378906 213.878906 147.167969 214.035156 148.988281 214.214844 C 150.808594 214.394531 152.648438 214.59375 154.507812 214.816406 C 156.367188 215.039062 158.238281 215.28125 160.121094 215.542969 C 162 215.804688 163.882812 216.085938 165.765625 216.386719 Z M 165.765625 216.386719 " fill-opacity="1" fill-rule="nonzero"/><path fill="#e46750" d="M 146.550781 213.988281 C 132.777344 212.765625 121.191406 212.902344 114.058594 214.320312 L 127.414062 99.464844 C 135.855469 98.4375 147.085938 98.382812 159.878906 99.386719 Z M 146.550781 213.988281 " fill-opacity="1" fill-rule="nonzero"/><path fill="#e46750" d="M 222.183594 111 L 199.214844 223.953125 C 190.441406 221.230469 179.625 218.695312 167.789062 216.722656 L 190.824219 103.445312 C 202.4375 105.554688 213.121094 108.164062 222.183594 111 Z M 222.183594 111 " fill-opacity="1" fill-rule="nonzero"/><path fill="#e46750" d="M 250.910156 125.847656 L 221.484375 236.960938 C 221.769531 235.164062 219.9375 233.125 216.425781 231.011719 L 245.617188 121.027344 C 248.121094 122.667969 249.921875 124.289062 250.910156 125.847656 Z M 250.910156 125.847656 " fill-opacity="1" fill-rule="nonzero"/><path fill="#302f2f" d="M 252.78125 119.238281 C 249.375 113.867188 238.308594 109.066406 229.628906 105.988281 C 217.367188 101.640625 201.554688 97.800781 185.109375 95.175781 C 168.664062 92.554688 152.441406 91.285156 139.4375 91.601562 C 130.230469 91.828125 118.222656 92.945312 113.3125 96.988281 C 112.074219 98.003906 111.34375 99.171875 111.136719 100.457031 C 110.949219 101.640625 111.222656 102.871094 111.941406 104.117188 L 105.355469 218.535156 C 104.871094 222.21875 110.339844 226.195312 121.617188 230.359375 C 132.207031 234.269531 146.535156 237.777344 161.96875 240.238281 C 175.28125 242.363281 188.054688 243.492188 198.550781 243.492188 C 200.222656 243.492188 201.839844 243.464844 203.390625 243.40625 C 215.398438 242.957031 221.832031 240.878906 222.523438 237.230469 L 251.867188 126.4375 C 252.9375 125.476562 253.582031 124.394531 253.769531 123.210938 C 253.972656 121.925781 253.640625 120.589844 252.78125 119.238281 Z M 113.261719 100.796875 C 113.378906 100.046875 113.855469 99.324219 114.679688 98.648438 C 118.140625 95.792969 126.953125 94.054688 139.492188 93.75 C 152.371094 93.433594 168.449219 94.695312 184.769531 97.300781 C 201.09375 99.902344 216.765625 103.707031 228.910156 108.015625 C 240.730469 112.207031 248.5625 116.601562 250.964844 120.390625 C 251.539062 121.285156 251.765625 122.121094 251.644531 122.871094 C 251.574219 123.324219 251.367188 123.773438 251.035156 124.203125 C 251.007812 124.171875 250.980469 124.144531 250.957031 124.113281 C 250.890625 124.035156 250.820312 123.957031 250.753906 123.878906 C 246.492188 119.078125 236.585938 114.835938 228.664062 112.023438 C 228.492188 111.964844 228.316406 111.902344 228.144531 111.84375 C 228.09375 111.824219 228.042969 111.808594 227.992188 111.789062 C 227.726562 111.699219 227.464844 111.605469 227.199219 111.515625 C 227.152344 111.496094 227.101562 111.480469 227.054688 111.464844 C 226.617188 111.3125 226.171875 111.164062 225.722656 111.015625 C 225.578125 110.964844 225.433594 110.917969 225.285156 110.871094 C 225.125 110.816406 224.960938 110.761719 224.800781 110.710938 C 224.566406 110.632812 224.335938 110.558594 224.101562 110.480469 C 223.988281 110.445312 223.871094 110.410156 223.757812 110.371094 C 223.34375 110.238281 222.929688 110.105469 222.507812 109.976562 C 222.328125 109.917969 222.148438 109.863281 221.96875 109.808594 C 221.710938 109.730469 221.453125 109.648438 221.195312 109.570312 C 220.886719 109.476562 220.574219 109.382812 220.261719 109.289062 C 220.125 109.25 219.988281 109.207031 219.851562 109.167969 C 218.667969 108.816406 217.464844 108.464844 216.234375 108.125 C 216.222656 108.121094 216.210938 108.117188 216.199219 108.113281 C 209.992188 106.382812 203.273438 104.789062 196.320312 103.398438 C 196.316406 103.398438 196.3125 103.398438 196.308594 103.398438 C 195.015625 103.136719 193.710938 102.886719 192.402344 102.644531 C 192.070312 102.582031 191.734375 102.519531 191.402344 102.457031 C 191.273438 102.433594 191.144531 102.410156 191.015625 102.386719 C 190.871094 102.359375 190.71875 102.332031 190.570312 102.308594 C 190.363281 102.269531 190.160156 102.234375 189.953125 102.195312 C 189.613281 102.136719 189.277344 102.074219 188.933594 102.015625 C 188.730469 101.980469 188.523438 101.945312 188.316406 101.910156 C 188.011719 101.855469 187.707031 101.804688 187.398438 101.75 C 187.027344 101.6875 186.65625 101.625 186.285156 101.566406 C 186.136719 101.539062 185.988281 101.515625 185.835938 101.488281 C 185.273438 101.398438 184.710938 101.304688 184.144531 101.214844 C 183.167969 101.058594 182.1875 100.90625 181.210938 100.761719 C 180.8125 100.703125 180.417969 100.644531 180.019531 100.585938 C 179.472656 100.507812 178.925781 100.425781 178.382812 100.351562 C 177.785156 100.265625 177.191406 100.1875 176.59375 100.105469 C 176.269531 100.058594 175.941406 100.015625 175.617188 99.972656 C 174.902344 99.878906 174.191406 99.789062 173.480469 99.699219 C 173.292969 99.675781 173.105469 99.652344 172.917969 99.628906 C 172.117188 99.53125 171.320312 99.433594 170.527344 99.34375 C 170.445312 99.332031 170.363281 99.324219 170.28125 99.316406 C 166.792969 98.914062 163.34375 98.578125 159.960938 98.3125 C 149.792969 97.519531 140.539062 97.375 132.824219 97.886719 C 132.714844 97.894531 132.605469 97.902344 132.496094 97.910156 C 132.394531 97.917969 132.292969 97.921875 132.191406 97.929688 C 125.796875 98.386719 119.136719 99.390625 114.824219 101.484375 C 114.796875 101.496094 114.773438 101.511719 114.746094 101.523438 C 114.542969 101.621094 114.347656 101.722656 114.15625 101.828125 C 114.125 101.84375 114.09375 101.859375 114.066406 101.878906 C 113.855469 101.992188 113.652344 102.109375 113.457031 102.234375 C 113.449219 102.238281 113.4375 102.246094 113.429688 102.25 C 113.242188 101.738281 113.1875 101.25 113.261719 100.796875 Z M 114.078125 104.402344 C 114.085938 104.398438 114.09375 104.394531 114.101562 104.386719 C 114.242188 104.289062 114.386719 104.191406 114.539062 104.09375 C 114.554688 104.082031 114.574219 104.070312 114.589844 104.058594 C 117.121094 102.472656 121.558594 101.261719 127.542969 100.53125 C 129.082031 100.34375 130.710938 100.191406 132.414062 100.070312 C 132.515625 100.0625 132.613281 100.054688 132.714844 100.050781 C 132.863281 100.039062 133.019531 100.027344 133.171875 100.019531 C 133.417969 100.003906 133.667969 99.988281 133.921875 99.972656 C 133.964844 99.96875 134.007812 99.96875 134.054688 99.964844 C 135.484375 99.886719 136.976562 99.824219 138.527344 99.789062 C 145.292969 99.621094 152.941406 99.890625 161.042969 100.5625 C 161.207031 100.578125 161.367188 100.589844 161.53125 100.601562 C 162.371094 100.675781 163.214844 100.75 164.0625 100.828125 C 164.167969 100.839844 164.277344 100.847656 164.382812 100.859375 C 165.246094 100.941406 166.113281 101.027344 166.984375 101.117188 C 167.113281 101.128906 167.246094 101.144531 167.375 101.160156 C 168.183594 101.242188 168.996094 101.332031 169.808594 101.425781 C 170.054688 101.453125 170.296875 101.480469 170.539062 101.507812 C 171.210938 101.585938 171.882812 101.667969 172.558594 101.75 C 172.996094 101.804688 173.433594 101.859375 173.871094 101.914062 C 174.332031 101.972656 174.796875 102.03125 175.261719 102.09375 C 175.941406 102.183594 176.625 102.273438 177.304688 102.371094 C 177.527344 102.398438 177.75 102.429688 177.96875 102.460938 C 178.882812 102.589844 179.796875 102.722656 180.710938 102.859375 C 180.722656 102.859375 180.734375 102.863281 180.746094 102.863281 C 181.765625 103.015625 182.785156 103.175781 183.804688 103.335938 C 184.367188 103.425781 184.925781 103.519531 185.476562 103.609375 C 185.644531 103.636719 185.808594 103.664062 185.972656 103.691406 C 186.328125 103.75 186.683594 103.808594 187.03125 103.871094 C 187.332031 103.921875 187.628906 103.972656 187.929688 104.023438 C 188.144531 104.0625 188.363281 104.097656 188.578125 104.136719 C 188.894531 104.191406 189.210938 104.25 189.53125 104.304688 C 189.769531 104.347656 190.003906 104.390625 190.238281 104.433594 C 190.480469 104.476562 190.71875 104.519531 190.960938 104.5625 C 191.335938 104.632812 191.714844 104.703125 192.089844 104.773438 C 193.328125 105.003906 194.558594 105.242188 195.785156 105.484375 C 195.84375 105.496094 195.902344 105.507812 195.960938 105.519531 C 202.8125 106.890625 209.40625 108.457031 215.503906 110.152344 C 215.578125 110.171875 215.652344 110.195312 215.726562 110.214844 C 216.871094 110.535156 218 110.859375 219.105469 111.1875 C 219.300781 111.246094 219.492188 111.304688 219.683594 111.363281 C 219.960938 111.445312 220.238281 111.527344 220.511719 111.613281 C 220.824219 111.707031 221.132812 111.804688 221.445312 111.898438 C 221.628906 111.957031 221.816406 112.015625 222.003906 112.070312 C 222.011719 112.074219 222.019531 112.078125 222.03125 112.082031 C 222.375 112.191406 222.71875 112.296875 223.0625 112.40625 C 223.191406 112.449219 223.324219 112.492188 223.453125 112.535156 C 223.671875 112.605469 223.890625 112.675781 224.109375 112.746094 C 224.273438 112.800781 224.433594 112.851562 224.59375 112.90625 C 224.785156 112.96875 224.972656 113.03125 225.160156 113.09375 C 225.488281 113.203125 225.8125 113.3125 226.136719 113.421875 C 226.269531 113.46875 226.40625 113.515625 226.539062 113.558594 C 226.738281 113.628906 226.941406 113.699219 227.140625 113.769531 C 227.28125 113.816406 227.421875 113.867188 227.558594 113.914062 C 227.75 113.984375 227.941406 114.050781 228.132812 114.117188 C 228.28125 114.171875 228.429688 114.222656 228.578125 114.277344 C 228.871094 114.382812 229.160156 114.488281 229.449219 114.59375 C 229.617188 114.65625 229.78125 114.714844 229.949219 114.777344 C 230.117188 114.839844 230.285156 114.90625 230.453125 114.96875 C 230.59375 115.019531 230.730469 115.070312 230.867188 115.125 C 231.050781 115.191406 231.230469 115.261719 231.410156 115.332031 C 231.511719 115.371094 231.613281 115.40625 231.714844 115.445312 C 237.238281 117.585938 241.753906 119.777344 245.027344 121.925781 C 246.921875 123.167969 248.355469 124.363281 249.316406 125.5 C 249.347656 125.535156 249.378906 125.570312 249.40625 125.609375 C 249.507812 125.730469 249.597656 125.847656 249.6875 125.96875 C 249.707031 125.996094 249.730469 126.019531 249.746094 126.046875 L 221.289062 233.503906 C 220.910156 233.054688 220.445312 232.597656 219.898438 232.136719 C 219.828125 232.078125 219.753906 232.015625 219.679688 231.957031 C 219.613281 231.902344 219.546875 231.847656 219.476562 231.792969 C 216.796875 229.664062 212.394531 227.464844 206.292969 225.210938 C 206.238281 225.191406 206.179688 225.171875 206.121094 225.148438 C 206.101562 225.140625 206.078125 225.132812 206.058594 225.125 C 205.699219 224.996094 205.335938 224.863281 204.96875 224.730469 C 204.890625 224.703125 204.808594 224.675781 204.730469 224.648438 C 204.394531 224.53125 204.054688 224.410156 203.710938 224.292969 C 203.644531 224.269531 203.578125 224.246094 203.515625 224.226562 C 194.859375 221.261719 184.105469 218.570312 172.46875 216.449219 C 172.335938 216.421875 172.203125 216.398438 172.074219 216.375 C 171.457031 216.265625 170.839844 216.15625 170.222656 216.046875 C 170.054688 216.019531 169.886719 215.988281 169.71875 215.960938 C 169.289062 215.886719 168.855469 215.8125 168.421875 215.738281 C 168.269531 215.714844 168.117188 215.6875 167.964844 215.660156 C 167.851562 215.644531 167.742188 215.625 167.628906 215.605469 C 167.070312 215.515625 166.507812 215.421875 165.941406 215.332031 C 164.296875 215.070312 162.660156 214.824219 161.03125 214.59375 C 161.019531 214.589844 161.003906 214.589844 160.992188 214.585938 C 151.089844 213.175781 141.617188 212.339844 133.3125 212.132812 C 133.273438 212.128906 133.230469 212.128906 133.191406 212.128906 C 132.898438 212.121094 132.609375 212.113281 132.320312 212.109375 C 131.285156 212.089844 130.273438 212.078125 129.285156 212.078125 C 126.421875 212.078125 123.765625 212.164062 121.335938 212.335938 C 121.265625 212.339844 121.199219 212.34375 121.128906 212.347656 C 120.925781 212.363281 120.726562 212.378906 120.523438 212.394531 C 120.28125 212.414062 120.039062 212.433594 119.800781 212.453125 C 119.789062 212.457031 119.777344 212.457031 119.765625 212.457031 C 115.867188 212.796875 112.75 213.363281 110.421875 214.152344 C 110.316406 214.1875 110.210938 214.222656 110.105469 214.261719 C 110.078125 214.273438 110.042969 214.28125 110.015625 214.292969 C 109.105469 214.621094 108.332031 214.984375 107.691406 215.382812 Z M 203.308594 241.257812 C 192.167969 241.671875 177.605469 240.558594 162.308594 238.117188 C 147.007812 235.675781 132.824219 232.207031 122.363281 228.34375 C 110.949219 224.128906 107.195312 220.640625 107.488281 218.78125 C 107.488281 218.777344 107.488281 218.777344 107.488281 218.777344 C 107.488281 218.773438 107.492188 218.769531 107.492188 218.769531 C 107.5 218.722656 107.507812 218.679688 107.523438 218.636719 C 107.730469 217.925781 108.84375 216.449219 114.269531 215.375 C 115.375 215.15625 116.582031 214.964844 117.886719 214.808594 C 117.960938 214.800781 118.039062 214.792969 118.117188 214.785156 C 118.273438 214.765625 118.433594 214.746094 118.589844 214.730469 C 120.351562 214.542969 122.347656 214.398438 124.601562 214.316406 C 126.128906 214.257812 127.722656 214.230469 129.371094 214.230469 C 131.207031 214.230469 133.121094 214.265625 135.09375 214.335938 C 135.398438 214.347656 135.703125 214.359375 136.011719 214.371094 C 136.300781 214.382812 136.589844 214.394531 136.878906 214.40625 C 139.921875 214.546875 143.121094 214.761719 146.457031 215.058594 C 152.609375 215.601562 159.050781 216.410156 165.601562 217.453125 C 166.152344 217.542969 166.699219 217.632812 167.246094 217.722656 C 167.539062 217.769531 167.832031 217.820312 168.125 217.867188 C 168.5 217.929688 168.871094 217.996094 169.246094 218.058594 C 169.457031 218.09375 169.664062 218.132812 169.875 218.167969 C 170.472656 218.273438 171.066406 218.378906 171.660156 218.484375 C 171.808594 218.511719 171.957031 218.539062 172.101562 218.566406 C 181.871094 220.351562 191.058594 222.546875 198.898438 224.980469 C 200.242188 225.398438 201.539062 225.820312 202.785156 226.246094 C 202.859375 226.273438 202.933594 226.296875 203.007812 226.324219 C 203.3125 226.429688 203.617188 226.535156 203.914062 226.640625 C 204.035156 226.683594 204.160156 226.726562 204.277344 226.769531 C 204.539062 226.863281 204.796875 226.953125 205.054688 227.046875 C 205.175781 227.09375 205.300781 227.136719 205.421875 227.183594 C 205.691406 227.28125 205.953125 227.378906 206.214844 227.476562 C 206.320312 227.515625 206.429688 227.554688 206.53125 227.597656 C 210.351562 229.050781 213.519531 230.515625 215.871094 231.933594 C 218.574219 233.558594 220.183594 235.117188 220.410156 236.304688 C 220.410156 236.308594 220.410156 236.308594 220.410156 236.308594 C 220.425781 236.382812 220.433594 236.457031 220.4375 236.53125 C 220.4375 236.542969 220.4375 236.558594 220.4375 236.570312 C 220.441406 236.648438 220.433594 236.722656 220.425781 236.792969 C 220.425781 236.792969 220.425781 236.792969 220.425781 236.796875 C 220.125 238.65625 215.472656 240.804688 203.308594 241.257812 Z M 203.308594 241.257812 " fill-opacity="1" fill-rule="nonzero"/><path fill="#f8be52" d="M 202.394531 167.167969 C 198.859375 169.464844 193.089844 170.394531 186.574219 169.722656 C 179.511719 168.992188 173.246094 166.601562 169.824219 163.328125 L 169.792969 163.296875 C 165.097656 158.714844 162.4375 151.136719 162.261719 143.410156 L 162.265625 143.390625 C 162.300781 143.050781 162.296875 142.734375 162.253906 142.429688 L 162.253906 142.414062 C 161.695312 138.058594 154.203125 137.097656 152.25 140.835938 C 152.019531 141.269531 151.871094 141.765625 151.8125 142.328125 C 149.65625 149.1875 145.46875 155.296875 140.386719 158.199219 L 140.347656 158.214844 C 136.082031 160.59375 130.457031 160.433594 127.484375 160.125 C 127.480469 160.125 127.480469 160.125 127.480469 160.125 C 120.5625 159.40625 114.742188 156.8125 111.902344 153.183594 C 107.476562 147.515625 104.796875 136.824219 108.785156 125.699219 C 110.207031 121.753906 113.136719 118.628906 116.832031 117.125 C 121.585938 115.191406 127.765625 114.441406 133.785156 115.0625 C 139.324219 115.636719 144.265625 117.328125 147.699219 119.824219 C 150.386719 121.773438 160.675781 126.421875 171.617188 122.3125 C 175.164062 120.980469 182.109375 120.0625 186.980469 120.566406 C 195.085938 121.402344 203.234375 124.386719 208.78125 128.554688 C 212.339844 131.222656 214.546875 135.328125 214.832031 139.816406 C 215.65625 152.59375 209.175781 162.765625 202.394531 167.167969 Z M 202.394531 167.167969 " fill-opacity="1" fill-rule="nonzero"/><path fill="#302f2f" d="M 190.609375 171.007812 C 189.269531 171.007812 187.882812 170.9375 186.460938 170.789062 C 179.167969 170.035156 172.671875 167.535156 169.082031 164.105469 L 169.046875 164.074219 C 164.308594 159.449219 161.375 151.734375 161.1875 143.433594 C 161.1875 143.382812 161.1875 143.335938 161.195312 143.289062 C 161.222656 143.03125 161.21875 142.800781 161.1875 142.574219 C 161.183594 142.546875 161.179688 142.519531 161.179688 142.492188 C 160.925781 140.820312 159.28125 139.945312 157.8125 139.683594 C 156.160156 139.390625 154.011719 139.78125 153.199219 141.335938 C 153.027344 141.660156 152.921875 142.027344 152.878906 142.4375 C 152.871094 142.511719 152.859375 142.582031 152.835938 142.652344 C 150.515625 150.035156 146.058594 156.195312 140.917969 159.128906 C 140.910156 159.136719 140.902344 159.140625 140.890625 159.144531 L 140.855469 159.164062 C 136.351562 161.675781 130.484375 161.515625 127.382812 161.195312 C 127.375 161.195312 127.371094 161.195312 127.367188 161.195312 C 120.167969 160.445312 114.070312 157.699219 111.054688 153.847656 C 106.449219 147.949219 103.648438 136.847656 107.773438 125.335938 C 109.296875 121.101562 112.449219 117.746094 116.425781 116.128906 C 121.335938 114.132812 127.707031 113.355469 133.894531 113.996094 C 139.621094 114.585938 144.746094 116.347656 148.332031 118.953125 C 150.429688 120.480469 160.472656 125.347656 171.238281 121.304688 C 175.210938 119.8125 182.320312 119 187.089844 119.496094 C 195.382812 120.351562 203.734375 123.417969 209.425781 127.691406 C 213.234375 130.550781 215.597656 134.945312 215.902344 139.75 C 216.753906 152.960938 210.027344 163.492188 202.980469 168.070312 C 200.027344 169.988281 195.648438 171.007812 190.609375 171.007812 Z M 163.339844 143.449219 C 163.527344 151.179688 166.21875 158.308594 170.542969 162.527344 L 170.566406 162.554688 C 173.824219 165.664062 179.847656 167.945312 186.683594 168.652344 C 192.960938 169.300781 198.476562 168.433594 201.808594 166.265625 C 208.332031 162.03125 214.554688 152.234375 213.761719 139.886719 C 213.496094 135.710938 211.445312 131.894531 208.136719 129.414062 C 202.742188 125.359375 194.792969 122.453125 186.871094 121.632812 C 181.996094 121.128906 175.246094 122.097656 171.996094 123.316406 C 160.527344 127.625 149.890625 122.742188 147.070312 120.695312 C 143.785156 118.308594 139.03125 116.6875 133.675781 116.132812 C 127.824219 115.527344 121.832031 116.253906 117.238281 118.121094 C 113.824219 119.507812 111.117188 122.402344 109.800781 126.0625 C 105.949219 136.800781 108.507812 147.089844 112.75 152.523438 C 115.410156 155.921875 120.953125 158.363281 127.578125 159.054688 C 127.585938 159.058594 127.589844 159.058594 127.59375 159.058594 C 130.441406 159.351562 135.816406 159.511719 139.828125 157.277344 L 139.867188 157.257812 C 144.523438 154.59375 148.585938 148.9375 150.757812 142.105469 C 150.835938 141.464844 151.019531 140.871094 151.300781 140.335938 C 152.621094 137.8125 155.714844 137.128906 158.195312 137.570312 C 161.007812 138.074219 163.019531 139.921875 163.320312 142.28125 C 163.324219 142.308594 163.328125 142.339844 163.328125 142.367188 C 163.371094 142.71875 163.375 143.082031 163.339844 143.449219 Z M 163.339844 143.449219 " fill-opacity="1" fill-rule="nonzero"/><path fill="#302f2f" d="M 209.410156 140.609375 C 209.199219 137.320312 207.585938 134.3125 204.980469 132.359375 C 197.425781 126.6875 184.332031 124.019531 176.390625 126.527344 C 173.3125 127.5 170.8125 129.808594 169.53125 132.859375 C 165.792969 141.746094 167.605469 153.710938 173.582031 159.542969 C 177.019531 162.832031 184.0625 164.742188 190.28125 164.742188 C 193.929688 164.742188 197.289062 164.085938 199.476562 162.664062 C 204.898438 159.140625 210.074219 150.957031 209.410156 140.609375 Z M 209.410156 140.609375 " fill-opacity="1" fill-rule="nonzero"/><path fill="#302f2f" d="M 148.375 131.097656 C 148.117188 128.027344 146.644531 125.308594 144.339844 123.632812 C 138.414062 119.328125 126.859375 118.351562 119.109375 121.503906 C 116.429688 122.59375 114.300781 124.875 113.261719 127.769531 C 110.007812 136.835938 112.128906 145.472656 115.679688 150.015625 C 118.304688 153.375 124.839844 155.460938 130.636719 155.460938 C 133.457031 155.460938 136.105469 154.96875 138.042969 153.890625 C 144.488281 150.207031 149.125 139.984375 148.375 131.097656 Z M 148.375 131.097656 " fill-opacity="1" fill-rule="nonzero"/><path fill="#ffffff" d="M 198.742188 273.292969 C 198.625 270.710938 197.167969 268.375 194.917969 267.105469 C 191.390625 265.121094 187.613281 263.457031 184.230469 262.441406 C 183.472656 261.128906 182.257812 260.089844 180.59375 259.367188 C 175.933594 257.34375 173.085938 261.191406 169.964844 266.902344 C 167.605469 271.214844 167.515625 274.847656 168.699219 277.140625 L 162.4375 287.46875 C 146.234375 285.417969 140.8125 310.71875 157.734375 316.878906 C 184.0625 326.460938 199.816406 296.804688 198.742188 273.292969 Z M 198.742188 273.292969 " fill-opacity="1" fill-rule="nonzero"/><path fill="#302f2f" d="M 199.816406 273.242188 C 199.679688 270.28125 198.046875 267.636719 195.445312 266.167969 C 191.886719 264.164062 188.214844 262.554688 184.929688 261.53125 C 184.046875 260.191406 182.722656 259.121094 181.019531 258.382812 C 175.335938 255.914062 171.972656 260.984375 169.023438 266.386719 C 166.523438 270.957031 166.5 274.617188 167.496094 277.058594 L 161.875 286.332031 C 153.589844 285.636719 148.351562 291.582031 146.8125 297.941406 C 145.085938 305.070312 147.652344 314.355469 157.367188 317.890625 C 160.855469 319.160156 164.285156 319.792969 167.59375 319.792969 C 173.019531 319.792969 178.132812 318.097656 182.707031 314.734375 C 193.53125 306.78125 200.566406 289.71875 199.816406 273.242188 Z M 181.4375 313.003906 C 174.671875 317.972656 166.605469 318.964844 158.101562 315.871094 C 149.628906 312.785156 147.394531 304.675781 148.902344 298.445312 C 150.152344 293.28125 154.214844 288.425781 160.617188 288.425781 C 161.140625 288.425781 161.675781 288.460938 162.226562 288.527344 C 162.226562 288.527344 162.230469 288.527344 162.230469 288.527344 C 162.871094 288.726562 167.078125 290.195312 168.085938 294.960938 C 168.191406 295.464844 168.636719 295.8125 169.136719 295.8125 C 169.207031 295.8125 169.285156 295.804688 169.359375 295.789062 C 169.941406 295.664062 170.3125 295.097656 170.1875 294.515625 C 169.21875 289.933594 165.898438 287.792969 164.023438 286.929688 L 168.777344 279.085938 C 168.863281 279.179688 168.953125 279.265625 169.042969 279.351562 C 170.117188 280.339844 171.449219 280.832031 172.886719 280.832031 C 174.3125 280.832031 175.835938 280.347656 177.308594 279.375 C 177.804688 279.046875 177.941406 278.382812 177.613281 277.886719 C 177.285156 277.390625 176.621094 277.253906 176.125 277.582031 C 174 278.984375 171.894531 279.054688 170.496094 277.769531 C 170.300781 277.589844 170.117188 277.378906 169.957031 277.140625 C 169.488281 276.46875 169.171875 275.578125 169.074219 274.503906 C 168.898438 272.628906 169.382812 270.199219 170.90625 267.417969 C 174.613281 260.636719 176.863281 258.917969 180.167969 260.351562 C 180.359375 260.4375 180.539062 260.523438 180.714844 260.617188 C 182.011719 261.285156 182.945312 262.199219 183.492188 263.34375 C 183.65625 263.675781 183.785156 264.03125 183.882812 264.40625 C 184.367188 266.300781 184.003906 268.730469 182.828125 271.4375 C 182.59375 271.980469 182.84375 272.613281 183.390625 272.851562 C 183.933594 273.085938 184.566406 272.835938 184.800781 272.289062 C 186.132812 269.226562 186.546875 266.496094 186.035156 264.167969 C 188.703125 265.132812 191.574219 266.457031 194.390625 268.039062 C 196.34375 269.140625 197.566406 271.121094 197.667969 273.339844 C 198.390625 289.140625 191.714844 305.449219 181.4375 313.003906 Z M 181.4375 313.003906 " fill-opacity="1" fill-rule="nonzero"/><path fill="#302f2f" d="M 174.839844 272.390625 C 174.25 272.390625 173.652344 272.261719 173.089844 271.988281 C 157.078125 264.269531 150.753906 252.417969 148.269531 243.835938 C 145.574219 234.539062 146.710938 227.03125 146.757812 226.714844 C 147.105469 224.515625 149.167969 223.015625 151.367188 223.363281 C 153.558594 223.707031 155.058594 225.761719 154.722656 227.957031 C 154.703125 228.089844 153.828125 234.320312 156.101562 241.910156 C 159.109375 251.945312 166.003906 259.625 176.589844 264.730469 C 178.59375 265.695312 179.4375 268.105469 178.46875 270.109375 C 177.777344 271.550781 176.335938 272.390625 174.839844 272.390625 Z M 174.839844 272.390625 " fill-opacity="1" fill-rule="nonzero"/><path fill="#302f2f" d="M 140.046875 281.160156 C 138.6875 281.160156 137.363281 280.472656 136.605469 279.230469 C 135.445312 277.335938 136.039062 274.863281 137.929688 273.699219 C 138.050781 273.621094 142.890625 270.542969 148.445312 263.597656 C 153.605469 257.148438 160.464844 245.933594 163.839844 229.136719 C 164.277344 226.953125 166.398438 225.539062 168.582031 225.976562 C 170.765625 226.417969 172.179688 228.539062 171.742188 230.722656 C 164.558594 266.5 143.058594 280.007812 142.144531 280.566406 C 141.488281 280.96875 140.761719 281.160156 140.046875 281.160156 Z M 140.046875 281.160156 " fill-opacity="1" fill-rule="nonzero"/><path fill="#ffffff" d="M 141.328125 271.722656 C 137.21875 268.160156 132.363281 270.910156 132.363281 270.910156 C 129.246094 263.640625 130.007812 256.863281 121.253906 252.898438 C 112.566406 248.96875 103.679688 254.628906 100.171875 257.328125 C 99.628906 257.691406 99.109375 258.121094 98.621094 258.613281 C 98.617188 258.617188 98.613281 258.621094 98.613281 258.621094 C 94.429688 262.847656 92.542969 271.640625 98.003906 282.714844 C 107.652344 302.285156 125.828125 312.03125 138.761719 301.84375 C 146.410156 296.585938 143.824219 286.949219 143.824219 286.949219 C 148.617188 284.136719 146.816406 276.480469 141.328125 271.722656 Z M 141.328125 271.722656 " fill-opacity="1" fill-rule="nonzero"/><path fill="#302f2f" d="M 142.03125 270.910156 C 138.605469 267.9375 134.785156 268.785156 132.941406 269.472656 C 132.355469 267.949219 131.914062 266.4375 131.484375 264.96875 C 129.992188 259.859375 128.582031 255.035156 121.699219 251.921875 C 112.34375 247.6875 103.007812 253.738281 99.410156 256.550781 C 99.402344 256.554688 99.394531 256.5625 99.386719 256.566406 C 98.914062 256.898438 98.460938 257.273438 98.035156 257.695312 C 98.015625 257.707031 97.996094 257.726562 97.980469 257.742188 C 97.933594 257.789062 97.898438 257.820312 97.878906 257.835938 C 97.839844 257.871094 97.804688 257.910156 97.773438 257.953125 C 96.589844 259.167969 95.605469 260.691406 94.894531 262.4375 C 93.527344 265.789062 91.988281 272.945312 97.039062 283.191406 C 103.128906 295.542969 112.625 304.246094 122.433594 306.464844 C 124.050781 306.832031 125.644531 307.015625 127.207031 307.015625 C 131.628906 307.015625 135.785156 305.554688 139.421875 302.695312 C 139.421875 302.695312 139.425781 302.691406 139.429688 302.6875 C 146.242188 297.960938 145.464844 289.949219 145.023438 287.445312 C 146.546875 286.304688 147.449219 284.636719 147.636719 282.574219 C 147.988281 278.746094 145.789062 274.164062 142.03125 270.910156 Z M 96.882812 263.246094 C 97.347656 262.117188 97.9375 261.097656 98.628906 260.230469 C 98.824219 259.980469 99.03125 259.742188 99.246094 259.519531 C 99.742188 258.996094 100.277344 258.542969 100.84375 258.175781 C 100.847656 258.167969 100.847656 258.167969 100.851562 258.167969 C 101.378906 257.820312 101.929688 257.542969 102.503906 257.339844 C 104.429688 256.664062 106.164062 256.355469 107.730469 256.355469 C 111.730469 256.355469 114.65625 258.359375 116.988281 261.292969 C 108.988281 263.027344 99.378906 268.410156 95.71875 270.582031 C 95.585938 267.265625 96.25 264.796875 96.882812 263.246094 Z M 99.394531 283.078125 C 102.234375 281.203125 112.433594 274.730469 122.519531 271.464844 C 122.675781 271.828125 122.832031 272.191406 122.988281 272.550781 C 123.730469 274.269531 124.4375 275.90625 125.167969 277.375 C 117.125 281.570312 106.449219 287.898438 103.398438 289.71875 C 101.953125 287.667969 100.609375 285.449219 99.394531 283.078125 Z M 98.441406 281.128906 C 97.050781 278.066406 96.292969 275.339844 95.945312 272.957031 C 98.597656 271.351562 109.882812 264.742188 118.355469 263.214844 C 119.589844 265.132812 120.65625 267.292969 121.644531 269.488281 C 111.527344 272.800781 101.636719 279.023438 98.441406 281.128906 Z M 104.683594 291.457031 C 107.9375 289.511719 118.339844 283.359375 126.179688 279.273438 C 127.265625 281.140625 128.449219 282.585938 129.890625 283.363281 C 130.570312 283.726562 131.242188 284.167969 131.898438 284.667969 C 124.386719 290.738281 113.167969 296.332031 110.457031 297.644531 C 108.421875 295.867188 106.484375 293.789062 104.683594 291.457031 Z M 112.289062 299.144531 C 116.148438 297.242188 126.429688 291.941406 133.554688 286.09375 C 135.230469 287.695312 136.714844 289.636719 137.792969 291.617188 C 131.257812 298.46875 121.457031 302.519531 119.464844 303.296875 C 117.007812 302.324219 114.597656 300.921875 112.289062 299.144531 Z M 122.910156 304.367188 C 122.820312 304.347656 122.730469 304.320312 122.640625 304.300781 C 126.464844 302.601562 133.421875 299.042969 138.769531 293.695312 C 139.195312 294.792969 139.472656 295.863281 139.558594 296.859375 C 139.683594 298.292969 139.417969 299.453125 138.765625 300.316406 C 138.574219 300.570312 138.351562 300.796875 138.097656 300.996094 C 137.777344 301.25 137.453125 301.488281 137.125 301.714844 C 132.941406 304.613281 128.050781 305.535156 122.910156 304.367188 Z M 145.496094 282.378906 C 145.382812 283.613281 144.933594 284.613281 144.15625 285.367188 L 142.5 282.476562 C 142.203125 281.964844 141.550781 281.785156 141.035156 282.082031 C 140.519531 282.375 140.339844 283.03125 140.636719 283.546875 L 142.816406 287.351562 C 142.820312 287.355469 142.820312 287.355469 142.820312 287.355469 C 143.023438 288.214844 143.964844 292.851562 141.722656 297.015625 C 141.71875 296.902344 141.710938 296.789062 141.703125 296.667969 C 141.226562 291.230469 136.386719 284.410156 130.90625 281.46875 C 128.660156 280.261719 126.863281 276.101562 124.960938 271.699219 C 123.503906 268.324219 121.898438 264.625 119.800781 261.503906 C 119.78125 261.476562 119.761719 261.449219 119.746094 261.421875 C 118.972656 260.28125 118.132812 259.222656 117.210938 258.285156 C 114.492188 255.542969 111.394531 254.171875 107.832031 254.171875 C 107.792969 254.171875 107.757812 254.171875 107.722656 254.175781 C 111.546875 252.613281 116.238281 251.808594 120.8125 253.878906 C 126.792969 256.585938 127.953125 260.550781 129.421875 265.570312 C 129.960938 267.410156 130.515625 269.316406 131.359375 271.289062 C 131.359375 271.296875 131.363281 271.304688 131.367188 271.3125 C 131.480469 271.609375 132.382812 274.039062 132.886719 275.335938 C 133.054688 275.757812 133.460938 276.019531 133.890625 276.019531 C 134.019531 276.019531 134.152344 275.996094 134.28125 275.945312 C 134.832031 275.730469 135.105469 275.105469 134.890625 274.554688 C 134.558594 273.707031 134.058594 272.371094 133.722656 271.472656 C 135.125 270.949219 138.046875 270.300781 140.625 272.53125 C 143.824219 275.304688 145.78125 279.261719 145.496094 282.378906 Z M 145.496094 282.378906 " fill-opacity="1" fill-rule="nonzero"/><path fill="#302f2f" d="M 172.164062 182.878906 C 166.765625 177.089844 170.949219 170.433594 171.136719 170.144531 C 171.460938 169.644531 171.320312 168.980469 170.824219 168.65625 C 170.328125 168.332031 169.660156 168.472656 169.335938 168.96875 C 169.300781 169.023438 167.15625 172.394531 167.300781 176.65625 C 159.734375 179.457031 153.226562 179.710938 148.464844 177.386719 C 144.855469 175.621094 143.464844 172.957031 143.449219 172.929688 C 143.183594 172.402344 142.539062 172.1875 142.011719 172.453125 C 141.480469 172.714844 141.265625 173.363281 141.527344 173.894531 C 141.59375 174.023438 143.183594 177.144531 147.375 179.246094 C 149.367188 180.242188 152.179688 181.109375 155.953125 181.109375 C 159.125 181.109375 162.976562 180.496094 167.585938 178.84375 C 168 180.648438 168.902344 182.539062 170.589844 184.34375 C 170.800781 184.570312 171.085938 184.6875 171.375 184.6875 C 171.636719 184.6875 171.898438 184.589844 172.109375 184.398438 C 172.542969 183.992188 172.566406 183.3125 172.164062 182.878906 Z M 172.164062 182.878906 " fill-opacity="1" fill-rule="nonzero"/><path fill="#f8be52" d="M 138.90625 177.125 C 138.570312 177.410156 138.417969 177.898438 138.539062 178.328125 C 138.636719 178.675781 138.890625 178.957031 139.144531 179.210938 C 139.449219 179.523438 139.785156 179.828125 140.199219 179.964844 C 140.617188 180.097656 141.128906 180.015625 141.390625 179.664062 C 141.601562 179.375 141.59375 178.988281 141.582031 178.632812 C 141.5625 178.191406 141.535156 177.71875 141.265625 177.371094 C 140.960938 176.972656 140.4375 176.746094 139.933594 176.730469 C 139.660156 176.722656 139.246094 176.835938 138.90625 177.125 Z M 138.90625 177.125 " fill-opacity="1" fill-rule="nonzero"/><path fill="#302f2f" d="M 141.871094 177.714844 C 141.75 177.28125 141.480469 176.941406 141.113281 176.691406 C 140.761719 176.457031 140.300781 176.320312 139.878906 176.328125 C 139.410156 176.339844 138.980469 176.546875 138.621094 176.839844 C 138.601562 176.855469 138.582031 176.878906 138.566406 176.902344 C 138.285156 177.179688 138.121094 177.558594 138.097656 177.953125 C 138.070312 178.363281 138.238281 178.75 138.480469 179.070312 C 138.964844 179.703125 139.660156 180.359375 140.488281 180.425781 C 140.882812 180.457031 141.300781 180.328125 141.585938 180.050781 C 141.898438 179.75 141.984375 179.308594 141.988281 178.890625 C 141.992188 178.503906 141.976562 178.089844 141.871094 177.714844 Z M 141.121094 179.332031 C 141.070312 179.445312 141.007812 179.496094 140.921875 179.546875 C 140.863281 179.582031 140.714844 179.617188 140.652344 179.621094 C 140.410156 179.632812 140.191406 179.550781 139.960938 179.398438 C 139.722656 179.238281 139.515625 179.023438 139.320312 178.816406 C 139.210938 178.703125 139.109375 178.585938 139.03125 178.449219 C 138.960938 178.335938 138.910156 178.191406 138.902344 178.09375 C 138.882812 177.820312 138.984375 177.59375 139.191406 177.410156 C 139.28125 177.335938 139.417969 177.261719 139.507812 177.222656 C 139.5625 177.199219 139.625 177.183594 139.683594 177.167969 C 139.710938 177.160156 139.742188 177.152344 139.769531 177.148438 C 139.785156 177.144531 139.792969 177.140625 139.800781 177.140625 C 139.804688 177.140625 139.8125 177.140625 139.824219 177.136719 C 140.0625 177.128906 140.300781 177.171875 140.515625 177.277344 C 140.746094 177.394531 140.941406 177.546875 141.046875 177.789062 C 141.148438 178.019531 141.164062 178.296875 141.175781 178.558594 C 141.1875 178.8125 141.210938 179.113281 141.121094 179.332031 Z M 141.121094 179.332031 " fill-opacity="1" fill-rule="nonzero"/><path fill="#f8be52" d="M 175.839844 175.371094 C 175.496094 175.367188 175.175781 175.570312 175.050781 175.875 C 174.949219 176.125 174.976562 176.410156 175.011719 176.6875 C 175.058594 177.019531 175.125 177.363281 175.320312 177.648438 C 175.511719 177.9375 175.871094 178.148438 176.195312 178.078125 C 176.460938 178.019531 176.636719 177.792969 176.792969 177.582031 C 176.988281 177.320312 177.1875 177.035156 177.1875 176.699219 C 177.183594 176.316406 176.960938 175.925781 176.65625 175.664062 C 176.488281 175.519531 176.183594 175.378906 175.839844 175.371094 Z M 175.839844 175.371094 " fill-opacity="1" fill-rule="nonzero"/><path fill="#302f2f" d="M 177.507812 176.226562 C 177.394531 175.894531 177.1875 175.582031 176.917969 175.359375 C 176.632812 175.125 176.285156 175.007812 175.921875 174.980469 C 175.894531 174.972656 175.867188 174.96875 175.839844 174.96875 C 175.808594 174.96875 175.78125 174.972656 175.753906 174.976562 C 175.457031 174.996094 175.179688 175.109375 174.957031 175.3125 C 174.699219 175.554688 174.585938 175.898438 174.578125 176.246094 C 174.566406 176.582031 174.625 176.945312 174.714844 177.269531 C 174.800781 177.589844 174.957031 177.910156 175.207031 178.132812 C 175.445312 178.347656 175.769531 178.511719 176.097656 178.492188 C 176.4375 178.472656 176.726562 178.296875 176.941406 178.039062 C 177.144531 177.800781 177.34375 177.535156 177.46875 177.242188 C 177.609375 176.917969 177.625 176.5625 177.507812 176.226562 Z M 176.78125 176.632812 C 176.78125 176.617188 176.78125 176.609375 176.78125 176.632812 Z M 175.46875 175.949219 C 175.445312 175.984375 175.457031 175.964844 175.46875 175.949219 Z M 175.925781 177.660156 C 175.941406 177.664062 175.964844 177.679688 175.925781 177.660156 Z M 176.777344 176.78125 C 176.738281 176.976562 176.621094 177.140625 176.484375 177.324219 C 176.457031 177.359375 176.433594 177.394531 176.40625 177.429688 C 176.402344 177.4375 176.386719 177.453125 176.382812 177.457031 C 176.367188 177.476562 176.351562 177.496094 176.332031 177.515625 C 176.300781 177.550781 176.265625 177.582031 176.234375 177.617188 C 176.226562 177.621094 176.226562 177.621094 176.226562 177.625 C 176.222656 177.625 176.226562 177.625 176.222656 177.625 C 176.203125 177.640625 176.179688 177.652344 176.15625 177.664062 C 176.160156 177.660156 176.109375 177.679688 176.097656 177.683594 C 176.082031 177.6875 176.066406 177.6875 176.0625 177.6875 C 176.054688 177.6875 176.03125 177.6875 176.015625 177.683594 C 176.007812 177.683594 176 177.679688 175.996094 177.679688 C 175.972656 177.675781 175.949219 177.667969 175.921875 177.660156 C 175.917969 177.65625 175.917969 177.65625 175.910156 177.652344 C 175.882812 177.632812 175.851562 177.617188 175.824219 177.597656 C 175.8125 177.589844 175.800781 177.582031 175.789062 177.574219 C 175.78125 177.570312 175.761719 177.554688 175.761719 177.550781 C 175.742188 177.53125 175.722656 177.511719 175.703125 177.492188 C 175.699219 177.488281 175.683594 177.46875 175.675781 177.464844 C 175.617188 177.382812 175.5625 177.277344 175.539062 177.210938 C 175.503906 177.109375 175.476562 177.003906 175.453125 176.898438 C 175.433594 176.792969 175.410156 176.660156 175.402344 176.589844 C 175.386719 176.453125 175.375 176.3125 175.386719 176.175781 C 175.386719 176.167969 175.386719 176.164062 175.386719 176.160156 C 175.390625 176.152344 175.390625 176.148438 175.390625 176.140625 C 175.398438 176.101562 175.410156 176.0625 175.421875 176.027344 C 175.40625 176.066406 175.457031 175.96875 175.46875 175.945312 C 175.472656 175.941406 175.472656 175.941406 175.476562 175.9375 C 175.496094 175.914062 175.519531 175.894531 175.542969 175.871094 C 175.546875 175.867188 175.542969 175.871094 175.546875 175.867188 C 175.546875 175.867188 175.546875 175.867188 175.550781 175.863281 C 175.578125 175.847656 175.605469 175.832031 175.632812 175.816406 C 175.636719 175.8125 175.644531 175.808594 175.65625 175.808594 C 175.675781 175.800781 175.695312 175.792969 175.714844 175.789062 C 175.730469 175.785156 175.75 175.78125 175.765625 175.777344 C 175.773438 175.777344 175.828125 175.773438 175.839844 175.773438 C 175.941406 175.777344 176.007812 175.789062 176.125 175.828125 C 176.140625 175.832031 176.25 175.878906 176.207031 175.855469 C 176.257812 175.882812 176.308594 175.910156 176.359375 175.941406 C 176.363281 175.945312 176.375 175.953125 176.386719 175.960938 C 176.394531 175.96875 176.402344 175.976562 176.402344 175.976562 C 176.445312 176.019531 176.488281 176.058594 176.527344 176.101562 C 176.542969 176.121094 176.558594 176.136719 176.574219 176.15625 C 176.574219 176.160156 176.578125 176.164062 176.585938 176.175781 C 176.621094 176.226562 176.65625 176.285156 176.6875 176.339844 C 176.699219 176.363281 176.710938 176.386719 176.71875 176.410156 C 176.71875 176.410156 176.722656 176.414062 176.722656 176.421875 C 176.742188 176.46875 176.753906 176.515625 176.765625 176.5625 C 176.773438 176.589844 176.777344 176.613281 176.78125 176.640625 C 176.78125 176.648438 176.78125 176.652344 176.78125 176.660156 C 176.78125 176.691406 176.785156 176.71875 176.78125 176.746094 C 176.78125 176.753906 176.777344 176.769531 176.777344 176.78125 Z M 176.777344 176.78125 " fill-opacity="1" fill-rule="nonzero"/><path fill="#f8be52" d="M 183.070312 180.785156 C 182.628906 180.441406 182.074219 180.417969 181.707031 180.726562 C 181.410156 180.976562 181.25 181.410156 181.113281 181.832031 C 180.949219 182.34375 180.804688 182.890625 180.867188 183.484375 C 180.925781 184.078125 181.25 184.722656 181.71875 184.9375 C 182.101562 185.113281 182.480469 184.96875 182.828125 184.824219 C 183.257812 184.644531 183.710938 184.441406 183.929688 183.964844 C 184.183594 183.421875 184.15625 182.65625 183.9375 181.992188 C 183.816406 181.628906 183.511719 181.128906 183.070312 180.785156 Z M 183.070312 180.785156 " fill-opacity="1" fill-rule="nonzero"/><path fill="#302f2f" d="M 183.355469 180.5 C 183.34375 180.488281 183.328125 180.480469 183.3125 180.472656 C 183.300781 180.460938 183.289062 180.449219 183.273438 180.4375 C 182.886719 180.152344 182.371094 180.023438 181.90625 180.167969 C 181.453125 180.3125 181.148438 180.683594 180.957031 181.105469 C 180.554688 182 180.261719 183.121094 180.585938 184.085938 C 180.730469 184.515625 180.972656 184.929688 181.351562 185.191406 C 181.792969 185.496094 182.324219 185.453125 182.804688 185.265625 C 183.203125 185.113281 183.609375 184.941406 183.925781 184.648438 C 184.292969 184.308594 184.449219 183.824219 184.496094 183.339844 C 184.605469 182.28125 184.191406 181.171875 183.355469 180.5 Z M 183.582031 183.765625 C 183.460938 184.042969 183.210938 184.203125 182.945312 184.332031 C 182.675781 184.464844 182.3125 184.660156 182.003906 184.609375 C 181.734375 184.566406 181.554688 184.292969 181.441406 184.066406 C 181.101562 183.394531 181.285156 182.621094 181.503906 181.941406 C 181.601562 181.628906 181.714844 181.207031 182 181.007812 C 182.265625 180.820312 182.582031 180.9375 182.820312 181.101562 C 183.332031 181.527344 183.636719 182.109375 183.695312 182.773438 C 183.722656 183.105469 183.714844 183.457031 183.582031 183.765625 Z M 183.582031 183.765625 " fill-opacity="1" fill-rule="nonzero"/><path fill="#ffffff" d="M 141.746094 190.117188 C 140.277344 186.953125 136.753906 188.6875 136.753906 188.6875 C 136.753906 188.6875 140.632812 185.628906 138.898438 182.375 C 136.917969 178.652344 132.632812 180.773438 132.632812 180.773438 C 132.632812 180.773438 136.523438 177.652344 134.375 173.886719 C 132.226562 170.121094 127.9375 172.53125 127.9375 172.53125 C 127.9375 172.53125 131.363281 170 129.292969 166.113281 C 126.53125 160.925781 116.972656 166.886719 116.972656 166.886719 C 115.769531 164.632812 112.859375 161.105469 107.527344 164.917969 C 94.167969 174.476562 97.753906 186.867188 97.753906 186.867188 C 97.753906 186.867188 90.445312 187.140625 96.332031 198.1875 C 102.488281 209.742188 107.222656 204.707031 107.222656 204.707031 C 107.222656 204.707031 112 208.640625 121.066406 206.984375 C 121.066406 206.984375 128.921875 204.886719 136.382812 199.609375 C 138.6875 197.980469 143.441406 193.761719 141.746094 190.117188 Z M 141.746094 190.117188 " fill-opacity="1" fill-rule="nonzero"/><path fill="#302f2f" d="M 142.722656 189.667969 C 142.199219 188.539062 141.371094 187.75 140.328125 187.378906 C 140.046875 187.28125 139.761719 187.214844 139.484375 187.179688 C 140.347656 185.777344 140.921875 183.886719 139.847656 181.871094 C 138.734375 179.78125 136.984375 179.113281 135.347656 179.089844 C 136.167969 177.511719 136.519531 175.472656 135.308594 173.355469 C 134.101562 171.238281 132.289062 170.632812 130.621094 170.695312 C 131.171875 169.3125 131.28125 167.5625 130.242188 165.609375 C 129.566406 164.339844 128.519531 163.507812 127.128906 163.136719 C 123.800781 162.242188 119.296875 164.375 117.351562 165.429688 C 116.472656 164.109375 115.136719 162.753906 113.226562 162.304688 C 111.28125 161.851562 109.152344 162.4375 106.902344 164.046875 C 99.707031 169.191406 97.316406 175.175781 96.574219 179.285156 C 96.039062 182.253906 96.257812 184.683594 96.480469 186.027344 C 95.589844 186.304688 94.414062 186.90625 93.664062 188.210938 C 92.332031 190.527344 92.910156 194.054688 95.382812 198.695312 C 98.050781 203.703125 100.878906 206.441406 103.78125 206.828125 C 105.34375 207.035156 106.542969 206.503906 107.257812 206.039062 C 108.601562 206.878906 111.789062 208.46875 116.707031 208.46875 C 118.089844 208.46875 119.605469 208.34375 121.257812 208.042969 C 121.285156 208.039062 121.3125 208.03125 121.34375 208.023438 C 121.671875 207.933594 129.472656 205.816406 137.003906 200.488281 C 138.355469 199.53125 144.976562 194.523438 142.722656 189.667969 Z M 135.765625 198.730469 C 128.820312 203.640625 121.425781 205.769531 120.824219 205.933594 C 113.457031 207.265625 109.082031 204.6875 108.113281 204.027344 L 105.398438 198.929688 C 105.117188 198.40625 104.46875 198.207031 103.945312 198.488281 C 103.421875 198.765625 103.222656 199.417969 103.5 199.941406 L 105.863281 204.375 C 105.445312 204.597656 104.816406 204.804688 104.027344 204.691406 C 102.535156 204.472656 100.15625 203.082031 97.28125 197.683594 C 95.246094 193.867188 94.621094 190.890625 95.519531 189.300781 C 95.945312 188.542969 96.65625 188.207031 97.171875 188.058594 L 99.613281 192.640625 C 99.890625 193.164062 100.542969 193.363281 101.066406 193.082031 C 101.589844 192.804688 101.789062 192.152344 101.511719 191.628906 L 98.761719 186.472656 C 98.628906 185.929688 98.035156 183.171875 98.707031 179.5625 C 99.707031 174.195312 102.886719 169.5625 108.15625 165.792969 C 109.878906 164.558594 111.421875 164.089844 112.734375 164.398438 C 113.925781 164.675781 114.824219 165.5625 115.460938 166.472656 C 113.210938 167.738281 107.867188 171.128906 104.738281 176.339844 C 104.429688 176.847656 104.597656 177.507812 105.105469 177.8125 C 105.277344 177.917969 105.46875 177.96875 105.65625 177.96875 C 106.023438 177.96875 106.378906 177.78125 106.578125 177.445312 C 110.199219 171.421875 117.367188 167.890625 117.4375 167.855469 C 117.457031 167.84375 117.472656 167.832031 117.488281 167.824219 C 117.503906 167.816406 117.523438 167.808594 117.539062 167.800781 C 119.105469 166.824219 123.78125 164.460938 126.574219 165.210938 C 127.375 165.429688 127.957031 165.886719 128.34375 166.617188 C 129.914062 169.566406 127.566406 171.464844 127.296875 171.667969 C 127.242188 171.707031 127.195312 171.753906 127.148438 171.800781 L 124.464844 173.839844 C 123.992188 174.199219 123.898438 174.871094 124.257812 175.34375 C 124.46875 175.625 124.789062 175.769531 125.113281 175.769531 C 125.339844 175.769531 125.570312 175.699219 125.761719 175.550781 L 128.605469 173.394531 C 129.261719 173.066406 132.007812 171.910156 133.441406 174.421875 C 135.101562 177.332031 132.089844 179.832031 131.960938 179.9375 C 131.917969 179.972656 131.878906 180.011719 131.839844 180.054688 L 128.605469 182.246094 C 128.113281 182.578125 127.984375 183.246094 128.316406 183.738281 C 128.523438 184.046875 128.863281 184.210938 129.207031 184.210938 C 129.414062 184.210938 129.625 184.152344 129.808594 184.023438 L 133.332031 181.640625 C 134.140625 181.304688 136.679688 180.496094 137.949219 182.878906 C 139.238281 185.296875 136.121094 187.820312 136.089844 187.84375 C 136.082031 187.851562 136.078125 187.855469 136.070312 187.863281 L 133.609375 189.523438 C 133.117188 189.855469 132.984375 190.523438 133.316406 191.015625 C 133.527344 191.324219 133.863281 191.488281 134.210938 191.488281 C 134.417969 191.488281 134.625 191.429688 134.808594 191.304688 L 137.320312 189.613281 C 137.761719 189.425781 138.800781 189.117188 139.621094 189.410156 C 140.117188 189.585938 140.492188 189.96875 140.773438 190.570312 C 142.046875 193.316406 138.222656 196.992188 135.765625 198.730469 Z M 135.765625 198.730469 " fill-opacity="1" fill-rule="nonzero"/><path fill="#302f2f" d="M 259.386719 200.566406 C 245.171875 200.566406 234.710938 196.128906 228.214844 192.179688 C 220.289062 187.359375 216.324219 182.167969 216.160156 181.949219 C 214.820312 180.175781 215.171875 177.648438 216.949219 176.308594 C 218.722656 174.96875 221.242188 175.320312 222.585938 177.085938 C 222.660156 177.183594 226.03125 181.492188 232.722656 185.488281 C 241.699219 190.847656 252.117188 193.15625 263.6875 192.355469 C 265.914062 192.203125 267.832031 193.878906 267.988281 196.097656 C 268.140625 198.316406 266.46875 200.242188 264.246094 200.394531 C 262.582031 200.511719 260.960938 200.566406 259.386719 200.566406 Z M 259.386719 200.566406 " fill-opacity="1" fill-rule="nonzero"/><path fill="#ffffff" d="M 270.222656 214.984375 C 262.136719 213.140625 259.050781 207.046875 259.050781 207.046875 C 259.050781 207.046875 252.585938 209.238281 252.585938 196.308594 C 252.585938 183.945312 259.082031 187.097656 259.082031 187.097656 C 262.890625 178.277344 269.132812 182.347656 271.40625 172.84375 C 271.40625 172.84375 273.011719 160.160156 278.121094 160.585938 C 284.34375 161.105469 283.988281 169.621094 282.191406 176.90625 C 285.644531 175.347656 301.066406 174.875 301.78125 182.015625 C 302.15625 185.769531 298.933594 186.78125 298.933594 186.78125 C 298.933594 186.78125 304.867188 190.355469 299.386719 195.585938 C 299.386719 195.585938 303.621094 200.085938 299.03125 204.4375 C 301.066406 206.285156 301.984375 210.542969 296.539062 212.746094 C 286.257812 216.910156 270.222656 214.984375 270.222656 214.984375 Z M 270.222656 214.984375 " fill-opacity="1" fill-rule="nonzero"/><path fill="#302f2f" d="M 302.75 190.628906 C 302.574219 189.007812 301.652344 187.757812 300.832031 186.945312 C 302 186.019531 303.097656 184.390625 302.851562 181.910156 C 302.648438 179.902344 301.453125 178.214844 299.394531 177.027344 C 295.109375 174.558594 287.695312 174.496094 283.644531 175.351562 C 284.609375 170.722656 285.03125 165.199219 282.722656 161.984375 C 281.664062 160.507812 280.144531 159.679688 278.210938 159.515625 C 272.320312 159.027344 270.5625 170.992188 270.347656 172.648438 C 269.261719 177.128906 267.359375 178.167969 264.949219 179.476562 C 262.808594 180.644531 260.402344 181.953125 258.503906 185.789062 C 257.59375 185.59375 256.214844 185.527344 254.886719 186.359375 C 252.648438 187.761719 251.511719 191.109375 251.511719 196.308594 C 251.511719 201.917969 252.707031 205.617188 255.0625 207.308594 C 256.347656 208.230469 257.664062 208.3125 258.503906 208.234375 C 259.621094 209.984375 263.074219 214.457031 269.984375 216.035156 C 270.019531 216.042969 270.058594 216.046875 270.097656 216.054688 C 270.410156 216.089844 274.066406 216.515625 278.9375 216.515625 C 284.414062 216.515625 291.425781 215.976562 296.941406 213.746094 C 300.328125 212.375 301.351562 210.328125 301.613281 208.855469 C 301.878906 207.355469 301.445312 205.726562 300.492188 204.457031 C 303.3125 201.144531 302.207031 197.644531 300.8125 195.65625 C 302.289062 194.011719 302.9375 192.324219 302.75 190.628906 Z M 299.5 208.476562 C 299.257812 209.828125 298.097656 210.960938 296.136719 211.753906 C 286.527344 215.644531 271.433594 214.039062 270.40625 213.925781 C 263.902344 212.421875 260.835938 207.9375 260.15625 206.816406 L 260.15625 201.164062 C 260.15625 200.570312 259.675781 200.089844 259.082031 200.089844 C 258.488281 200.089844 258.007812 200.570312 258.007812 201.164062 L 258.007812 206.113281 C 257.550781 206.109375 256.929688 206.003906 256.3125 205.5625 C 255.101562 204.691406 253.660156 202.382812 253.660156 196.308594 C 253.660156 192.042969 254.496094 189.160156 256.011719 188.195312 C 256.726562 187.738281 257.492188 187.769531 258.007812 187.878906 L 258.007812 192.996094 C 258.007812 193.589844 258.488281 194.070312 259.082031 194.070312 C 259.675781 194.070312 260.160156 193.589844 260.160156 192.996094 L 260.160156 187.328125 C 261.800781 183.640625 263.832031 182.535156 265.980469 181.367188 C 268.519531 179.980469 271.144531 178.550781 272.449219 173.09375 C 272.460938 173.058594 272.464844 173.019531 272.472656 172.980469 C 272.957031 169.175781 274.960938 161.398438 278.035156 161.660156 C 279.328125 161.765625 280.292969 162.28125 280.980469 163.238281 C 282.582031 165.46875 282.675781 170.164062 281.261719 176.160156 C 279.082031 177.285156 277.757812 179.242188 277.691406 181.484375 C 277.644531 183.113281 278.289062 184.667969 279.414062 185.78125 C 278.132812 186.765625 277.296875 188.183594 277.296875 190.238281 C 277.296875 192.132812 278.332031 193.5625 280.167969 194.355469 C 278.339844 195.613281 277.296875 197.28125 277.296875 199.195312 C 277.296875 200.757812 277.847656 202.636719 280.132812 203.667969 C 278.503906 205.222656 278.101562 207.148438 279.046875 209.042969 C 279.902344 210.757812 282.464844 211.65625 285.53125 211.65625 C 287.933594 211.65625 290.648438 211.105469 293.09375 209.960938 C 293.628906 209.710938 293.863281 209.070312 293.609375 208.535156 C 293.359375 207.996094 292.71875 207.765625 292.183594 208.015625 C 287.238281 210.328125 281.777344 209.703125 280.96875 208.082031 C 280.753906 207.65625 280.109375 206.359375 282.007812 204.878906 C 285.285156 202.328125 293.761719 201.335938 298.320312 205.246094 C 299.019531 205.886719 299.742188 207.109375 299.5 208.476562 Z M 298.691406 196.425781 C 299.261719 197.085938 301.417969 199.957031 298.914062 202.996094 C 294.359375 199.808594 286.964844 199.871094 282.414062 202.117188 C 279.8125 201.648438 279.445312 200.382812 279.445312 199.195312 C 279.445312 196.460938 283.253906 194.355469 288.707031 194.074219 C 293.863281 193.808594 297.953125 196 298.691406 196.425781 Z M 299.1875 194.25 C 297.574219 193.410156 293.578125 191.675781 288.597656 191.929688 C 286.59375 192.03125 284.789062 192.363281 283.238281 192.878906 C 281.746094 192.765625 279.445312 192.269531 279.445312 190.238281 C 279.445312 188.21875 280.445312 186.101562 287.855469 185.710938 C 293.300781 185.421875 297.90625 187.492188 298.410156 187.726562 C 298.679688 187.902344 300.429688 189.109375 300.617188 190.875 C 300.730469 191.941406 300.25 193.074219 299.1875 194.25 Z M 298.949219 185.609375 C 297.542969 185 293.066406 183.285156 287.742188 183.566406 C 285.714844 183.671875 283.382812 183.925781 281.4375 184.679688 C 280.40625 183.988281 279.800781 182.828125 279.839844 181.550781 C 279.886719 179.96875 280.898438 178.636719 282.617188 177.894531 C 282.621094 177.894531 282.621094 177.890625 282.625 177.890625 C 282.625 177.890625 282.628906 177.886719 282.632812 177.886719 C 284.898438 176.859375 293.859375 176.316406 298.320312 178.890625 C 299.796875 179.742188 300.578125 180.800781 300.710938 182.125 C 300.933594 184.328125 299.613281 185.277344 298.949219 185.609375 Z M 298.949219 185.609375 " fill-opacity="1" fill-rule="nonzero"/><path fill="#302f2f" d="M 275.800781 186.089844 C 275.242188 185.886719 274.625 186.167969 274.417969 186.726562 C 274.398438 186.785156 272.117188 192.777344 266.429688 195.15625 C 265.882812 195.382812 265.625 196.011719 265.855469 196.5625 C 266.027344 196.972656 266.425781 197.21875 266.84375 197.21875 C 266.984375 197.21875 267.125 197.195312 267.261719 197.136719 C 273.796875 194.402344 276.328125 187.753906 276.433594 187.472656 C 276.640625 186.917969 276.355469 186.296875 275.800781 186.089844 Z M 275.800781 186.089844 " fill-opacity="1" fill-rule="nonzero"/></svg>